<?xml version="1.0" standalone="no"?>
<!DOCTYPE svg PUBLIC "-//W3C//DTD SVG 1.1//EN"
  "http://www.w3.org/Graphics/SVG/1.1/DTD/svg11.dtd">
<svg width="28.996994018554688mm" height="126mm" viewBox="154.00100708007812 -206 28.996994018554688 126" xmlns="http://www.w3.org/2000/svg" version="1.1">
	<title>svgOutput</title>
	<desc>made with tinkercad</desc>
<path d="M 181.9980010986328 -89.99800109863281 L 179.00100708007812 -89.99800109863281 L 178.99600219726562 -89.99800109863281 L 178.99600219726562 -86.99800109863281 L 179.00100708007812 -86.99800109863281 L 181.9980010986328 -86.99800109863281 L 181.9980010986328 -83.99800109863281 L 179.00100708007812 -83.99800109863281 L 179.00100708007812 -84.00299835205078 L 176 -84.00299835205078 L 176 -81 L 172.99899291992188 -81 L 172.99899291992188 -84.00299835205078 L 169.9980010986328 -84.00299835205078 L 169.9980010986328 -81 L 166.9980010986328 -81 L 166.9980010986328 -84.00299835205078 L 163.9969940185547 -84.00299835205078 L 163.9969940185547 -81 L 160.99600219726562 -81 L 160.99600219726562 -84.00299835205078 L 157.99600219726562 -84.00299835205078 L 157.99600219726562 -81 L 155.00100708007812 -81 L 155.00100708007812 -205 L 157.99600219726562 -205 L 157.99600219726562 -201.697998046875 L 160.99600219726562 -201.697998046875 L 160.99600219726562 -205 L 163.9969940185547 -205 L 163.9969940185547 -201.697998046875 L 166.9980010986328 -201.697998046875 L 166.9980010986328 -205 L 169.9980010986328 -205 L 169.9980010986328 -201.697998046875 L 172.99899291992188 -201.697998046875 L 172.99899291992188 -205 L 176 -205 L 176 -201.697998046875 L 179.00100708007812 -201.697998046875 L 179.00100708007812 -205 L 181.9980010986328 -205 L 181.9980010986328 -198.0019989013672 L 179.00100708007812 -198.0019989013672 L 178.99600219726562 -198.0019989013672 L 178.99600219726562 -195.0019989013672 L 179.00100708007812 -195.0019989013672 L 181.9980010986328 -195.0019989013672 L 181.9980010986328 -192.0019989013672 L 179.00100708007812 -192.0019989013672 L 178.99600219726562 -192.0019989013672 L 178.99600219726562 -189.0019989013672 L 179.00100708007812 -189.0019989013672 L 181.9980010986328 -189.0019989013672 L 181.9980010986328 -186.0019989013672 L 179.00100708007812 -186.0019989013672 L 178.99600219726562 -186.0019989013672 L 178.99600219726562 -183.0019989013672 L 179.00100708007812 -183.0019989013672 L 181.9980010986328 -183.0019989013672 L 181.9980010986328 -180.0019989013672 L 179.00100708007812 -180.0019989013672 L 178.99600219726562 -180.0019989013672 L 178.99600219726562 -177.0019989013672 L 179.00100708007812 -177.0019989013672 L 181.9980010986328 -177.0019989013672 L 181.9980010986328 -174.00100708007812 L 179.00100708007812 -174.00100708007812 L 178.99600219726562 -174.00100708007812 L 178.99600219726562 -171.00100708007812 L 179.00100708007812 -171.00100708007812 L 181.9980010986328 -171.00100708007812 L 181.9980010986328 -168.00100708007812 L 179.00100708007812 -168.00100708007812 L 178.99600219726562 -168.00100708007812 L 178.99600219726562 -165.00100708007812 L 179.00100708007812 -165.00100708007812 L 181.9980010986328 -165.00100708007812 L 181.9980010986328 -162.00100708007812 L 179.00100708007812 -162.00100708007812 L 178.99600219726562 -162.00100708007812 L 178.99600219726562 -159.00100708007812 L 179.00100708007812 -159.00100708007812 L 181.9980010986328 -159.00100708007812 L 181.9980010986328 -156.00100708007812 L 179.00100708007812 -156.00100708007812 L 178.99600219726562 -156.00100708007812 L 178.99600219726562 -153.00100708007812 L 179.00100708007812 -153.00100708007812 L 181.9980010986328 -153.00100708007812 L 181.9980010986328 -150 L 179.00100708007812 -150 L 178.99600219726562 -150 L 178.99600219726562 -147 L 179.00100708007812 -147 L 181.9980010986328 -147 L 181.9980010986328 -144 L 179.00100708007812 -144 L 178.99600219726562 -144 L 178.99600219726562 -141 L 179.00100708007812 -141 L 181.9980010986328 -141 L 181.9980010986328 -138 L 179.00100708007812 -138 L 178.99600219726562 -138 L 178.99600219726562 -135 L 179.00100708007812 -135 L 181.9980010986328 -135 L 181.9980010986328 -132 L 179.00100708007812 -132 L 178.99600219726562 -132 L 178.99600219726562 -129 L 179.00100708007812 -129 L 181.9980010986328 -129 L 181.9980010986328 -125.9990005493164 L 179.00100708007812 -125.9990005493164 L 178.99600219726562 -125.9990005493164 L 178.99600219726562 -122.9990005493164 L 179.00100708007812 -122.9990005493164 L 181.9980010986328 -122.9990005493164 L 181.9980010986328 -119.9990005493164 L 179.00100708007812 -119.9990005493164 L 178.99600219726562 -119.9990005493164 L 178.99600219726562 -116.9990005493164 L 179.00100708007812 -116.9990005493164 L 181.9980010986328 -116.9990005493164 L 181.9980010986328 -113.9990005493164 L 179.00100708007812 -113.9990005493164 L 178.99600219726562 -113.9990005493164 L 178.99600219726562 -110.9990005493164 L 179.00100708007812 -110.9990005493164 L 181.9980010986328 -110.9990005493164 L 181.9980010986328 -107.9990005493164 L 179.00100708007812 -107.9990005493164 L 178.99600219726562 -107.9990005493164 L 178.99600219726562 -104.9990005493164 L 179.00100708007812 -104.9990005493164 L 181.9980010986328 -104.9990005493164 L 181.9980010986328 -101.99800109863281 L 179.00100708007812 -101.99800109863281 L 178.99600219726562 -101.99800109863281 L 178.99600219726562 -98.99800109863281 L 179.00100708007812 -98.99800109863281 L 181.9980010986328 -98.99800109863281 L 181.9980010986328 -95.99800109863281 L 179.00100708007812 -95.99800109863281 L 178.99600219726562 -95.99800109863281 L 178.99600219726562 -92.99800109863281 L 179.00100708007812 -92.99800109863281 L 181.9980010986328 -92.99800109863281 L 181.9980010986328 -89.99800109863281 z" fill="none" stroke="rgb(255,0,0)" stroke-width="0.001mm" />
</svg>