<?xml version="1.0" standalone="no"?>
<!DOCTYPE svg PUBLIC "-//W3C//DTD SVG 1.1//EN"
  "http://www.w3.org/Graphics/SVG/1.1/DTD/svg11.dtd">
<svg width="92mm" height="28.996994018554688mm" viewBox="30 -255.99899291992188 92 28.996994018554688" xmlns="http://www.w3.org/2000/svg" version="1.1">
	<title>svgOutput</title>
	<desc>made with tinkercad</desc>
<path d="M 121 -228.0019989013672 L 106.00299835205078 -228.0019989013672 L 88.99800109863281 -228.0019989013672 L 84.00299835205078 -228.0019989013672 L 66.99800109863281 -228.0019989013672 L 63.00299835205078 -228.0019989013672 L 45.99800109863281 -228.0019989013672 L 34.00299835205078 -228.0019989013672 L 34.00299835205078 -230.9969940185547 L 31 -230.9969940185547 L 31 -233.9980010986328 L 34.00299835205078 -233.9980010986328 L 34.00299835205078 -236.99899291992188 L 31 -236.99899291992188 L 31 -239.99899291992188 L 34.00299835205078 -239.99899291992188 L 34.00299835205078 -243 L 31 -243 L 31 -246.00100708007812 L 34.00299835205078 -246.00100708007812 L 34.00299835205078 -249.0019989013672 L 33.99800109863281 -249.0019989013672 L 31 -249.0019989013672 L 31 -254.99899291992188 L 33.99800109863281 -254.99899291992188 L 33.99800109863281 -251.99600219726562 L 37.00299835205078 -251.99600219726562 L 37.00299835205078 -254.99899291992188 L 39.99800109863281 -254.99899291992188 L 39.99800109863281 -251.99600219726562 L 43.00299835205078 -251.99600219726562 L 43.00299835205078 -254.99899291992188 L 45.99800109863281 -254.99899291992188 L 63.00299835205078 -254.99899291992188 L 66.99800109863281 -254.99899291992188 L 84.00299835205078 -254.99899291992188 L 88.99800109863281 -254.99899291992188 L 106.00299835205078 -254.99899291992188 L 111.99800109863281 -254.99899291992188 L 111.99800109863281 -252.0019989013672 L 111.99800109863281 -251.99600219726562 L 115.00299835205078 -251.99600219726562 L 115.00299835205078 -252.0019989013672 L 115.00299835205078 -254.99899291992188 L 121 -254.99899291992188 L 121 -252.0019989013672 L 117.49800109863281 -252.0019989013672 L 117.49800109863281 -249.00100708007812 L 121 -249.00100708007812 L 121 -246 L 117.49800109863281 -246 L 117.49800109863281 -242.99899291992188 L 121 -242.99899291992188 L 121 -239.99899291992188 L 117.49800109863281 -239.99899291992188 L 117.49800109863281 -236.9980010986328 L 121 -236.9980010986328 L 121 -233.9969940185547 L 117.49800109863281 -233.9969940185547 L 117.49800109863281 -230.99600219726562 L 121 -230.99600219726562 L 121 -228.0019989013672 M 106.00299835205078 -249.00100708007812 L 106.00299835205078 -252.0019989013672 L 88.99800109863281 -252.0019989013672 L 88.99800109863281 -241.99691772460938 L 106.00299835205078 -241.99691772460938 L 106.00299835205078 -242.99899291992188 L 106.00299835205078 -246 L 106.00299835205078 -249.00100708007812 M 63.00299835205078 -252.0019989013672 L 45.99800109863281 -252.0019989013672 L 45.99800109863281 -249.0019989013672 L 45.99800109863281 -246.00100708007812 L 45.99800109863281 -243 L 45.99800109863281 -241.99691772460938 L 63.00299835205078 -241.99691772460938 L 63.00299835205078 -252.0019989013672 M 84.00299835205078 -252.0019989013672 L 66.99800109863281 -252.0019989013672 L 66.99800109863281 -241.99691772460938 L 84.00299835205078 -241.99691772460938 L 84.00299835205078 -252.0019989013672 z" fill="none" stroke="rgb(255,0,0)" stroke-width="0.001mm" />
</svg>