<?xml version="1.0" standalone="no"?>
<!DOCTYPE svg PUBLIC "-//W3C//DTD SVG 1.1//EN"
  "http://www.w3.org/Graphics/SVG/1.1/DTD/svg11.dtd">
<svg width="171mm" height="28.996994018554688mm" viewBox="-153 -256.9980010986328 171 28.996994018554688" xmlns="http://www.w3.org/2000/svg" version="1.1">
	<title>svgOutput</title>
	<desc>made with tinkercad</desc>
<path d="M -98.0009994506836 -255.9980010986328 L -98.0009994506836 -253.00100708007812 L -98.0009994506836 -252.9949951171875 L -95.0009994506836 -252.9949951171875 L -95.0009994506836 -253.00100708007812 L -95.0009994506836 -255.9980010986328 L -92.0009994506836 -255.9980010986328 L -92.0009994506836 -253.00100708007812 L -92.0009994506836 -252.9949951171875 L -89.0009994506836 -252.9949951171875 L -89.0009994506836 -253.00100708007812 L -89.0009994506836 -255.9980010986328 L -86.0009994506836 -255.9980010986328 L -86.0009994506836 -253.00100708007812 L -86.0009994506836 -252.9949951171875 L -83.0009994506836 -252.9949951171875 L -83.0009994506836 -253.00100708007812 L -83.0009994506836 -255.9980010986328 L -80 -255.9980010986328 L -80 -253.00100708007812 L -80 -252.9949951171875 L -77 -252.9949951171875 L -77 -253.00100708007812 L -77 -255.9980010986328 L -74 -255.9980010986328 L -74 -253.00100708007812 L -74 -252.9949951171875 L -71 -252.9949951171875 L -71 -253.00100708007812 L -71 -255.9980010986328 L -68 -255.9980010986328 L -68 -253.00100708007812 L -68 -252.9949951171875 L -65 -252.9949951171875 L -65 -253.00100708007812 L -65 -255.9980010986328 L -62 -255.9980010986328 L -62 -253.00100708007812 L -62 -252.9949951171875 L -59 -252.9949951171875 L -59 -253.00100708007812 L -59 -255.9980010986328 L -56 -255.9980010986328 L -56 -253.00100708007812 L -56 -252.9949951171875 L -53 -252.9949951171875 L -53 -253.00100708007812 L -53 -255.9980010986328 L -50 -255.9980010986328 L -50 -253.00100708007812 L -50 -252.9949951171875 L -46.999000549316406 -252.9949951171875 L -46.999000549316406 -253.00100708007812 L -46.999000549316406 -255.9980010986328 L -43.999000549316406 -255.9980010986328 L -43.999000549316406 -253.00100708007812 L -43.999000549316406 -252.9949951171875 L -40.999000549316406 -252.9949951171875 L -40.999000549316406 -253.00100708007812 L -40.999000549316406 -255.9980010986328 L -37.999000549316406 -255.9980010986328 L -37.999000549316406 -253.00100708007812 L -37.999000549316406 -252.9949951171875 L -34.999000549316406 -252.9949951171875 L -34.999000549316406 -253.00100708007812 L -34.999000549316406 -255.9980010986328 L -31.999000549316406 -255.9980010986328 L -31.999000549316406 -253.00100708007812 L -31.999000549316406 -252.9949951171875 L -28.999000549316406 -252.9949951171875 L -28.999000549316406 -253.00100708007812 L -28.999000549316406 -255.9980010986328 L -25.999000549316406 -255.9980010986328 L -25.999000549316406 -253.00100708007812 L -25.999000549316406 -252.9949951171875 L -22.999000549316406 -252.9949951171875 L -22.999000549316406 -253.00100708007812 L -22.999000549316406 -255.9980010986328 L -19.999000549316406 -255.9980010986328 L -19.999000549316406 -253.00100708007812 L -19.999000549316406 -252.9949951171875 L -16.999000549316406 -252.9949951171875 L -16.999000549316406 -253.00100708007812 L -16.999000549316406 -255.9980010986328 L -13.998000144958496 -255.9980010986328 L -13.998000144958496 -253.00100708007812 L -13.998000144958496 -252.9949951171875 L -10.998000144958496 -252.9949951171875 L -10.998000144958496 -253.00100708007812 L -10.998000144958496 -255.9980010986328 L -7.998000144958496 -255.9980010986328 L -7.998000144958496 -253.00100708007812 L -7.998000144958496 -252.9949951171875 L -4.998000144958496 -252.9949951171875 L -4.998000144958496 -253.00100708007812 L -4.998000144958496 -255.9980010986328 L -1.9980000257492065 -255.9980010986328 L -1.9980000257492065 -253.00100708007812 L -1.9980000257492065 -252.9949951171875 L 1.0019999742507935 -252.9949951171875 L 1.0019999742507935 -253.00100708007812 L 1.0019999742507935 -255.9980010986328 L 4.001999855041504 -255.9980010986328 L 4.001999855041504 -253.00100708007812 L 4.001999855041504 -252.9949951171875 L 7.001999855041504 -252.9949951171875 L 7.001999855041504 -253.00100708007812 L 7.001999855041504 -255.9980010986328 L 10.001999855041504 -255.9980010986328 L 10.001999855041504 -253.00100708007812 L 10.001999855041504 -252.9949951171875 L 17 -252.9949951171875 L 17 -250.00100708007812 L 13.996999740600586 -250.00100708007812 L 13.996999740600586 -250 L 13.996999740600586 -247 L 17 -247 L 17 -246.99899291992188 L 17 -243.99899291992188 L 13.996999740600586 -243.99899291992188 L 13.996999740600586 -243.9980010986328 L 13.996999740600586 -240.9980010986328 L 17 -240.9980010986328 L 17 -237.9980010986328 L 13.996999740600586 -237.9980010986328 L 13.996999740600586 -237.9969940185547 L 13.996999740600586 -234.9969940185547 L 17 -234.9969940185547 L 17 -234.99600219726562 L 17 -231.99600219726562 L 13.996999740600586 -231.99600219726562 L 13.996999740600586 -229.00100708007812 L -28.99799919128418 -229.00100708007812 L -28.99799919128418 -231.99600219726562 L -32.00199890136719 -231.99600219726562 L -32.00199890136719 -229.00100708007812 L -66.99800109863281 -229.00100708007812 L -66.99800109863281 -231.99600219726562 L -70.00299835205078 -231.99600219726562 L -70.00299835205078 -229.00100708007812 L -152 -229.00100708007812 L -152 -231.99600219726562 L -148.4980010986328 -231.99600219726562 L -148.4980010986328 -234.99600219726562 L -152 -234.99600219726562 L -152 -234.9969940185547 L -152 -237.9969940185547 L -148.4980010986328 -237.9969940185547 L -148.4980010986328 -237.9980010986328 L -148.4980010986328 -240.9980010986328 L -152 -240.9980010986328 L -152 -243.9980010986328 L -148.4980010986328 -243.9980010986328 L -148.4980010986328 -243.99899291992188 L -148.4980010986328 -246.99899291992188 L -152 -246.99899291992188 L -152 -247 L -152 -250 L -148.4980010986328 -250 L -148.4980010986328 -250.00100708007812 L -148.4980010986328 -253.00100708007812 L -152 -253.00100708007812 L -152 -255.9980010986328 L -146.0030059814453 -255.9980010986328 L -146.0030059814453 -253.00100708007812 L -146.0030059814453 -252.9949951171875 L -143.0019989013672 -252.9949951171875 L -143.0019989013672 -253.00100708007812 L -143.0019989013672 -255.9980010986328 L -140.0019989013672 -255.9980010986328 L -140.0019989013672 -253.00100708007812 L -140.0019989013672 -252.9949951171875 L -137.0019989013672 -252.9949951171875 L -137.0019989013672 -253.00100708007812 L -137.0019989013672 -255.9980010986328 L -134.0019989013672 -255.9980010986328 L -134.0019989013672 -253.00100708007812 L -134.0019989013672 -252.9949951171875 L -131.0019989013672 -252.9949951171875 L -131.0019989013672 -253.00100708007812 L -131.0019989013672 -255.9980010986328 L -128.0019989013672 -255.9980010986328 L -128.0019989013672 -253.00100708007812 L -128.0019989013672 -252.9949951171875 L -125.00199890136719 -252.9949951171875 L -125.00199890136719 -253.00100708007812 L -125.00199890136719 -255.9980010986328 L -122.00199890136719 -255.9980010986328 L -122.00199890136719 -253.00100708007812 L -122.00199890136719 -252.9949951171875 L -119.00199890136719 -252.9949951171875 L -119.00199890136719 -253.00100708007812 L -119.00199890136719 -255.9980010986328 L -116.00199890136719 -255.9980010986328 L -116.00199890136719 -253.00100708007812 L -116.00199890136719 -252.9949951171875 L -113.0009994506836 -252.9949951171875 L -113.0009994506836 -253.00100708007812 L -113.0009994506836 -255.9980010986328 L -110.0009994506836 -255.9980010986328 L -110.0009994506836 -253.00100708007812 L -110.0009994506836 -252.9949951171875 L -107.0009994506836 -252.9949951171875 L -107.0009994506836 -253.00100708007812 L -107.0009994506836 -255.9980010986328 L -104.0009994506836 -255.9980010986328 L -104.0009994506836 -253.00100708007812 L -104.0009994506836 -252.9949951171875 L -101.0009994506836 -252.9949951171875 L -101.0009994506836 -253.00100708007812 L -101.0009994506836 -255.9980010986328 L -98.0009994506836 -255.9980010986328 M -32.00199890136719 -250.00100708007812 L -32.00199890136719 -250 L -32.00199890136719 -247 L -28.99799919128418 -247 L -28.99799919128418 -250 L -28.99799919128418 -250.00100708007812 L -28.999000549316406 -250.00100708007812 L -31.999000549316406 -250.00100708007812 L -32.00199890136719 -250.00100708007812 M -70.00299835205078 -250.00100708007812 L -70.00299835205078 -250 L -70.00299835205078 -247 L -66.99800109863281 -247 L -66.99800109863281 -250 L -66.99800109863281 -250.00100708007812 L -68 -250.00100708007812 L -70.00299835205078 -250.00100708007812 M -66.99800109863281 -234.9969940185547 L -66.99800109863281 -237.9969940185547 L -66.99800109863281 -237.9980010986328 L -70.00299835205078 -237.9980010986328 L -70.00299835205078 -237.9969940185547 L -70.00299835205078 -234.9969940185547 L -66.99800109863281 -234.9969940185547 M -32.00199890136719 -243.9980010986328 L -32.00199890136719 -240.9980010986328 L -28.99799919128418 -240.9980010986328 L -28.99799919128418 -243.9980010986328 L -28.99799919128418 -243.99899291992188 L -32.00199890136719 -243.99899291992188 L -32.00199890136719 -243.9980010986328 M -66.99800109863281 -243.9980010986328 L -66.99800109863281 -243.99899291992188 L -70.00299835205078 -243.99899291992188 L -70.00299835205078 -243.9980010986328 L -70.00299835205078 -240.9980010986328 L -66.99800109863281 -240.9980010986328 L -66.99800109863281 -243.9980010986328 M -32.00199890136719 -237.9969940185547 L -32.00199890136719 -234.9969940185547 L -28.99799919128418 -234.9969940185547 L -28.99799919128418 -237.9969940185547 L -28.99799919128418 -237.9980010986328 L -32.00199890136719 -237.9980010986328 L -32.00199890136719 -237.9969940185547 z" fill="none" stroke="rgb(255,0,0)" stroke-width="0.001mm" />
</svg>