<?xml version="1.0" standalone="no"?>
<!DOCTYPE svg PUBLIC "-//W3C//DTD SVG 1.1//EN"
  "http://www.w3.org/Graphics/SVG/1.1/DTD/svg11.dtd">
<svg width="37mm" height="292mm" viewBox="222 -206 37 292" xmlns="http://www.w3.org/2000/svg" version="1.1">
	<title>svgOutput</title>
	<desc>made with tinkercad</desc>
<path d="M 223 -143 L 225.9980010986328 -143 L 226.0030059814453 -143 L 226.0030059814453 -146 L 225.9980010986328 -146 L 223 -146 L 223 -149 L 225.9980010986328 -149 L 226.0030059814453 -149 L 226.0030059814453 -152.00100708007812 L 225.9980010986328 -152.00100708007812 L 223 -152.00100708007812 L 223 -155.00100708007812 L 225.9980010986328 -155.00100708007812 L 226.0030059814453 -155.00100708007812 L 226.0030059814453 -158.00100708007812 L 225.9980010986328 -158.00100708007812 L 223 -158.00100708007812 L 223 -161.00100708007812 L 225.9980010986328 -161.00100708007812 L 226.0030059814453 -161.00100708007812 L 226.0030059814453 -164.00100708007812 L 225.9980010986328 -164.00100708007812 L 223 -164.00100708007812 L 223 -167.00100708007812 L 225.9980010986328 -167.00100708007812 L 226.0030059814453 -167.00100708007812 L 226.0030059814453 -170.00100708007812 L 225.9980010986328 -170.00100708007812 L 223 -170.00100708007812 L 223 -173.00100708007812 L 225.9980010986328 -173.00100708007812 L 226.0030059814453 -173.00100708007812 L 226.0030059814453 -176.00100708007812 L 225.9980010986328 -176.00100708007812 L 223 -176.00100708007812 L 223 -179.0019989013672 L 225.9980010986328 -179.0019989013672 L 226.0030059814453 -179.0019989013672 L 226.0030059814453 -182.0019989013672 L 225.9980010986328 -182.0019989013672 L 223 -182.0019989013672 L 223 -185.0019989013672 L 225.9980010986328 -185.0019989013672 L 226.0030059814453 -185.0019989013672 L 226.0030059814453 -188.0019989013672 L 225.9980010986328 -188.0019989013672 L 223 -188.0019989013672 L 223 -191.0019989013672 L 225.9980010986328 -191.0019989013672 L 226.0030059814453 -191.0019989013672 L 226.0030059814453 -194.0019989013672 L 225.9980010986328 -194.0019989013672 L 223 -194.0019989013672 L 223 -197.0019989013672 L 225.9980010986328 -197.0019989013672 L 226.0030059814453 -197.0019989013672 L 226.0030059814453 -201.697998046875 L 228.9980010986328 -201.697998046875 L 228.9980010986328 -205 L 231.99899291992188 -205 L 231.99899291992188 -201.697998046875 L 233.0030059814453 -201.697998046875 L 235 -201.697998046875 L 235 -205 L 238 -205 L 238 -201.697998046875 L 241.00100708007812 -201.697998046875 L 241.00100708007812 -205 L 244.0019989013672 -205 L 244.0019989013672 -201.697998046875 L 247.0030059814453 -201.697998046875 L 247.0030059814453 -205 L 252.9980010986328 -205 L 252.9980010986328 -201.697998046875 L 258 -201.697998046875 L 258 -200.0030059814453 L 258 -197.0019989013672 L 258 -194.0019989013672 L 258 -191.0019989013672 L 258 -188.0019989013672 L 258 -185.0030059814453 L 254.9980010986328 -185.0030059814453 L 254.9980010986328 -185.0019989013672 L 254.9980010986328 -182.0019989013672 L 254.9980010986328 -179.0019989013672 L 254.9980010986328 -176.0019989013672 L 254.9980010986328 -173.0019989013672 L 254.9980010986328 -170.0019989013672 L 254.9980010986328 -167.0019989013672 L 254.9980010986328 -164.0019989013672 L 254.9980010986328 -161.0019989013672 L 254.9980010986328 -158.0019989013672 L 254.9980010986328 -155.0019989013672 L 254.9980010986328 -152.0019989013672 L 254.9980010986328 -149.0019989013672 L 254.9980010986328 -146.0019989013672 L 254.9980010986328 -143.00100708007812 L 254.9980010986328 -140.00100708007812 L 254.9980010986328 -137.00100708007812 L 254.9980010986328 -134.00100708007812 L 254.9980010986328 -131.00100708007812 L 254.9980010986328 -128.00100708007812 L 254.9980010986328 -125.0009994506836 L 254.9980010986328 -122.0009994506836 L 254.9980010986328 -119.0009994506836 L 254.9980010986328 -116.0009994506836 L 254.9980010986328 -113.0009994506836 L 254.9980010986328 -110.0009994506836 L 254.9980010986328 -107.0009994506836 L 254.9980010986328 -104.0009994506836 L 254.9980010986328 -101.0009994506836 L 254.9980010986328 -98.0009994506836 L 254.9980010986328 -95.0009994506836 L 254.9980010986328 -92.0009994506836 L 254.9980010986328 -89.0009994506836 L 254.9980010986328 -86 L 254.9980010986328 -83 L 254.9980010986328 -80.00299835205078 L 254.9980010986328 -80 L 254.9980010986328 -77 L 254.9980010986328 -76.99800109863281 L 254.9980010986328 -74 L 254.9980010986328 -71 L 254.9980010986328 -69.99800109863281 L 258 -69.99800109863281 L 258 -68 L 258 -65 L 258 -62 L 258 -59 L 258 -56 L 258 -53.00299835205078 L 254.9980010986328 -53.00299835205078 L 254.9980010986328 -53 L 254.9980010986328 -50 L 254.9980010986328 -47 L 254.9980010986328 -44 L 254.9980010986328 -41 L 254.9980010986328 -38 L 254.9980010986328 -37.99800109863281 L 254.9980010986328 -35 L 254.9980010986328 -32.00299835205078 L 254.9980010986328 -31.999000549316406 L 254.9980010986328 -28.999000549316406 L 254.9980010986328 -26.00200080871582 L 254.9980010986328 -25.999000549316406 L 254.9980010986328 -22.999000549316406 L 254.9980010986328 -20.00200080871582 L 254.9980010986328 -19.999000549316406 L 254.9980010986328 -16.999000549316406 L 254.9980010986328 -14.001999855041504 L 254.9980010986328 -13.99899959564209 L 254.9980010986328 -10.99899959564209 L 254.9980010986328 -8.00100040435791 L 254.9980010986328 -7.999000072479248 L 254.9980010986328 -4.999000072479248 L 254.9980010986328 -2.000999927520752 L 254.9980010986328 -1.9989999532699585 L 254.9980010986328 1.0010000467300415 L 254.9980010986328 3.999000072479248 L 254.9980010986328 4.000999927520752 L 254.9980010986328 7.000999927520752 L 254.9980010986328 9.99899959564209 L 254.9980010986328 10.00100040435791 L 254.9980010986328 13.00100040435791 L 254.9980010986328 16 L 254.9980010986328 16.000999450683594 L 254.9980010986328 19.000999450683594 L 254.9980010986328 22 L 254.9980010986328 22.000999450683594 L 254.9980010986328 25.00200080871582 L 254.9980010986328 28 L 254.9980010986328 28.00200080871582 L 254.9980010986328 31.00200080871582 L 254.9980010986328 34 L 254.9980010986328 34.00199890136719 L 254.9980010986328 37.00199890136719 L 254.9980010986328 40.000999450683594 L 254.9980010986328 40.00199890136719 L 254.9980010986328 43.00199890136719 L 254.9980010986328 46.000999450683594 L 254.9980010986328 46.00199890136719 L 254.9980010986328 49.00199890136719 L 254.9980010986328 52.000999450683594 L 254.9980010986328 52.00199890136719 L 254.9980010986328 55.00199890136719 L 254.9980010986328 58.00199890136719 L 254.9980010986328 61.00199890136719 L 254.9980010986328 62.00299835205078 L 258 62.00299835205078 L 258 64.00199890136719 L 258 67.00199890136719 L 258 70.00199890136719 L 258 73.00199890136719 L 258 76.00199890136719 L 258 79.00199890136719 L 258 85 L 250.0030059814453 85 L 250.0030059814453 81.99800109863281 L 247.0019989013672 81.99800109863281 L 247.0019989013672 85 L 244.00100708007812 85 L 244.00100708007812 81.99800109863281 L 241 81.99800109863281 L 241 85 L 238 85 L 238 81.99800109863281 L 234.99899291992188 81.99800109863281 L 234.99899291992188 85 L 231.9980010986328 85 L 231.9980010986328 81.99800109863281 L 228.9980010986328 81.99800109863281 L 228.9980010986328 85 L 223 85 L 223 79.00299835205078 L 226.0030059814453 79.00299835205078 L 226.0030059814453 76.00199890136719 L 223 76.00199890136719 L 223 73.00199890136719 L 226.0030059814453 73.00199890136719 L 226.0030059814453 70.00199890136719 L 223 70.00199890136719 L 223 67.00199890136719 L 226.0030059814453 67.00199890136719 L 226.0030059814453 64.00199890136719 L 223 64.00199890136719 L 223 62.00299835205078 L 223 61.00199890136719 L 226.0030059814453 61.00199890136719 L 226.0030059814453 58.00199890136719 L 223 58.00199890136719 L 223 55.00199890136719 L 223 55.000999450683594 L 226.0030059814453 55.000999450683594 L 226.0030059814453 52.00199890136719 L 226.0030059814453 52.000999450683594 L 223 52.000999450683594 L 223 49.00199890136719 L 223 49.000999450683594 L 226.0030059814453 49.000999450683594 L 226.0030059814453 46.00199890136719 L 226.0030059814453 46.000999450683594 L 223 46.000999450683594 L 223 43.00199890136719 L 223 43.000999450683594 L 226.0030059814453 43.000999450683594 L 226.0030059814453 40.00199890136719 L 226.0030059814453 40.000999450683594 L 223 40.000999450683594 L 223 37.00199890136719 L 223 37.000999450683594 L 226.0030059814453 37.000999450683594 L 226.0030059814453 34.00199890136719 L 226.0030059814453 34 L 223 34 L 223 31.00200080871582 L 223 31 L 226.0030059814453 31 L 226.0030059814453 28.00200080871582 L 226.0030059814453 28 L 223 28 L 223 25.00200080871582 L 223 25 L 226.0030059814453 25 L 226.0030059814453 22.000999450683594 L 226.0030059814453 22 L 223 22 L 223 19.000999450683594 L 223 19 L 226.0030059814453 19 L 226.0030059814453 16.000999450683594 L 226.0030059814453 16 L 223 16 L 223 13.00100040435791 L 223 13 L 226.0030059814453 13 L 226.0030059814453 10.00100040435791 L 226.0030059814453 9.99899959564209 L 223 9.99899959564209 L 223 7.000999927520752 L 223 6.999000072479248 L 226.0030059814453 6.999000072479248 L 226.0030059814453 4.000999927520752 L 226.0030059814453 3.999000072479248 L 223 3.999000072479248 L 223 1.0010000467300415 L 223 0.9990000128746034 L 226.0030059814453 0.9990000128746034 L 226.0030059814453 -1.9989999532699585 L 226.0030059814453 -2.000999927520752 L 223 -2.000999927520752 L 223 -4.999000072479248 L 223 -5.000999927520752 L 226.0030059814453 -5.000999927520752 L 226.0030059814453 -7.999000072479248 L 226.0030059814453 -8.00100040435791 L 223 -8.00100040435791 L 223 -10.99899959564209 L 223 -11.001999855041504 L 226.0030059814453 -11.001999855041504 L 226.0030059814453 -13.99899959564209 L 226.0030059814453 -14.001999855041504 L 223 -14.001999855041504 L 223 -16.999000549316406 L 223 -17.00200080871582 L 226.0030059814453 -17.00200080871582 L 226.0030059814453 -19.999000549316406 L 226.0030059814453 -20.00200080871582 L 223 -20.00200080871582 L 223 -22.999000549316406 L 223 -23.00200080871582 L 226.0030059814453 -23.00200080871582 L 226.0030059814453 -25.999000549316406 L 226.0030059814453 -26.00200080871582 L 223 -26.00200080871582 L 223 -28.999000549316406 L 223 -29.00200080871582 L 226.0030059814453 -29.00200080871582 L 226.0030059814453 -31.999000549316406 L 226.0030059814453 -32.00299835205078 L 223 -32.00299835205078 L 223 -35 L 223 -37.99800109863281 L 223 -37.99809646606445 L 223.97799682617188 -38.04600143432617 L 224.94900512695312 -38.189998626708984 L 225.90199279785156 -38.428001403808594 L 226.8260040283203 -38.75899887084961 L 227.71400451660156 -39.17900085449219 L 228.55599975585938 -39.68299865722656 L 229.34500122070312 -40.268001556396484 L 230.07200622558594 -40.926998138427734 L 230.10191345214844 -40.959999084472656 L 230.7310028076172 -41.65399932861328 L 231.3159942626953 -42.44300079345703 L 231.8209991455078 -43.28499984741211 L 232.24099731445312 -44.172000885009766 L 232.57200622558594 -45.09600067138672 L 232.80999755859375 -46.04899978637695 L 232.95399475097656 -47.02000045776367 L 233.0030059814453 -48 L 232.95399475097656 -48.97999954223633 L 232.92849731445312 -49.152000427246094 L 232.80999755859375 -49.95100021362305 L 232.57200622558594 -50.90399932861328 L 232.24099731445312 -51.827999114990234 L 231.8209991455078 -52.71500015258789 L 231.3159942626953 -53.55699920654297 L 230.7310028076172 -54.34600067138672 L 230.07200622558594 -55.073001861572266 L 229.34500122070312 -55.731998443603516 L 228.55599975585938 -56.31700134277344 L 227.71400451660156 -56.82099914550781 L 226.8260040283203 -57.24100112915039 L 225.90199279785156 -57.571998596191406 L 224.94900512695312 -57.810001373291016 L 223.97799682617188 -57.95399856567383 L 223 -58.002899169921875 L 223 -58.00299835205078 L 223 -64.99700164794922 L 226.0030059814453 -64.99700164794922 L 226.0030059814453 -67.99800109863281 L 223 -67.99800109863281 L 223 -70.99800109863281 L 226.0030059814453 -70.99800109863281 L 226.0030059814453 -73.99800109863281 L 223 -73.99800109863281 L 223 -76.99800109863281 L 225.9980010986328 -76.99800109863281 L 228.9980010986328 -76.99800109863281 L 228.9980010986328 -80.00299835205078 L 225.9980010986328 -80.00299835205078 L 225.9980010986328 -79.99800109863281 L 223 -79.99800109863281 L 223 -80.00299835205078 L 223 -82.99800109863281 L 225.9980010986328 -82.99800109863281 L 226.0030059814453 -82.99800109863281 L 226.0030059814453 -85.99800109863281 L 225.9980010986328 -85.99800109863281 L 223 -85.99800109863281 L 223 -88.99800109863281 L 225.9980010986328 -88.99800109863281 L 226.0030059814453 -88.99800109863281 L 226.0030059814453 -91.99800109863281 L 225.9980010986328 -91.99800109863281 L 223 -91.99800109863281 L 223 -94.9990005493164 L 225.9980010986328 -94.9990005493164 L 226.0030059814453 -94.9990005493164 L 226.0030059814453 -97.9990005493164 L 225.9980010986328 -97.9990005493164 L 223 -97.9990005493164 L 223 -100.9990005493164 L 225.9980010986328 -100.9990005493164 L 226.0030059814453 -100.9990005493164 L 226.0030059814453 -103.9990005493164 L 225.9980010986328 -103.9990005493164 L 223 -103.9990005493164 L 223 -106.9990005493164 L 225.9980010986328 -106.9990005493164 L 226.0030059814453 -106.9990005493164 L 226.0030059814453 -109.9990005493164 L 225.9980010986328 -109.9990005493164 L 223 -109.9990005493164 L 223 -112.9990005493164 L 225.9980010986328 -112.9990005493164 L 226.0030059814453 -112.9990005493164 L 226.0030059814453 -115.9990005493164 L 225.9980010986328 -115.9990005493164 L 223 -115.9990005493164 L 223 -118.9990005493164 L 225.9980010986328 -118.9990005493164 L 226.0030059814453 -118.9990005493164 L 226.0030059814453 -122 L 225.9980010986328 -122 L 223 -122 L 223 -125 L 225.9980010986328 -125 L 226.0030059814453 -125 L 226.0030059814453 -128 L 225.9980010986328 -128 L 223 -128 L 223 -131 L 225.9980010986328 -131 L 226.0030059814453 -131 L 226.0030059814453 -134 L 225.9980010986328 -134 L 223 -134 L 223 -137 L 225.9980010986328 -137 L 226.0030059814453 -137 L 226.0030059814453 -140 L 225.9980010986328 -140 L 223 -140 L 223 -143 M 249.9980010986328 -38 L 249.9980010986328 -37.99800109863281 L 249.9980010986328 -35 L 253.0030059814453 -35 L 253.0030059814453 -37.99800109863281 L 253.0030059814453 -38 L 249.9980010986328 -38 M 249.9980010986328 -188.0019989013672 L 249.9980010986328 -185.0030059814453 L 249.9980010986328 -185.0019989013672 L 253.0030059814453 -185.0019989013672 L 253.0030059814453 -185.0030059814453 L 253.0030059814453 -188.0019989013672 L 249.9980010986328 -188.0019989013672 M 253.0030059814453 -194.0019989013672 L 249.9980010986328 -194.0019989013672 L 249.9980010986328 -191.0019989013672 L 253.0030059814453 -191.0019989013672 L 253.0030059814453 -194.0019989013672 M 231.99899291992188 -76.99800109863281 L 233.0030059814453 -76.99800109863281 L 235 -76.99800109863281 L 235 -77 L 235 -80 L 235 -80.00299835205078 L 233.0030059814453 -80.00299835205078 L 231.99899291992188 -80.00299835205078 L 231.99899291992188 -76.99800109863281 M 248.0030059814453 -191.0019989013672 L 248.0030059814453 -191.0030059814453 L 240.9980010986328 -191.0030059814453 L 240.9980010986328 -191.0019989013672 L 240.9980010986328 -188.0019989013672 L 240.9980010986328 -185.0030059814453 L 240.9980010986328 -185.0019989013672 L 240.9980010986328 -184.9980010986328 L 248.0030059814453 -184.9980010986328 L 248.0030059814453 -185.0019989013672 L 248.0030059814453 -185.0030059814453 L 248.0030059814453 -188.0019989013672 L 248.0030059814453 -191.0019989013672 M 253.0030059814453 -173.0019989013672 L 253.0030059814453 -176.0019989013672 L 249.9980010986328 -176.0019989013672 L 249.9980010986328 -173.0019989013672 L 253.0030059814453 -173.0019989013672 M 249.9980010986328 -56 L 249.9980010986328 -53.00299835205078 L 249.9980010986328 -53 L 253.0030059814453 -53 L 253.0030059814453 -53.00299835205078 L 253.0030059814453 -56 L 249.9980010986328 -56 M 249.9980010986328 -170.0019989013672 L 249.9980010986328 -167.0019989013672 L 253.0030059814453 -167.0019989013672 L 253.0030059814453 -170.0019989013672 L 249.9980010986328 -170.0019989013672 M 253.0030059814453 -68 L 249.9980010986328 -68 L 249.9980010986328 -65 L 253.0030059814453 -65 L 253.0030059814453 -68 M 249.9980010986328 -158.0019989013672 L 249.9980010986328 -155.0019989013672 L 253.0030059814453 -155.0019989013672 L 253.0030059814453 -158.0019989013672 L 249.9980010986328 -158.0019989013672 M 253.0030059814453 -179.0019989013672 L 253.0030059814453 -182.0019989013672 L 249.9980010986328 -182.0019989013672 L 249.9980010986328 -179.0019989013672 L 253.0030059814453 -179.0019989013672 M 249.9980010986328 -152.0019989013672 L 249.9980010986328 -149.0019989013672 L 253.0030059814453 -149.0019989013672 L 253.0030059814453 -152.0019989013672 L 249.9980010986328 -152.0019989013672 M 253.0030059814453 -197.0019989013672 L 253.0030059814453 -200.0030059814453 L 252.9980010986328 -200.0030059814453 L 249.9980010986328 -200.0030059814453 L 249.9980010986328 -197.0019989013672 L 253.0030059814453 -197.0019989013672 M 249.9980010986328 -146.0019989013672 L 249.9980010986328 -143.00100708007812 L 253.0030059814453 -143.00100708007812 L 253.0030059814453 -146.0019989013672 L 249.9980010986328 -146.0019989013672 M 249.9980010986328 55.00199890136719 L 253.0030059814453 55.00199890136719 L 253.0030059814453 52.00199890136719 L 249.9980010986328 52.00199890136719 L 249.9980010986328 55.000999450683594 L 249.9980010986328 55.00199890136719 M 249.9980010986328 -140.00100708007812 L 249.9980010986328 -137.00100708007812 L 253.0030059814453 -137.00100708007812 L 253.0030059814453 -140.00100708007812 L 249.9980010986328 -140.00100708007812 M 249.9980010986328 49.00199890136719 L 253.0030059814453 49.00199890136719 L 253.0030059814453 46.00199890136719 L 249.9980010986328 46.00199890136719 L 249.9980010986328 49.000999450683594 L 249.9980010986328 49.00199890136719 M 253.0030059814453 43.00199890136719 L 253.0030059814453 40.00199890136719 L 249.9980010986328 40.00199890136719 L 249.9980010986328 43.000999450683594 L 249.9980010986328 43.00199890136719 L 253.0030059814453 43.00199890136719 M 249.9980010986328 58.00199890136719 L 249.9980010986328 61.00199890136719 L 253.0030059814453 61.00199890136719 L 253.0030059814453 58.00199890136719 L 249.9980010986328 58.00199890136719 M 253.0030059814453 37.00199890136719 L 253.0030059814453 34.00199890136719 L 249.9980010986328 34.00199890136719 L 249.9980010986328 37.000999450683594 L 249.9980010986328 37.00199890136719 L 253.0030059814453 37.00199890136719 M 249.9980010986328 -125.0009994506836 L 253.0030059814453 -125.0009994506836 L 253.0030059814453 -128.00100708007812 L 249.9980010986328 -128.00100708007812 L 249.9980010986328 -125.0009994506836 M 253.0030059814453 -131.00100708007812 L 253.0030059814453 -134.00100708007812 L 249.9980010986328 -134.00100708007812 L 249.9980010986328 -131.00100708007812 L 253.0030059814453 -131.00100708007812 M 249.9980010986328 -119.0009994506836 L 253.0030059814453 -119.0009994506836 L 253.0030059814453 -122.0009994506836 L 249.9980010986328 -122.0009994506836 L 249.9980010986328 -119.0009994506836 M 249.9980010986328 31.00200080871582 L 253.0030059814453 31.00200080871582 L 253.0030059814453 28.00200080871582 L 249.9980010986328 28.00200080871582 L 249.9980010986328 31 L 249.9980010986328 31.00200080871582 M 249.9980010986328 -113.0009994506836 L 253.0030059814453 -113.0009994506836 L 253.0030059814453 -116.0009994506836 L 249.9980010986328 -116.0009994506836 L 249.9980010986328 -113.0009994506836 M 249.9980010986328 25.00200080871582 L 253.0030059814453 25.00200080871582 L 253.0030059814453 22.000999450683594 L 249.9980010986328 22.000999450683594 L 249.9980010986328 25 L 249.9980010986328 25.00200080871582 M 253.0030059814453 19.000999450683594 L 253.0030059814453 16.000999450683594 L 249.9980010986328 16.000999450683594 L 249.9980010986328 19 L 249.9980010986328 19.000999450683594 L 253.0030059814453 19.000999450683594 M 249.9980010986328 -62 L 249.9980010986328 -59 L 253.0030059814453 -59 L 253.0030059814453 -62 L 249.9980010986328 -62 M 253.0030059814453 13.00100040435791 L 253.0030059814453 10.00100040435791 L 249.9980010986328 10.00100040435791 L 249.9980010986328 13 L 249.9980010986328 13.00100040435791 L 253.0030059814453 13.00100040435791 M 249.9980010986328 -161.0019989013672 L 253.0030059814453 -161.0019989013672 L 253.0030059814453 -164.0019989013672 L 249.9980010986328 -164.0019989013672 L 249.9980010986328 -161.0019989013672 M 249.9980010986328 -101.0009994506836 L 253.0030059814453 -101.0009994506836 L 253.0030059814453 -104.0009994506836 L 249.9980010986328 -104.0009994506836 L 249.9980010986328 -101.0009994506836 M 253.0030059814453 -107.0009994506836 L 253.0030059814453 -110.0009994506836 L 249.9980010986328 -110.0009994506836 L 249.9980010986328 -107.0009994506836 L 253.0030059814453 -107.0009994506836 M 249.9980010986328 7.000999927520752 L 253.0030059814453 7.000999927520752 L 253.0030059814453 4.000999927520752 L 249.9980010986328 4.000999927520752 L 249.9980010986328 6.999000072479248 L 249.9980010986328 7.000999927520752 M 253.0030059814453 -95.0009994506836 L 253.0030059814453 -98.0009994506836 L 249.9980010986328 -98.0009994506836 L 249.9980010986328 -95.0009994506836 L 253.0030059814453 -95.0009994506836 M 249.9980010986328 1.0010000467300415 L 253.0030059814453 1.0010000467300415 L 253.0030059814453 -1.9989999532699585 L 249.9980010986328 -1.9989999532699585 L 249.9980010986328 0.9990000128746034 L 249.9980010986328 1.0010000467300415 M 253.0030059814453 -4.999000072479248 L 253.0030059814453 -7.999000072479248 L 249.9980010986328 -7.999000072479248 L 249.9980010986328 -5.000999927520752 L 249.9980010986328 -4.999000072479248 L 253.0030059814453 -4.999000072479248 M 249.9980010986328 -92.0009994506836 L 249.9980010986328 -89.0009994506836 L 253.0030059814453 -89.0009994506836 L 253.0030059814453 -92.0009994506836 L 249.9980010986328 -92.0009994506836 M 253.0030059814453 -10.99899959564209 L 253.0030059814453 -13.99899959564209 L 249.9980010986328 -13.99899959564209 L 249.9980010986328 -11.001999855041504 L 249.9980010986328 -10.99899959564209 L 253.0030059814453 -10.99899959564209 M 244.0019989013672 -80.00299835205078 L 244.0019989013672 -80 L 244.0019989013672 -77 L 244.0019989013672 -76.99800109863281 L 247.0030059814453 -76.99800109863281 L 247.0030059814453 -77 L 247.0030059814453 -80 L 247.0030059814453 -80.00299835205078 L 244.0019989013672 -80.00299835205078 M 253.0030059814453 -16.999000549316406 L 253.0030059814453 -19.999000549316406 L 249.9980010986328 -19.999000549316406 L 249.9980010986328 -17.00200080871582 L 249.9980010986328 -16.999000549316406 L 253.0030059814453 -16.999000549316406 M 249.9980010986328 -86 L 249.9980010986328 -83 L 253.0030059814453 -83 L 253.0030059814453 -86 L 249.9980010986328 -86 M 253.0030059814453 -22.999000549316406 L 253.0030059814453 -25.999000549316406 L 249.9980010986328 -25.999000549316406 L 249.9980010986328 -23.00200080871582 L 249.9980010986328 -22.999000549316406 L 253.0030059814453 -22.999000549316406 M 238 -80.00299835205078 L 238 -80 L 238 -77 L 238 -76.99800109863281 L 241.00100708007812 -76.99800109863281 L 241.00100708007812 -77 L 241.00100708007812 -80 L 241.00100708007812 -80.00299835205078 L 238 -80.00299835205078 M 249.9980010986328 -31.999000549316406 L 249.9980010986328 -29.00200080871582 L 249.9980010986328 -28.999000549316406 L 253.0030059814453 -28.999000549316406 L 253.0030059814453 -31.999000549316406 L 249.9980010986328 -31.999000549316406 M 249.9980010986328 76.00199890136719 L 249.9980010986328 79.00199890136719 L 250.0030059814453 79.00199890136719 L 253.0030059814453 79.00199890136719 L 253.0030059814453 76.00199890136719 L 250.0030059814453 76.00199890136719 L 249.9980010986328 76.00199890136719 M 249.9980010986328 -77 L 253.0030059814453 -77 L 253.0030059814453 -80 L 249.9980010986328 -80 L 249.9980010986328 -77 M 249.9980010986328 73.00199890136719 L 250.0030059814453 73.00199890136719 L 253.0030059814453 73.00199890136719 L 253.0030059814453 70.00199890136719 L 250.0030059814453 70.00199890136719 L 249.9980010986328 70.00199890136719 L 249.9980010986328 73.00199890136719 M 253.0030059814453 -71 L 253.0030059814453 -74 L 249.9980010986328 -74 L 249.9980010986328 -71 L 253.0030059814453 -71 M 249.9980010986328 -50 L 249.9980010986328 -47 L 253.0030059814453 -47 L 253.0030059814453 -50 L 249.9980010986328 -50 M 253.0030059814453 -41 L 253.0030059814453 -44 L 249.9980010986328 -44 L 249.9980010986328 -41 L 253.0030059814453 -41 M 249.9980010986328 67.00199890136719 L 250.0030059814453 67.00199890136719 L 253.0030059814453 67.00199890136719 L 253.0030059814453 64.00199890136719 L 250.0030059814453 64.00199890136719 L 249.9980010986328 64.00199890136719 L 249.9980010986328 67.00199890136719 z" fill="none" stroke="rgb(255,0,0)" stroke-width="0.001mm" />
</svg>