<?xml version="1.0" standalone="no"?>
<!DOCTYPE svg PUBLIC "-//W3C//DTD SVG 1.1//EN"
  "http://www.w3.org/Graphics/SVG/1.1/DTD/svg11.dtd">
<svg width="285mm" height="37mm" viewBox="-163 -303 285 37" xmlns="http://www.w3.org/2000/svg" version="1.1">
	<title>svgOutput</title>
	<desc>made with tinkercad</desc>
<path d="M -149.0019989013672 -267 L -149.0019989013672 -270.00299072265625 L -152.0019989013672 -270.00299072265625 L -152.0019989013672 -267 L -155.0019989013672 -267 L -155.0019989013672 -270.00299072265625 L -158.0030059814453 -270.00299072265625 L -158.9980010986328 -270.00299072265625 L -158.9980010986328 -272.99798583984375 L -162 -272.99798583984375 L -162 -275.9989929199219 L -158.9980010986328 -275.9989929199219 L -158.9980010986328 -279 L -162 -279 L -162 -282 L -158.9980010986328 -282 L -158.9980010986328 -285.0010070800781 L -162 -285.0010070800781 L -162 -288.00201416015625 L -158.9980010986328 -288.00201416015625 L -158.9980010986328 -291.00299072265625 L -160.697998046875 -291.00299072265625 L -162 -291.00299072265625 L -162 -293.99798583984375 L -160.697998046875 -293.99798583984375 L -160.697998046875 -296.99798583984375 L -158.9980010986328 -296.99798583984375 L -158.9980010986328 -302 L -158.0030059814453 -302 L -155.0019989013672 -302 L -152.0019989013672 -302 L -149.0019989013672 -302 L -148.0030059814453 -302 L -148.0030059814453 -298.99798583984375 L -146.0019989013672 -298.99798583984375 L -143.0030059814453 -298.99798583984375 L -143.0019989013672 -298.99798583984375 L -140.0019989013672 -298.99798583984375 L -137.0019989013672 -298.99798583984375 L -134.0019989013672 -298.99798583984375 L -133.00100708007812 -298.99798583984375 L -131.0019989013672 -298.99798583984375 L -128.0019989013672 -298.99798583984375 L -125.00199890136719 -298.99798583984375 L -122.00199890136719 -298.99798583984375 L -119.00199890136719 -298.99798583984375 L -116.00199890136719 -298.99798583984375 L -113.00199890136719 -298.99798583984375 L -110.00199890136719 -298.99798583984375 L -107.00199890136719 -298.99798583984375 L -104.9990005493164 -298.99798583984375 L -104.00199890136719 -298.99798583984375 L -101.0009994506836 -298.99798583984375 L -98.0009994506836 -298.99798583984375 L -95.0009994506836 -298.99798583984375 L -94.99800109863281 -298.99798583984375 L -92.0009994506836 -298.99798583984375 L -89.0009994506836 -298.99798583984375 L -86.0009994506836 -298.99798583984375 L -83.0009994506836 -298.99798583984375 L -80.00299835205078 -298.99798583984375 L -80.0009994506836 -298.99798583984375 L -77.0009994506836 -298.99798583984375 L -76.99800109863281 -298.99798583984375 L -74.0009994506836 -298.99798583984375 L -71.0009994506836 -298.99798583984375 L -68.0009994506836 -298.99798583984375 L -65.0009994506836 -298.99798583984375 L -62.000999450683594 -298.99798583984375 L -60.00299835205078 -298.99798583984375 L -59.000999450683594 -298.99798583984375 L -56.000999450683594 -298.99798583984375 L -53.000999450683594 -298.99798583984375 L -50.000999450683594 -298.99798583984375 L -47.000999450683594 -298.99798583984375 L -44 -298.99798583984375 L -41 -298.99798583984375 L -38 -298.99798583984375 L -35 -298.99798583984375 L -32.99700164794922 -298.99798583984375 L -32.99700164794922 -302 L -32 -302 L -29 -302 L -26 -302 L -23 -302 L -21.999000549316406 -302 L -20 -302 L -17 -302 L -16.003000259399414 -302 L -16.003000259399414 -298.99798583984375 L -14 -298.99798583984375 L -11.996999740600586 -298.99798583984375 L -11 -298.99798583984375 L -8 -298.99798583984375 L -5 -298.99798583984375 L -2 -298.99798583984375 L 1 -298.99798583984375 L 3.997999906539917 -298.99798583984375 L 4 -298.99798583984375 L 7 -298.99798583984375 L 7.002999782562256 -298.99798583984375 L 7.998000144958496 -298.99798583984375 L 10.00100040435791 -298.99798583984375 L 13.00100040435791 -298.99798583984375 L 16.000999450683594 -298.99798583984375 L 19.000999450683594 -298.99798583984375 L 22.000999450683594 -298.99798583984375 L 25.000999450683594 -298.99798583984375 L 28.000999450683594 -298.99798583984375 L 29.003000259399414 -298.99798583984375 L 31.000999450683594 -298.99798583984375 L 34.000999450683594 -298.99798583984375 L 36.99700164794922 -298.99798583984375 L 37.000999450683594 -298.99798583984375 L 40.000999450683594 -298.99798583984375 L 43.000999450683594 -298.99798583984375 L 46.000999450683594 -298.99798583984375 L 46.99800109863281 -298.99798583984375 L 49.000999450683594 -298.99798583984375 L 52.000999450683594 -298.99798583984375 L 55.000999450683594 -298.99798583984375 L 58.000999450683594 -298.99798583984375 L 61.000999450683594 -298.99798583984375 L 64.0009994506836 -298.99798583984375 L 67.00199890136719 -298.99798583984375 L 70.00199890136719 -298.99798583984375 L 73.00199890136719 -298.99798583984375 L 76.00199890136719 -298.99798583984375 L 79.00199890136719 -298.99798583984375 L 82.00199890136719 -298.99798583984375 L 85.00199890136719 -298.99798583984375 L 88.00199890136719 -298.99798583984375 L 91.00199890136719 -298.99798583984375 L 94.00199890136719 -298.99798583984375 L 97.00199890136719 -298.99798583984375 L 99.00299835205078 -298.99798583984375 L 99.00299835205078 -302 L 100.00199890136719 -302 L 103.00199890136719 -302 L 106.00199890136719 -302 L 109.00199890136719 -302 L 112.00199890136719 -302 L 113.00299835205078 -302 L 115.00199890136719 -302 L 117.99800109863281 -302 L 118.00199890136719 -302 L 121 -302 L 121 -297.00299072265625 L 118.00199890136719 -297.00299072265625 L 118.00199890136719 -294.00299072265625 L 117.99800109863281 -294.00299072265625 L 117.99800109863281 -291.00201416015625 L 121 -291.00201416015625 L 121 -288.0010070800781 L 117.99800109863281 -288.0010070800781 L 117.99800109863281 -285 L 121 -285 L 121 -282 L 117.99800109863281 -282 L 117.99800109863281 -278.9989929199219 L 121 -278.9989929199219 L 121 -276.99798583984375 L 121 -275.99798583984375 L 117.99800109863281 -275.99798583984375 L 117.99800109863281 -273.99798583984375 L 117.99800109863281 -272.99798583984375 L 118.00199890136719 -272.99798583984375 L 121 -272.99798583984375 L 121 -270.00299072265625 L 118.00199890136719 -270.00299072265625 L 118.00199890136719 -267 L 117.99800109863281 -267 L 115.00199890136719 -267 L 115.00199890136719 -270.00299072265625 L 112.00199890136719 -270.00299072265625 L 112.00199890136719 -267 L 109.00199890136719 -267 L 109.00199890136719 -270.00299072265625 L 106.00199890136719 -270.00299072265625 L 106.00199890136719 -267 L 103.00199890136719 -267 L 103.00199890136719 -270.00299072265625 L 100.00199890136719 -270.00299072265625 L 100.00199890136719 -267 L 97.00199890136719 -267 L 97.00199890136719 -270.00299072265625 L 94.00199890136719 -270.00299072265625 L 94.00199890136719 -267 L 91.00199890136719 -267 L 91.00199890136719 -270.00299072265625 L 88.00199890136719 -270.00299072265625 L 88.00199890136719 -267 L 85.00199890136719 -267 L 85.00199890136719 -270.00299072265625 L 82.00199890136719 -270.00299072265625 L 82.00199890136719 -267 L 79.00199890136719 -267 L 79.00199890136719 -270.00299072265625 L 76.00199890136719 -270.00299072265625 L 76.00199890136719 -267 L 73.00199890136719 -267 L 73.00199890136719 -270.00299072265625 L 70.00199890136719 -270.00299072265625 L 70.00199890136719 -267 L 67.00199890136719 -267 L 67.00199890136719 -270.00299072265625 L 64.0009994506836 -270.00299072265625 L 64.0009994506836 -267 L 61.000999450683594 -267 L 61.000999450683594 -270.00299072265625 L 58.000999450683594 -270.00299072265625 L 58.000999450683594 -267 L 55.000999450683594 -267 L 55.000999450683594 -270.00299072265625 L 52.000999450683594 -270.00299072265625 L 52.000999450683594 -267 L 49.000999450683594 -267 L 49.000999450683594 -270.00299072265625 L 46.000999450683594 -270.00299072265625 L 46.000999450683594 -267 L 43.000999450683594 -267 L 43.000999450683594 -270.00299072265625 L 40.000999450683594 -270.00299072265625 L 40.000999450683594 -267 L 37.000999450683594 -267 L 37.000999450683594 -270.00299072265625 L 34.00299835205078 -270.00299072265625 L 34.00299835205078 -272.99798583984375 L 30.99799919128418 -272.99798583984375 L 30.99799919128418 -270.00299072265625 L 28.000999450683594 -270.00299072265625 L 28.000999450683594 -267 L 25.000999450683594 -267 L 25.000999450683594 -270.00299072265625 L 22.000999450683594 -270.00299072265625 L 22.000999450683594 -267 L 19.000999450683594 -267 L 19.000999450683594 -270.00299072265625 L 16.000999450683594 -270.00299072265625 L 16.000999450683594 -267 L 13.00100040435791 -267 L 13.00100040435791 -270.00299072265625 L 10.00100040435791 -270.00299072265625 L 10.00100040435791 -267 L 7.002999782562256 -267 L 7 -267 L 7 -269.99798583984375 L 7.002999782562256 -269.99798583984375 L 7.002999782562256 -272.99798583984375 L 3.997999906539917 -272.99798583984375 L 3.997999906539917 -269.99798583984375 L 4 -269.99798583984375 L 4 -267 L 3.997999906539917 -267 L 1 -267 L 1 -270.00299072265625 L -2 -270.00299072265625 L -2 -267 L -5 -267 L -5 -270.00299072265625 L -8 -270.00299072265625 L -8 -267 L -11 -267 L -11 -270.00299072265625 L -14 -270.00299072265625 L -14 -267 L -17 -267 L -17 -270.00299072265625 L -20 -270.00299072265625 L -20 -267 L -23 -267 L -23 -270.00299072265625 L -26 -270.00299072265625 L -26 -267 L -29 -267 L -29 -270.00299072265625 L -32 -270.00299072265625 L -32 -267 L -35 -267 L -35 -270.00299072265625 L -38 -270.00299072265625 L -38 -267 L -41 -267 L -41 -270.00299072265625 L -44 -270.00299072265625 L -44 -267 L -47 -267 L -47 -270.00299072265625 L -50.000999450683594 -270.00299072265625 L -50.000999450683594 -267 L -53.000999450683594 -267 L -53.000999450683594 -270.00299072265625 L -56.000999450683594 -270.00299072265625 L -56.000999450683594 -267 L -59.000999450683594 -267 L -59.000999450683594 -270.00299072265625 L -62.000999450683594 -270.00299072265625 L -62.000999450683594 -267 L -65.0009994506836 -267 L -65.0009994506836 -270.00299072265625 L -68.0009994506836 -270.00299072265625 L -68.0009994506836 -267 L -71.0009994506836 -267 L -71.0009994506836 -270.00299072265625 L -74.0009994506836 -270.00299072265625 L -74.0009994506836 -267 L -76.99800109863281 -267 L -77.0009994506836 -267 L -77.0009994506836 -269.99798583984375 L -76.99800109863281 -269.99798583984375 L -76.99800109863281 -272.99798583984375 L -80.00299835205078 -272.99798583984375 L -80.00299835205078 -269.99798583984375 L -80.0009994506836 -269.99798583984375 L -80.0009994506836 -267 L -80.00299835205078 -267 L -83.0009994506836 -267 L -83.0009994506836 -270.00299072265625 L -86.0009994506836 -270.00299072265625 L -86.0009994506836 -267 L -89.0009994506836 -267 L -89.0009994506836 -270.00299072265625 L -92.0009994506836 -270.00299072265625 L -92.0009994506836 -267 L -95.0009994506836 -267 L -95.0009994506836 -270.00299072265625 L -98.0009994506836 -270.00299072265625 L -98.0009994506836 -267 L -101.0009994506836 -267 L -101.0009994506836 -270.00299072265625 L -104.0009994506836 -270.00299072265625 L -104.0009994506836 -267 L -104.9990005493164 -267 L -107.00199890136719 -267 L -107.00199890136719 -270.00299072265625 L -110.00199890136719 -270.00299072265625 L -110.00199890136719 -267 L -113.00199890136719 -267 L -113.00199890136719 -270.00299072265625 L -116.00199890136719 -270.00299072265625 L -116.00199890136719 -267 L -119.00199890136719 -267 L -119.00199890136719 -270.00299072265625 L -122.00199890136719 -270.00299072265625 L -122.00199890136719 -267 L -125.00199890136719 -267 L -125.00199890136719 -270.00299072265625 L -128.0019989013672 -270.00299072265625 L -128.0019989013672 -267 L -131.0019989013672 -267 L -131.0019989013672 -270.00299072265625 L -134.0019989013672 -270.00299072265625 L -134.0019989013672 -267 L -137.0019989013672 -267 L -137.0019989013672 -270.00299072265625 L -140.0019989013672 -270.00299072265625 L -140.0019989013672 -267 L -143.0019989013672 -267 L -143.0019989013672 -270.00299072265625 L -143.0030059814453 -270.00299072265625 L -146.0019989013672 -270.00299072265625 L -146.0019989013672 -267 L -148.0030059814453 -267 L -149.0019989013672 -267 M 61.000999450683594 -294.00299072265625 L 61.000999450683594 -297.00299072265625 L 58.000999450683594 -297.00299072265625 L 58.000999450683594 -294.00299072265625 L 55.000999450683594 -294.00299072265625 L 55.000999450683594 -297.00299072265625 L 52.000999450683594 -297.00299072265625 L 52.000999450683594 -294.00299072265625 L 49.000999450683594 -294.00299072265625 L 49.000999450683594 -297.00299072265625 L 46.99800109863281 -297.00299072265625 L 46.000999450683594 -297.00299072265625 L 46.000999450683594 -294.00299072265625 L 46.000999450683594 -293.99798583984375 L 46.87848663330078 -293.99798583984375 L 46.018001556396484 -293.9620056152344 L 45.047000885009766 -293.8389892578125 L 44.095001220703125 -293.635986328125 L 43.17100143432617 -293.3550109863281 L 42.284000396728516 -292.9989929199219 L 41.44200134277344 -292.57000732421875 L 40.65399932861328 -292.072998046875 L 39.926998138427734 -291.5119934082031 L 39.268001556396484 -290.8940124511719 L 38.68299865722656 -290.2239990234375 L 38.178001403808594 -289.50799560546875 L 37.75899887084961 -288.7539978027344 L 37.428001403808594 -287.9679870605469 L 37.189998626708984 -287.15899658203125 L 37.113468170166016 -286.7200012207031 L 37.04600143432617 -286.3330078125 L 36.99700164794922 -285.5 L 37.04600143432617 -284.6669921875 L 37.189998626708984 -283.84100341796875 L 37.428001403808594 -283.0320129394531 L 37.75899887084961 -282.2460021972656 L 38.178001403808594 -281.49200439453125 L 38.68299865722656 -280.7760009765625 L 39.268001556396484 -280.1059875488281 L 39.926998138427734 -279.4880065917969 L 40.65399932861328 -278.9280090332031 L 41.286930084228516 -278.52801513671875 L 41.44200134277344 -278.42999267578125 L 42.284000396728516 -278.0010070800781 L 43.17100143432617 -277.6449890136719 L 44.095001220703125 -277.364013671875 L 45.047000885009766 -277.1610107421875 L 46.018001556396484 -277.0379943847656 L 46.99800109863281 -276.99798583984375 L 103.00199890136719 -276.99798583984375 L 103.98200225830078 -277.0379943847656 L 104.9530029296875 -277.1610107421875 L 105.90499877929688 -277.364013671875 L 106.8290023803711 -277.6449890136719 L 107.71600341796875 -278.0010070800781 L 108.55799865722656 -278.42999267578125 L 108.71306610107422 -278.52801513671875 L 109.34600067138672 -278.9280090332031 L 110.072998046875 -279.4880065917969 L 110.73200225830078 -280.1059875488281 L 111.31700134277344 -280.7760009765625 L 111.8219985961914 -281.49200439453125 L 112.24099731445312 -282.2460021972656 L 112.5719985961914 -283.0320129394531 L 112.80999755859375 -283.84100341796875 L 112.9540023803711 -284.6669921875 L 113.00299835205078 -285.5 L 112.9540023803711 -286.3330078125 L 112.88653564453125 -286.7200012207031 L 112.80999755859375 -287.15899658203125 L 112.5719985961914 -287.9679870605469 L 112.24099731445312 -288.7539978027344 L 111.8219985961914 -289.50799560546875 L 111.31700134277344 -290.2239990234375 L 110.73200225830078 -290.8940124511719 L 110.072998046875 -291.5119934082031 L 109.34600067138672 -292.072998046875 L 109.00199890136719 -292.28997802734375 L 108.55799865722656 -292.57000732421875 L 107.71600341796875 -292.9989929199219 L 106.8290023803711 -293.3550109863281 L 105.90499877929688 -293.635986328125 L 104.9530029296875 -293.8389892578125 L 103.98200225830078 -293.9620056152344 L 103.00199890136719 -294.00299072265625 L 103.00199890136719 -297.00299072265625 L 100.00199890136719 -297.00299072265625 L 100.00199890136719 -294.00299072265625 L 99.00299835205078 -294.00299072265625 L 97.00199890136719 -294.00299072265625 L 97.00199890136719 -297.00299072265625 L 94.00199890136719 -297.00299072265625 L 94.00199890136719 -294.00299072265625 L 91.00199890136719 -294.00299072265625 L 91.00199890136719 -297.00299072265625 L 88.00199890136719 -297.00299072265625 L 88.00199890136719 -294.00299072265625 L 85.00199890136719 -294.00299072265625 L 85.00199890136719 -297.00299072265625 L 82.00199890136719 -297.00299072265625 L 82.00199890136719 -294.00299072265625 L 79.00199890136719 -294.00299072265625 L 79.00199890136719 -297.00299072265625 L 76.00199890136719 -297.00299072265625 L 76.00199890136719 -294.00299072265625 L 73.00199890136719 -294.00299072265625 L 73.00199890136719 -297.00299072265625 L 70.00199890136719 -297.00299072265625 L 70.00199890136719 -294.00299072265625 L 67.00199890136719 -294.00299072265625 L 67.00199890136719 -297.00299072265625 L 64.0009994506836 -297.00299072265625 L 64.0009994506836 -294.00299072265625 L 61.000999450683594 -294.00299072265625 M 34.000999450683594 -269.99798583984375 L 34.000999450683594 -267 L 31.000999450683594 -267 L 31.000999450683594 -269.99798583984375 L 34.000999450683594 -269.99798583984375 M -50.981998443603516 -274.0379943847656 L -50.000999450683594 -273.99798583984375 L -47 -273.99798583984375 L -44 -273.99798583984375 L -41 -273.99798583984375 L -38 -273.99798583984375 L -35 -273.99798583984375 L -32 -273.99798583984375 L -29 -273.99798583984375 L -26 -273.99798583984375 L -23 -273.99798583984375 L -21.999000549316406 -273.99798583984375 L -21.01799964904785 -274.0379943847656 L -20.047000885009766 -274.1610107421875 L -19.094999313354492 -274.364013671875 L -18.17099952697754 -274.6449890136719 L -17.284000396728516 -275.0010070800781 L -16.441999435424805 -275.42999267578125 L -15.654000282287598 -275.9280090332031 L -14.927000045776367 -276.4880065917969 L -14.267999649047852 -277.1059875488281 L -13.682999610900879 -277.7760009765625 L -13.178000450134277 -278.49200439453125 L -13.157994270324707 -278.52801513671875 L -12.758999824523926 -279.2460021972656 L -12.428000450134277 -280.0320129394531 L -12.1899995803833 -280.84100341796875 L -12.045999526977539 -281.6669921875 L -11.996999740600586 -282.5 L -12.045999526977539 -283.3330078125 L -12.1899995803833 -284.15899658203125 L -12.428000450134277 -284.9679870605469 L -12.758999824523926 -285.7539978027344 L -13.178000450134277 -286.50799560546875 L -13.32752513885498 -286.7200012207031 L -13.682999610900879 -287.2239990234375 L -14.267999649047852 -287.8940124511719 L -14.927000045776367 -288.5119934082031 L -15.654000282287598 -289.072998046875 L -16.441999435424805 -289.57000732421875 L -17.284000396728516 -289.9989929199219 L -18.17099952697754 -290.3550109863281 L -19.094999313354492 -290.635986328125 L -20.047000885009766 -290.8389892578125 L -21.01799964904785 -290.9620056152344 L -21.999000549316406 -291.00299072265625 L -23 -291.00299072265625 L -26 -291.00299072265625 L -29 -291.00299072265625 L -32 -291.00299072265625 L -32.99700164794922 -291.00299072265625 L -35 -291.00299072265625 L -38 -291.00299072265625 L -41 -291.00299072265625 L -44 -291.00299072265625 L -47.000999450683594 -291.00299072265625 L -50.000999450683594 -291.00299072265625 L -50.981998443603516 -290.9620056152344 L -51.952999114990234 -290.8389892578125 L -52.904998779296875 -290.635986328125 L -53.82899856567383 -290.3550109863281 L -54.715999603271484 -289.9989929199219 L -55.55799865722656 -289.57000732421875 L -56.34600067138672 -289.072998046875 L -57.073001861572266 -288.5119934082031 L -57.731998443603516 -287.8940124511719 L -58.31700134277344 -287.2239990234375 L -58.6724739074707 -286.7200012207031 L -58.821998596191406 -286.50799560546875 L -59.24100112915039 -285.7539978027344 L -59.571998596191406 -284.9679870605469 L -59.810001373291016 -284.15899658203125 L -59.95399856567383 -283.3330078125 L -60.00299835205078 -282.5 L -59.95399856567383 -281.6669921875 L -59.810001373291016 -280.84100341796875 L -59.571998596191406 -280.0320129394531 L -59.24100112915039 -279.2460021972656 L -58.84200668334961 -278.52801513671875 L -58.821998596191406 -278.49200439453125 L -58.31700134277344 -277.7760009765625 L -57.731998443603516 -277.1059875488281 L -57.073001861572266 -276.4880065917969 L -56.34600067138672 -275.9280090332031 L -55.55799865722656 -275.42999267578125 L -54.715999603271484 -275.0010070800781 L -53.82899856567383 -274.6449890136719 L -52.904998779296875 -274.364013671875 L -51.952999114990234 -274.1610107421875 L -50.981998443603516 -274.0379943847656 M -143.0019989013672 -297.00299072265625 L -143.0030059814453 -297.00299072265625 L -146.0019989013672 -297.00299072265625 L -146.0019989013672 -293.99798583984375 L -143.0030059814453 -293.99798583984375 L -143.0019989013672 -293.99798583984375 L -143.0019989013672 -297.00299072265625 M -141.31700134277344 -287.2239990234375 L -141.67247009277344 -286.7200012207031 L -141.82200622558594 -286.50799560546875 L -142.24099731445312 -285.7539978027344 L -142.57200622558594 -284.9679870605469 L -142.80999755859375 -284.15899658203125 L -142.95399475097656 -283.3330078125 L -143.0030059814453 -282.5 L -142.95399475097656 -281.6669921875 L -142.80999755859375 -280.84100341796875 L -142.57200622558594 -280.0320129394531 L -142.24099731445312 -279.2460021972656 L -141.84201049804688 -278.52801513671875 L -141.82200622558594 -278.49200439453125 L -141.31700134277344 -277.7760009765625 L -140.73199462890625 -277.1059875488281 L -140.072998046875 -276.4880065917969 L -139.3459930419922 -275.9280090332031 L -138.55799865722656 -275.42999267578125 L -137.71600341796875 -275.0010070800781 L -136.82899475097656 -274.6449890136719 L -135.90499877929688 -274.364013671875 L -134.9530029296875 -274.1610107421875 L -133.98199462890625 -274.0379943847656 L -133.00100708007812 -273.99798583984375 L -131.0019989013672 -273.99798583984375 L -128.0019989013672 -273.99798583984375 L -125.00199890136719 -273.99798583984375 L -122.00199890136719 -273.99798583984375 L -119.00199890136719 -273.99798583984375 L -116.00199890136719 -273.99798583984375 L -113.00199890136719 -273.99798583984375 L -110.00199890136719 -273.99798583984375 L -107.00199890136719 -273.99798583984375 L -104.9990005493164 -273.99798583984375 L -104.01799774169922 -274.0379943847656 L -103.0469970703125 -274.1610107421875 L -102.09500122070312 -274.364013671875 L -101.1709976196289 -274.6449890136719 L -100.28399658203125 -275.0010070800781 L -99.44200134277344 -275.42999267578125 L -98.65399932861328 -275.9280090332031 L -97.927001953125 -276.4880065917969 L -97.26799774169922 -277.1059875488281 L -96.68299865722656 -277.7760009765625 L -96.1780014038086 -278.49200439453125 L -96.15799713134766 -278.52801513671875 L -95.75900268554688 -279.2460021972656 L -95.4280014038086 -280.0320129394531 L -95.19000244140625 -280.84100341796875 L -95.0459976196289 -281.6669921875 L -94.99800109863281 -282.5 L -95.0459976196289 -283.3330078125 L -95.19000244140625 -284.15899658203125 L -95.4280014038086 -284.9679870605469 L -95.75900268554688 -285.7539978027344 L -96.1780014038086 -286.50799560546875 L -96.32752227783203 -286.7200012207031 L -96.68299865722656 -287.2239990234375 L -97.26799774169922 -287.8940124511719 L -97.927001953125 -288.5119934082031 L -98.65399932861328 -289.072998046875 L -99.44200134277344 -289.57000732421875 L -100.28399658203125 -289.9989929199219 L -101.1709976196289 -290.3550109863281 L -102.09500122070312 -290.635986328125 L -103.0469970703125 -290.8389892578125 L -104.01799774169922 -290.9620056152344 L -104.9990005493164 -291.00299072265625 L -107.00199890136719 -291.00299072265625 L -110.00199890136719 -291.00299072265625 L -113.00199890136719 -291.00299072265625 L -116.00199890136719 -291.00299072265625 L -119.00199890136719 -291.00299072265625 L -122.00199890136719 -291.00299072265625 L -125.00199890136719 -291.00299072265625 L -128.0019989013672 -291.00299072265625 L -131.0019989013672 -291.00299072265625 L -133.00100708007812 -291.00299072265625 L -133.98199462890625 -290.9620056152344 L -134.9530029296875 -290.8389892578125 L -135.90499877929688 -290.635986328125 L -136.82899475097656 -290.3550109863281 L -137.71600341796875 -289.9989929199219 L -138.55799865722656 -289.57000732421875 L -139.3459930419922 -289.072998046875 L -140.072998046875 -288.5119934082031 L -140.73199462890625 -287.8940124511719 L -141.31700134277344 -287.2239990234375 M -14 -293.99798583984375 L -11.996999740600586 -293.99798583984375 L -11 -293.99798583984375 L -11 -297.00299072265625 L -11.996999740600586 -297.00299072265625 L -14 -297.00299072265625 L -14 -293.99798583984375 M 109.00199890136719 -293.99798583984375 L 109.00199890136719 -294.00299072265625 L 109.00199890136719 -297.00299072265625 L 106.00199890136719 -297.00299072265625 L 106.00199890136719 -294.00299072265625 L 106.00199890136719 -293.99798583984375 L 106.29388427734375 -293.99798583984375 L 106.85139465332031 -293.99798583984375 L 107.42207336425781 -293.99798583984375 L 108.02178955078125 -293.99798583984375 L 108.65516662597656 -293.99798583984375 L 109.00199890136719 -293.99798583984375 M 37.000999450683594 -297.00299072265625 L 36.99700164794922 -297.00299072265625 L 34.000999450683594 -297.00299072265625 L 34.000999450683594 -293.99798583984375 L 34.00299835205078 -293.99798583984375 L 36.99700164794922 -293.99798583984375 L 37.000999450683594 -293.99798583984375 L 37.000999450683594 -294.00299072265625 L 37.000999450683594 -297.00299072265625 M -59.000999450683594 -297.00299072265625 L -60.00299835205078 -297.00299072265625 L -62.000999450683594 -297.00299072265625 L -62.000999450683594 -293.99798583984375 L -60.00299835205078 -293.99798583984375 L -59.000999450683594 -293.99798583984375 L -59.000999450683594 -297.00299072265625 M -47.000999450683594 -297.00299072265625 L -50.000999450683594 -297.00299072265625 L -50.000999450683594 -293.99798583984375 L -47.000999450683594 -293.99798583984375 L -47.000999450683594 -297.00299072265625 M -80.00299835205078 -282 L -80.0009994506836 -282 L -77.0009994506836 -282 L -76.99800109863281 -282 L -76.99800109863281 -285.0010070800781 L -77.0009994506836 -285.0010070800781 L -80.0009994506836 -285.0010070800781 L -80.00299835205078 -285.0010070800781 L -80.00299835205078 -282 M -76.99800109863281 -291.00299072265625 L -77.0009994506836 -291.00299072265625 L -80.0009994506836 -291.00299072265625 L -80.00299835205078 -291.00299072265625 L -80.00299835205078 -288.00201416015625 L -80.0009994506836 -288.00201416015625 L -77.0009994506836 -288.00201416015625 L -76.99800109863281 -288.00201416015625 L -76.99800109863281 -291.00299072265625 M 4 -282 L 7 -282 L 7.002999782562256 -282 L 7.002999782562256 -285.0010070800781 L 7 -285.0010070800781 L 4 -285.0010070800781 L 3.997999906539917 -285.0010070800781 L 3.997999906539917 -282 L 4 -282 M -2 -293.99798583984375 L 1 -293.99798583984375 L 1 -297.00299072265625 L -2 -297.00299072265625 L -2 -293.99798583984375 M -98.0009994506836 -297.00299072265625 L -98.0009994506836 -293.99798583984375 L -95.0009994506836 -293.99798583984375 L -95.0009994506836 -297.00299072265625 L -98.0009994506836 -297.00299072265625 M -8 -293.99798583984375 L -5 -293.99798583984375 L -5 -297.00299072265625 L -8 -297.00299072265625 L -8 -293.99798583984375 M 7 -279 L 4 -279 L 3.997999906539917 -279 L 3.997999906539917 -275.9989929199219 L 4 -275.9989929199219 L 7 -275.9989929199219 L 7.002999782562256 -275.9989929199219 L 7.002999782562256 -279 L 7 -279 M -104.00199890136719 -297.00299072265625 L -104.00199890136719 -293.99798583984375 L -101.0009994506836 -293.99798583984375 L -101.0009994506836 -297.00299072265625 L -104.00199890136719 -297.00299072265625 M -32 -297.00299072265625 L -32 -293.99798583984375 L -29 -293.99798583984375 L -29 -297.00299072265625 L -32 -297.00299072265625 M 3.997999906539917 -288.00201416015625 L 4 -288.00201416015625 L 7 -288.00201416015625 L 7.002999782562256 -288.00201416015625 L 7.002999782562256 -291.00299072265625 L 7 -291.00299072265625 L 4 -291.00299072265625 L 3.997999906539917 -291.00299072265625 L 3.997999906539917 -288.00201416015625 M -53.000999450683594 -297.00299072265625 L -56.000999450683594 -297.00299072265625 L -56.000999450683594 -293.99798583984375 L -53.000999450683594 -293.99798583984375 L -53.000999450683594 -297.00299072265625 M 4 -293.99798583984375 L 7 -293.99798583984375 L 7 -297.00299072265625 L 4 -297.00299072265625 L 4 -293.99798583984375 M -20 -297.00299072265625 L -20 -293.99798583984375 L -17 -293.99798583984375 L -17 -297.00299072265625 L -20 -297.00299072265625 M -74.0009994506836 -293.99798583984375 L -71.0009994506836 -293.99798583984375 L -71.0009994506836 -297.00299072265625 L -74.0009994506836 -297.00299072265625 L -74.0009994506836 -293.99798583984375 M -77.0009994506836 -297.00299072265625 L -80.0009994506836 -297.00299072265625 L -80.0009994506836 -293.99798583984375 L -77.0009994506836 -293.99798583984375 L -77.0009994506836 -297.00299072265625 M -80.0009994506836 -279 L -80.00299835205078 -279 L -80.00299835205078 -275.9989929199219 L -80.0009994506836 -275.9989929199219 L -77.0009994506836 -275.9989929199219 L -76.99800109863281 -275.9989929199219 L -76.99800109863281 -279 L -77.0009994506836 -279 L -80.0009994506836 -279 M -26 -293.99798583984375 L -23 -293.99798583984375 L -23 -297.00299072265625 L -26 -297.00299072265625 L -26 -293.99798583984375 M -65.0009994506836 -297.00299072265625 L -68.0009994506836 -297.00299072265625 L -68.0009994506836 -293.99798583984375 L -65.0009994506836 -293.99798583984375 L -65.0009994506836 -297.00299072265625 M -44 -293.99798583984375 L -41 -293.99798583984375 L -41 -297.00299072265625 L -44 -297.00299072265625 L -44 -293.99798583984375 M -83.0009994506836 -297.00299072265625 L -86.0009994506836 -297.00299072265625 L -86.0009994506836 -293.99798583984375 L -83.0009994506836 -293.99798583984375 L -83.0009994506836 -297.00299072265625 M -38 -293.99798583984375 L -35 -293.99798583984375 L -35 -297.00299072265625 L -38 -297.00299072265625 L -38 -293.99798583984375 M -89.0009994506836 -297.00299072265625 L -92.0009994506836 -297.00299072265625 L -92.0009994506836 -293.99798583984375 L -89.0009994506836 -293.99798583984375 L -89.0009994506836 -297.00299072265625 M 34.000999450683594 -282 L 34.00299835205078 -282 L 34.00299835205078 -285.0010070800781 L 34.000999450683594 -285.0010070800781 L 31.000999450683594 -285.0010070800781 L 30.99799919128418 -285.0010070800781 L 30.99799919128418 -282 L 31.000999450683594 -282 L 34.000999450683594 -282 M -158.0030059814453 -293.99798583984375 L -155.0019989013672 -293.99798583984375 L -155.0019989013672 -297.00299072265625 L -158.0030059814453 -297.00299072265625 L -158.0030059814453 -293.99798583984375 M 34.00299835205078 -275.9989929199219 L 34.00299835205078 -279 L 34.000999450683594 -279 L 31.000999450683594 -279 L 30.99799919128418 -279 L 30.99799919128418 -275.9989929199219 L 31.000999450683594 -275.9989929199219 L 34.000999450683594 -275.9989929199219 L 34.00299835205078 -275.9989929199219 M 34.000999450683594 -291.00299072265625 L 31.000999450683594 -291.00299072265625 L 30.99799919128418 -291.00299072265625 L 30.99799919128418 -288.00201416015625 L 31.000999450683594 -288.00201416015625 L 34.000999450683594 -288.00201416015625 L 34.00299835205078 -288.00201416015625 L 34.00299835205078 -291.00299072265625 L 34.000999450683594 -291.00299072265625 M 29.003000259399414 -279.83099365234375 L 29.003000259399414 -290.33599853515625 L 28.000999450683594 -290.33599853515625 L 25.000999450683594 -290.33599853515625 L 22.000999450683594 -290.33599853515625 L 19.000999450683594 -290.33599853515625 L 16.000999450683594 -290.33599853515625 L 13.00100040435791 -290.33599853515625 L 10.00100040435791 -290.33599853515625 L 7.998000144958496 -290.33599853515625 L 7.998000144958496 -279.83099365234375 L 29.003000259399414 -279.83099365234375 M -131.0019989013672 -293.99798583984375 L -131.0019989013672 -297.00299072265625 L -133.00100708007812 -297.00299072265625 L -134.0019989013672 -297.00299072265625 L -134.0019989013672 -293.99798583984375 L -133.00100708007812 -293.99798583984375 L -131.0019989013672 -293.99798583984375 M 30.99799919128418 -293.99798583984375 L 31.000999450683594 -293.99798583984375 L 31.000999450683594 -297.00299072265625 L 29.003000259399414 -297.00299072265625 L 28.000999450683594 -297.00299072265625 L 28.000999450683594 -293.99798583984375 L 29.003000259399414 -293.99798583984375 L 30.99799919128418 -293.99798583984375 M -152.0019989013672 -293.99798583984375 L -149.0019989013672 -293.99798583984375 L -149.0019989013672 -297.00299072265625 L -152.0019989013672 -297.00299072265625 L -152.0019989013672 -293.99798583984375 M -128.0019989013672 -293.99798583984375 L -125.00199890136719 -293.99798583984375 L -125.00199890136719 -297.00299072265625 L -128.0019989013672 -297.00299072265625 L -128.0019989013672 -293.99798583984375 M -122.00199890136719 -293.99798583984375 L -119.00199890136719 -293.99798583984375 L -119.00199890136719 -297.00299072265625 L -122.00199890136719 -297.00299072265625 L -122.00199890136719 -293.99798583984375 M 10.00100040435791 -297.00299072265625 L 10.00100040435791 -293.99798583984375 L 13.00100040435791 -293.99798583984375 L 13.00100040435791 -297.00299072265625 L 10.00100040435791 -297.00299072265625 M -116.00199890136719 -293.99798583984375 L -113.00199890136719 -293.99798583984375 L -113.00199890136719 -297.00299072265625 L -116.00199890136719 -297.00299072265625 L -116.00199890136719 -293.99798583984375 M 16.000999450683594 -297.00299072265625 L 16.000999450683594 -293.99798583984375 L 19.000999450683594 -293.99798583984375 L 19.000999450683594 -297.00299072265625 L 16.000999450683594 -297.00299072265625 M 25.000999450683594 -297.00299072265625 L 22.000999450683594 -297.00299072265625 L 22.000999450683594 -293.99798583984375 L 25.000999450683594 -293.99798583984375 L 25.000999450683594 -297.00299072265625 M -110.00199890136719 -293.99798583984375 L -107.00199890136719 -293.99798583984375 L -107.00199890136719 -297.00299072265625 L -110.00199890136719 -297.00299072265625 L -110.00199890136719 -293.99798583984375 M 40.000999450683594 -297.00299072265625 L 40.000999450683594 -294.00299072265625 L 40.000999450683594 -293.99798583984375 L 43.000999450683594 -293.99798583984375 L 43.000999450683594 -294.00299072265625 L 43.000999450683594 -297.00299072265625 L 40.000999450683594 -297.00299072265625 M 112.00199890136719 -293.99798583984375 L 113.00299835205078 -293.99798583984375 L 115.00199890136719 -293.99798583984375 L 115.00199890136719 -297.00299072265625 L 113.00299835205078 -297.00299072265625 L 112.00199890136719 -297.00299072265625 L 112.00199890136719 -294.00299072265625 L 112.00199890136719 -293.99798583984375 M -140.0019989013672 -293.99798583984375 L -137.0019989013672 -293.99798583984375 L -137.0019989013672 -297.00299072265625 L -140.0019989013672 -297.00299072265625 L -140.0019989013672 -293.99798583984375 z" fill="none" stroke="rgb(255,0,0)" stroke-width="0.001mm" />
</svg>