<?xml version="1.0" standalone="no"?>
<!DOCTYPE svg PUBLIC "-//W3C//DTD SVG 1.1//EN"
  "http://www.w3.org/Graphics/SVG/1.1/DTD/svg11.dtd">
<svg width="285mm" height="292mm" viewBox="-163 205 285 292" xmlns="http://www.w3.org/2000/svg" version="1.1">
	<title>svgOutput</title>
	<desc>made with tinkercad</desc>
<path d="M -162 206 L -159.0030059814453 206 L -156.0019989013672 206 L -155.0030059814453 206 L -155.0030059814453 209.30299377441406 L -153.0019989013672 209.30299377441406 L -152.0019989013672 209.30299377441406 L -152.0019989013672 206 L -150.0019989013672 206 L -149.0019989013672 206 L -149.0019989013672 209.30299377441406 L -147.00100708007812 209.30299377441406 L -146.0019989013672 209.30299377441406 L -146.0019989013672 206 L -144.00100708007812 206 L -143.0019989013672 206 L -143.0019989013672 209.30299377441406 L -141.00100708007812 209.30299377441406 L -140.0019989013672 209.30299377441406 L -140.0019989013672 206 L -138 206 L -137.0019989013672 206 L -137.0019989013672 209.30299377441406 L -135 209.30299377441406 L -134.0019989013672 209.30299377441406 L -134.0019989013672 206 L -132 206 L -131.0019989013672 206 L -131.0019989013672 209.30299377441406 L -128.99899291992188 209.30299377441406 L -128.0019989013672 209.30299377441406 L -128.0019989013672 206 L -125.9990005493164 206 L -125.00199890136719 206 L -125.00199890136719 209.30299377441406 L -122.9990005493164 209.30299377441406 L -122.00199890136719 209.30299377441406 L -122.00199890136719 206 L -119.99800109863281 206 L -119.00199890136719 206 L -119.00199890136719 209.30299377441406 L -116.99800109863281 209.30299377441406 L -116.00199890136719 209.30299377441406 L -116.00199890136719 206 L -113.99800109863281 206 L -113.00199890136719 206 L -113.00199890136719 209.30299377441406 L -111.00299835205078 209.30299377441406 L -110.00199890136719 209.30299377441406 L -110.00199890136719 206 L -108.00199890136719 206 L -107.00199890136719 206 L -107.00199890136719 209.30299377441406 L -105.00199890136719 209.30299377441406 L -104.00199890136719 209.30299377441406 L -104.00199890136719 206 L -102.00199890136719 206 L -101.00199890136719 206 L -101.00199890136719 209.30299377441406 L -99.00199890136719 209.30299377441406 L -98.0009994506836 209.30299377441406 L -98.0009994506836 206 L -96.00199890136719 206 L -95.0009994506836 206 L -95.0009994506836 209.30299377441406 L -93.00199890136719 209.30299377441406 L -92.0009994506836 209.30299377441406 L -92.0009994506836 206 L -90.00199890136719 206 L -89.0009994506836 206 L -89.0009994506836 209.30299377441406 L -87.00199890136719 209.30299377441406 L -86.0009994506836 209.30299377441406 L -86.0009994506836 206 L -84.00199890136719 206 L -83.0009994506836 206 L -83.0009994506836 209.30299377441406 L -81.00199890136719 209.30299377441406 L -80.0009994506836 209.30299377441406 L -80.0009994506836 206 L -78.00199890136719 206 L -77.0009994506836 206 L -77.0009994506836 209.30299377441406 L -75.00199890136719 209.30299377441406 L -74.0009994506836 209.30299377441406 L -74.0009994506836 206 L -72.00199890136719 206 L -71.0009994506836 206 L -71.0009994506836 209.30299377441406 L -69.00199890136719 209.30299377441406 L -68.0009994506836 209.30299377441406 L -68.0009994506836 206 L -66.00199890136719 206 L -65.0009994506836 206 L -65.0009994506836 209.30299377441406 L -63.000999450683594 209.30299377441406 L -62.000999450683594 209.30299377441406 L -62.000999450683594 206 L -60.000999450683594 206 L -59.000999450683594 206 L -59.000999450683594 209.30299377441406 L -57.000999450683594 209.30299377441406 L -56.000999450683594 209.30299377441406 L -56.000999450683594 206 L -54.000999450683594 206 L -53.000999450683594 206 L -53.000999450683594 209.30299377441406 L -51.000999450683594 209.30299377441406 L -50.000999450683594 209.30299377441406 L -50.000999450683594 206 L -48.000999450683594 206 L -47.000999450683594 206 L -47.000999450683594 209.30299377441406 L -45.000999450683594 209.30299377441406 L -44 209.30299377441406 L -44 206 L -42.000999450683594 206 L -41 206 L -41 209.30299377441406 L -39.000999450683594 209.30299377441406 L -38 209.30299377441406 L -38 206 L -36.000999450683594 206 L -35 206 L -35 209.30299377441406 L -33.000999450683594 209.30299377441406 L -32 209.30299377441406 L -32 206 L -30.000999450683594 206 L -29 206 L -29 209.30299377441406 L -27.000999450683594 209.30299377441406 L -26 209.30299377441406 L -26 206 L -24.000999450683594 206 L -23 206 L -23 209.30299377441406 L -21.000999450683594 209.30299377441406 L -20 209.30299377441406 L -20 206 L -18 206 L -17 206 L -17 209.30299377441406 L -15 209.30299377441406 L -14 209.30299377441406 L -14 206 L -12 206 L -11 206 L -11 209.30299377441406 L -9 209.30299377441406 L -8 209.30299377441406 L -8 206 L -6 206 L -5 206 L -5 209.30299377441406 L -3 209.30299377441406 L -2 209.30299377441406 L -2 206 L 0 206 L 1 206 L 1 209.30299377441406 L 3 209.30299377441406 L 4 209.30299377441406 L 4 206 L 6 206 L 7 206 L 7 209.30299377441406 L 9 209.30299377441406 L 10.00100040435791 209.30299377441406 L 10.00100040435791 206 L 12 206 L 13.00100040435791 206 L 13.00100040435791 209.30299377441406 L 15 209.30299377441406 L 16.000999450683594 209.30299377441406 L 16.000999450683594 206 L 18 206 L 19.000999450683594 206 L 19.000999450683594 209.30299377441406 L 21 209.30299377441406 L 22.000999450683594 209.30299377441406 L 22.000999450683594 206 L 24 206 L 25.000999450683594 206 L 25.000999450683594 209.30299377441406 L 27 209.30299377441406 L 28.000999450683594 209.30299377441406 L 28.000999450683594 206 L 30.000999450683594 206 L 31.000999450683594 206 L 31.000999450683594 209.30299377441406 L 33.000999450683594 209.30299377441406 L 34.000999450683594 209.30299377441406 L 34.000999450683594 206 L 36.000999450683594 206 L 37.000999450683594 206 L 37.000999450683594 209.30299377441406 L 39.000999450683594 209.30299377441406 L 40.000999450683594 209.30299377441406 L 40.000999450683594 206 L 42.000999450683594 206 L 43.000999450683594 206 L 43.000999450683594 209.30299377441406 L 45.000999450683594 209.30299377441406 L 46.000999450683594 209.30299377441406 L 46.000999450683594 206 L 48.000999450683594 206 L 49.000999450683594 206 L 49.000999450683594 209.30299377441406 L 51.000999450683594 209.30299377441406 L 52.000999450683594 209.30299377441406 L 52.000999450683594 206 L 54.000999450683594 206 L 55.000999450683594 206 L 55.000999450683594 209.30299377441406 L 57.000999450683594 209.30299377441406 L 58.000999450683594 209.30299377441406 L 58.000999450683594 206 L 60.000999450683594 206 L 61.000999450683594 206 L 61.000999450683594 209.30299377441406 L 63.000999450683594 209.30299377441406 L 64.00199890136719 209.30299377441406 L 64.00199890136719 206 L 66.0009994506836 206 L 67.00199890136719 206 L 67.00199890136719 209.30299377441406 L 69.0009994506836 209.30299377441406 L 70.00199890136719 209.30299377441406 L 70.00199890136719 206 L 72.0009994506836 206 L 73.00199890136719 206 L 73.00199890136719 209.30299377441406 L 75.00199890136719 209.30299377441406 L 76.00199890136719 209.30299377441406 L 76.00199890136719 206 L 78.00199890136719 206 L 79.00199890136719 206 L 79.00199890136719 209.30299377441406 L 81.00199890136719 209.30299377441406 L 82.00199890136719 209.30299377441406 L 82.00199890136719 206 L 84.00199890136719 206 L 85.00199890136719 206 L 85.00199890136719 209.30299377441406 L 87.00199890136719 209.30299377441406 L 88.00199890136719 209.30299377441406 L 88.00199890136719 206 L 90.00199890136719 206 L 91.00199890136719 206 L 91.00199890136719 209.30299377441406 L 93.00199890136719 209.30299377441406 L 94.00199890136719 209.30299377441406 L 94.00199890136719 206 L 96.00199890136719 206 L 97.00199890136719 206 L 97.00199890136719 209.30299377441406 L 99.00199890136719 209.30299377441406 L 100.00199890136719 209.30299377441406 L 100.00199890136719 206 L 102.00199890136719 206 L 103.00199890136719 206 L 103.00199890136719 209.30299377441406 L 105.00199890136719 209.30299377441406 L 106.00199890136719 209.30299377441406 L 106.00199890136719 206 L 108.00199890136719 206 L 109.00199890136719 206 L 109.00199890136719 209.30299377441406 L 111.00199890136719 209.30299377441406 L 112.00199890136719 209.30299377441406 L 112.00199890136719 206 L 114.00199890136719 206 L 115.00199890136719 206 L 115.00199890136719 209.30299377441406 L 117.00199890136719 209.30299377441406 L 118.00299835205078 209.30299377441406 L 118.00299835205078 206 L 121 206 L 121 213.9980010986328 L 118.00299835205078 213.9980010986328 L 117.99700164794922 213.9980010986328 L 117.99700164794922 216.9980010986328 L 121 216.9980010986328 L 121 219.9980010986328 L 117.99700164794922 219.9980010986328 L 117.99700164794922 222.9980010986328 L 121 222.9980010986328 L 121 225.9980010986328 L 117.99700164794922 225.9980010986328 L 117.99700164794922 228.9980010986328 L 121 228.9980010986328 L 121 231.9980010986328 L 117.99700164794922 231.9980010986328 L 117.99700164794922 234.9980010986328 L 121 234.9980010986328 L 121 237.9980010986328 L 117.99700164794922 237.9980010986328 L 117.99700164794922 240.9980010986328 L 121 240.9980010986328 L 121 243.99899291992188 L 117.99700164794922 243.99899291992188 L 117.99700164794922 246.99899291992188 L 121 246.99899291992188 L 121 249.99899291992188 L 117.99700164794922 249.99899291992188 L 117.99700164794922 252.99899291992188 L 121 252.99899291992188 L 121 255.99899291992188 L 117.99700164794922 255.99899291992188 L 117.99700164794922 258.9989929199219 L 121 258.9989929199219 L 121 261.9989929199219 L 117.99700164794922 261.9989929199219 L 117.99700164794922 264.9989929199219 L 121 264.9989929199219 L 121 267.9989929199219 L 117.99700164794922 267.9989929199219 L 117.99700164794922 271 L 121 271 L 121 274 L 117.99700164794922 274 L 117.99700164794922 277 L 121 277 L 121 280 L 117.99700164794922 280 L 117.99700164794922 283 L 121 283 L 121 286 L 117.99700164794922 286 L 117.99700164794922 289 L 121 289 L 121 292 L 117.99700164794922 292 L 117.99700164794922 295 L 121 295 L 121 298.0010070800781 L 117.99700164794922 298.0010070800781 L 117.99700164794922 301.0010070800781 L 121 301.0010070800781 L 121 304.0010070800781 L 117.99700164794922 304.0010070800781 L 117.99700164794922 307.0010070800781 L 121 307.0010070800781 L 121 310.0010070800781 L 117.99700164794922 310.0010070800781 L 117.99700164794922 313.0010070800781 L 121 313.0010070800781 L 121 316.0010070800781 L 117.99700164794922 316.0010070800781 L 117.99700164794922 319.0010070800781 L 121 319.0010070800781 L 121 322.0010070800781 L 117.99700164794922 322.0010070800781 L 117.99700164794922 325.00201416015625 L 121 325.00201416015625 L 121 328.00201416015625 L 117.99700164794922 328.00201416015625 L 117.99700164794922 331.00201416015625 L 121 331.00201416015625 L 121 334.00201416015625 L 117.99700164794922 334.00201416015625 L 117.99700164794922 337.00201416015625 L 121 337.00201416015625 L 121 340.00201416015625 L 117.99700164794922 340.00201416015625 L 117.99700164794922 343.00201416015625 L 121 343.00201416015625 L 121 346.00201416015625 L 117.99700164794922 346.00201416015625 L 117.99700164794922 349.00201416015625 L 117.99700164794922 351.99798583984375 L 117.99700164794922 375.99798583984375 L 117.99700164794922 378.99798583984375 L 121 378.99798583984375 L 121 381.99798583984375 L 117.99700164794922 381.99798583984375 L 117.99700164794922 384.99798583984375 L 121 384.99798583984375 L 121 387.99798583984375 L 117.99700164794922 387.99798583984375 L 117.99700164794922 390.99798583984375 L 121 390.99798583984375 L 121 393.99798583984375 L 117.99700164794922 393.99798583984375 L 117.99700164794922 396.99798583984375 L 121 396.99798583984375 L 121 399.9989929199219 L 117.99700164794922 399.9989929199219 L 117.99700164794922 402.9989929199219 L 121 402.9989929199219 L 121 405.9989929199219 L 117.99700164794922 405.9989929199219 L 117.99700164794922 408.9989929199219 L 121 408.9989929199219 L 121 411.9989929199219 L 117.99700164794922 411.9989929199219 L 117.99700164794922 414.9989929199219 L 121 414.9989929199219 L 121 417.9989929199219 L 117.99700164794922 417.9989929199219 L 117.99700164794922 420.9989929199219 L 121 420.9989929199219 L 121 424 L 117.99700164794922 424 L 117.99700164794922 427 L 121 427 L 121 430 L 117.99700164794922 430 L 117.99700164794922 433 L 121 433 L 121 436 L 117.99700164794922 436 L 117.99700164794922 439 L 121 439 L 121 442 L 117.99700164794922 442 L 117.99700164794922 445 L 121 445 L 121 448.0010070800781 L 117.99700164794922 448.0010070800781 L 117.99700164794922 451.0010070800781 L 121 451.0010070800781 L 121 454.0010070800781 L 117.99700164794922 454.0010070800781 L 117.99700164794922 457.0010070800781 L 121 457.0010070800781 L 121 460.0010070800781 L 117.99700164794922 460.0010070800781 L 117.99700164794922 463.0010070800781 L 121 463.0010070800781 L 121 466.0010070800781 L 117.99700164794922 466.0010070800781 L 117.99700164794922 469.0010070800781 L 121 469.0010070800781 L 121 472.00201416015625 L 117.99700164794922 472.00201416015625 L 117.99700164794922 475.00201416015625 L 121 475.00201416015625 L 121 478.00201416015625 L 117.99700164794922 478.00201416015625 L 117.99700164794922 481.00201416015625 L 121 481.00201416015625 L 121 484.00201416015625 L 117.99700164794922 484.00201416015625 L 117.99700164794922 487.00201416015625 L 121 487.00201416015625 L 121 490.00201416015625 L 117.99700164794922 490.00201416015625 L 117.99700164794922 492.99700927734375 L 117.00199890136719 492.99700927734375 L 117.00199890136719 496 L 115.00199890136719 496 L 114.00199890136719 496 L 114.00199890136719 492.99700927734375 L 112.00199890136719 492.99700927734375 L 111.00199890136719 492.99700927734375 L 111.00199890136719 496 L 109.00199890136719 496 L 108.00199890136719 496 L 108.00199890136719 492.99700927734375 L 106.00199890136719 492.99700927734375 L 105.00199890136719 492.99700927734375 L 105.00199890136719 496 L 103.00199890136719 496 L 102.00199890136719 496 L 102.00199890136719 492.99700927734375 L 100.00199890136719 492.99700927734375 L 99.00199890136719 492.99700927734375 L 99.00199890136719 496 L 97.00199890136719 496 L 96.00199890136719 496 L 96.00199890136719 492.99700927734375 L 94.00199890136719 492.99700927734375 L 93.00199890136719 492.99700927734375 L 93.00199890136719 496 L 91.00199890136719 496 L 90.00199890136719 496 L 90.00199890136719 492.99700927734375 L 88.00199890136719 492.99700927734375 L 87.00199890136719 492.99700927734375 L 87.00199890136719 496 L 85.00199890136719 496 L 84.00199890136719 496 L 84.00199890136719 492.99700927734375 L 82.00199890136719 492.99700927734375 L 81.00199890136719 492.99700927734375 L 81.00199890136719 496 L 79.00199890136719 496 L 78.00199890136719 496 L 78.00199890136719 492.99700927734375 L 76.00199890136719 492.99700927734375 L 75.00199890136719 492.99700927734375 L 75.00199890136719 496 L 73.00199890136719 496 L 72.0009994506836 496 L 72.0009994506836 492.99700927734375 L 70.00199890136719 492.99700927734375 L 69.0009994506836 492.99700927734375 L 69.0009994506836 496 L 67.00199890136719 496 L 66.0009994506836 496 L 66.0009994506836 492.99700927734375 L 64.00199890136719 492.99700927734375 L 63.000999450683594 492.99700927734375 L 63.000999450683594 496 L 61.000999450683594 496 L 60.000999450683594 496 L 60.000999450683594 492.99700927734375 L 58.000999450683594 492.99700927734375 L 57.000999450683594 492.99700927734375 L 57.000999450683594 496 L 55.000999450683594 496 L 54.000999450683594 496 L 54.000999450683594 492.99700927734375 L 52.000999450683594 492.99700927734375 L 51.000999450683594 492.99700927734375 L 51.000999450683594 496 L 49.000999450683594 496 L 48.000999450683594 496 L 48.000999450683594 492.99700927734375 L 46.000999450683594 492.99700927734375 L 45.000999450683594 492.99700927734375 L 45.000999450683594 496 L 43.000999450683594 496 L 42.000999450683594 496 L 42.000999450683594 492.99700927734375 L 40.000999450683594 492.99700927734375 L 39.000999450683594 492.99700927734375 L 39.000999450683594 496 L 37.000999450683594 496 L 36.000999450683594 496 L 36.000999450683594 492.99700927734375 L 34.000999450683594 492.99700927734375 L 33.000999450683594 492.99700927734375 L 33.000999450683594 496 L 31.000999450683594 496 L 30.000999450683594 496 L 30.000999450683594 492.99700927734375 L 28.000999450683594 492.99700927734375 L 27 492.99700927734375 L 27 496 L 25.000999450683594 496 L 24 496 L 24 492.99700927734375 L 22.000999450683594 492.99700927734375 L 21 492.99700927734375 L 21 496 L 19.000999450683594 496 L 18 496 L 18 492.99700927734375 L 16.000999450683594 492.99700927734375 L 15 492.99700927734375 L 15 496 L 13.00100040435791 496 L 12 496 L 12 492.99700927734375 L 10.00100040435791 492.99700927734375 L 9 492.99700927734375 L 9 496 L 7 496 L 6 496 L 6 492.99700927734375 L 4 492.99700927734375 L 3 492.99700927734375 L 3 496 L 1 496 L 0 496 L 0 492.99700927734375 L -2 492.99700927734375 L -3 492.99700927734375 L -3 496 L -5 496 L -6 496 L -6 492.99700927734375 L -8 492.99700927734375 L -9 492.99700927734375 L -9 496 L -11 496 L -12 496 L -12 492.99700927734375 L -14 492.99700927734375 L -15 492.99700927734375 L -15 496 L -17 496 L -18 496 L -18 492.99700927734375 L -20 492.99700927734375 L -21.000999450683594 492.99700927734375 L -21.000999450683594 496 L -23 496 L -24.000999450683594 496 L -24.000999450683594 492.99700927734375 L -26 492.99700927734375 L -27.000999450683594 492.99700927734375 L -27.000999450683594 496 L -29 496 L -30.000999450683594 496 L -30.000999450683594 492.99700927734375 L -32 492.99700927734375 L -33.000999450683594 492.99700927734375 L -33.000999450683594 496 L -35 496 L -36.000999450683594 496 L -36.000999450683594 492.99700927734375 L -38 492.99700927734375 L -39.000999450683594 492.99700927734375 L -39.000999450683594 496 L -41 496 L -42.000999450683594 496 L -42.000999450683594 492.99700927734375 L -44 492.99700927734375 L -45.000999450683594 492.99700927734375 L -45.000999450683594 496 L -47.000999450683594 496 L -48.000999450683594 496 L -48.000999450683594 492.99700927734375 L -50.000999450683594 492.99700927734375 L -51.000999450683594 492.99700927734375 L -51.000999450683594 496 L -53.000999450683594 496 L -54.000999450683594 496 L -54.000999450683594 492.99700927734375 L -56.000999450683594 492.99700927734375 L -57.000999450683594 492.99700927734375 L -57.000999450683594 496 L -59.000999450683594 496 L -60.000999450683594 496 L -60.000999450683594 492.99700927734375 L -62.000999450683594 492.99700927734375 L -63.000999450683594 492.99700927734375 L -63.000999450683594 496 L -65.0009994506836 496 L -66.00199890136719 496 L -66.00199890136719 492.99700927734375 L -68.0009994506836 492.99700927734375 L -69.00199890136719 492.99700927734375 L -69.00199890136719 496 L -71.0009994506836 496 L -72.00199890136719 496 L -72.00199890136719 492.99700927734375 L -74.0009994506836 492.99700927734375 L -75.00199890136719 492.99700927734375 L -75.00199890136719 496 L -77.0009994506836 496 L -78.00199890136719 496 L -78.00199890136719 492.99700927734375 L -80.0009994506836 492.99700927734375 L -81.00199890136719 492.99700927734375 L -81.00199890136719 496 L -83.0009994506836 496 L -84.00199890136719 496 L -84.00199890136719 492.99700927734375 L -86.0009994506836 492.99700927734375 L -87.00199890136719 492.99700927734375 L -87.00199890136719 496 L -89.0009994506836 496 L -90.00199890136719 496 L -90.00199890136719 492.99700927734375 L -92.0009994506836 492.99700927734375 L -93.00199890136719 492.99700927734375 L -93.00199890136719 496 L -95.0009994506836 496 L -96.00199890136719 496 L -96.00199890136719 492.99700927734375 L -98.0009994506836 492.99700927734375 L -99.00199890136719 492.99700927734375 L -99.00199890136719 496 L -101.00199890136719 496 L -102.00199890136719 496 L -102.00199890136719 492.99700927734375 L -104.00199890136719 492.99700927734375 L -105.00199890136719 492.99700927734375 L -105.00199890136719 496 L -107.00199890136719 496 L -108.00199890136719 496 L -108.00199890136719 492.99700927734375 L -110.00199890136719 492.99700927734375 L -111.00299835205078 492.99700927734375 L -111.00299835205078 496 L -113.00199890136719 496 L -113.99800109863281 496 L -113.99800109863281 492.99700927734375 L -116.00199890136719 492.99700927734375 L -116.99800109863281 492.99700927734375 L -116.99800109863281 496 L -119.00199890136719 496 L -119.99800109863281 496 L -119.99800109863281 492.99700927734375 L -122.00199890136719 492.99700927734375 L -122.9990005493164 492.99700927734375 L -122.9990005493164 496 L -125.00199890136719 496 L -125.9990005493164 496 L -125.9990005493164 492.99700927734375 L -128.0019989013672 492.99700927734375 L -128.99899291992188 492.99700927734375 L -128.99899291992188 496 L -131.0019989013672 496 L -132 496 L -132 492.99700927734375 L -134.0019989013672 492.99700927734375 L -135 492.99700927734375 L -135 496 L -137.0019989013672 496 L -138 496 L -138 492.99700927734375 L -140.0019989013672 492.99700927734375 L -141.00100708007812 492.99700927734375 L -141.00100708007812 496 L -143.0019989013672 496 L -144.00100708007812 496 L -144.00100708007812 492.99700927734375 L -146.0019989013672 492.99700927734375 L -147.00100708007812 492.99700927734375 L -147.00100708007812 496 L -149.0019989013672 496 L -150.0019989013672 496 L -150.0019989013672 492.99700927734375 L -152.0019989013672 492.99700927734375 L -153.0019989013672 492.99700927734375 L -153.0019989013672 496 L -155.0030059814453 496 L -156.0019989013672 496 L -156.0019989013672 492.99700927734375 L -158.9980010986328 492.99700927734375 L -158.9980010986328 490.00201416015625 L -159.0030059814453 490.00201416015625 L -162 490.00201416015625 L -162 487.00201416015625 L -159.0030059814453 487.00201416015625 L -158.9980010986328 487.00201416015625 L -158.9980010986328 484.00201416015625 L -159.0030059814453 484.00201416015625 L -162 484.00201416015625 L -162 481.00201416015625 L -159.0030059814453 481.00201416015625 L -158.9980010986328 481.00201416015625 L -158.9980010986328 478.00201416015625 L -159.0030059814453 478.00201416015625 L -162 478.00201416015625 L -162 475.00201416015625 L -159.0030059814453 475.00201416015625 L -158.9980010986328 475.00201416015625 L -158.9980010986328 472.00201416015625 L -159.0030059814453 472.00201416015625 L -162 472.00201416015625 L -162 469.00201416015625 L -159.0030059814453 469.00201416015625 L -158.9980010986328 469.00201416015625 L -158.9980010986328 466.00201416015625 L -159.0030059814453 466.00201416015625 L -162 466.00201416015625 L -162 463.00201416015625 L -159.0030059814453 463.00201416015625 L -158.9980010986328 463.00201416015625 L -158.9980010986328 460.00201416015625 L -159.0030059814453 460.00201416015625 L -162 460.00201416015625 L -162 457.00201416015625 L -159.0030059814453 457.00201416015625 L -158.9980010986328 457.00201416015625 L -158.9980010986328 454.00201416015625 L -159.0030059814453 454.00201416015625 L -162 454.00201416015625 L -162 451.00201416015625 L -159.0030059814453 451.00201416015625 L -158.9980010986328 451.00201416015625 L -158.9980010986328 448.00201416015625 L -159.0030059814453 448.00201416015625 L -162 448.00201416015625 L -162 445.00201416015625 L -159.0030059814453 445.00201416015625 L -158.9980010986328 445.00201416015625 L -158.9980010986328 442.00201416015625 L -159.0030059814453 442.00201416015625 L -162 442.00201416015625 L -162 439.00201416015625 L -159.0030059814453 439.00201416015625 L -158.9980010986328 439.00201416015625 L -158.9980010986328 436.0010070800781 L -159.0030059814453 436.0010070800781 L -162 436.0010070800781 L -162 433.0010070800781 L -159.0030059814453 433.0010070800781 L -158.9980010986328 433.0010070800781 L -158.9980010986328 430.0010070800781 L -159.0030059814453 430.0010070800781 L -162 430.0010070800781 L -162 427.0010070800781 L -159.0030059814453 427.0010070800781 L -158.9980010986328 427.0010070800781 L -158.9980010986328 424.0010070800781 L -159.0030059814453 424.0010070800781 L -162 424.0010070800781 L -162 421.0010070800781 L -159.0030059814453 421.0010070800781 L -158.9980010986328 421.0010070800781 L -158.9980010986328 418.0010070800781 L -159.0030059814453 418.0010070800781 L -162 418.0010070800781 L -162 415.0010070800781 L -159.0030059814453 415.0010070800781 L -158.9980010986328 415.0010070800781 L -158.9980010986328 412.0010070800781 L -159.0030059814453 412.0010070800781 L -162 412.0010070800781 L -162 409.0010070800781 L -159.0030059814453 409.0010070800781 L -158.9980010986328 409.0010070800781 L -158.9980010986328 406.0010070800781 L -159.0030059814453 406.0010070800781 L -162 406.0010070800781 L -162 403.0010070800781 L -159.0030059814453 403.0010070800781 L -158.9980010986328 403.0010070800781 L -158.9980010986328 400.0010070800781 L -159.0030059814453 400.0010070800781 L -162 400.0010070800781 L -162 397.0010070800781 L -159.0030059814453 397.0010070800781 L -158.9980010986328 397.0010070800781 L -158.9980010986328 394.0010070800781 L -159.0030059814453 394.0010070800781 L -162 394.0010070800781 L -162 391.0010070800781 L -159.0030059814453 391.0010070800781 L -158.9980010986328 391.0010070800781 L -158.9980010986328 388.0010070800781 L -159.0030059814453 388.0010070800781 L -162 388.0010070800781 L -162 385.0010070800781 L -159.0030059814453 385.0010070800781 L -158.9980010986328 385.0010070800781 L -158.9980010986328 382.0010070800781 L -159.0030059814453 382.0010070800781 L -162 382.0010070800781 L -162 379 L -159.0030059814453 379 L -158.9980010986328 379 L -158.9980010986328 376 L -159.0030059814453 376 L -162 376 L -162 373 L -159.0030059814453 373 L -158.9980010986328 373 L -158.9980010986328 370 L -159.0030059814453 370 L -162 370 L -162 367 L -159.0030059814453 367 L -158.9980010986328 367 L -158.9980010986328 364 L -159.0030059814453 364 L -162 364 L -162 361 L -159.0030059814453 361 L -158.9980010986328 361 L -158.9980010986328 358 L -159.0030059814453 358 L -162 358 L -162 355 L -159.0030059814453 355 L -158.9980010986328 355 L -158.9980010986328 352 L -159.0030059814453 352 L -162 352 L -162 349 L -159.0030059814453 349 L -158.9980010986328 349 L -158.9980010986328 346 L -159.0030059814453 346 L -162 346 L -162 343 L -159.0030059814453 343 L -158.9980010986328 343 L -158.9980010986328 340 L -159.0030059814453 340 L -162 340 L -162 337 L -159.0030059814453 337 L -158.9980010986328 337 L -158.9980010986328 334 L -159.0030059814453 334 L -162 334 L -162 331 L -159.0030059814453 331 L -158.9980010986328 331 L -158.9980010986328 328 L -159.0030059814453 328 L -162 328 L -162 324.9989929199219 L -159.0030059814453 324.9989929199219 L -158.9980010986328 324.9989929199219 L -158.9980010986328 321.9989929199219 L -159.0030059814453 321.9989929199219 L -162 321.9989929199219 L -162 318.9989929199219 L -159.0030059814453 318.9989929199219 L -158.9980010986328 318.9989929199219 L -158.9980010986328 315.9989929199219 L -159.0030059814453 315.9989929199219 L -162 315.9989929199219 L -162 312.9989929199219 L -159.0030059814453 312.9989929199219 L -158.9980010986328 312.9989929199219 L -158.9980010986328 309.9989929199219 L -159.0030059814453 309.9989929199219 L -162 309.9989929199219 L -162 306.9989929199219 L -159.0030059814453 306.9989929199219 L -158.9980010986328 306.9989929199219 L -158.9980010986328 303.9989929199219 L -159.0030059814453 303.9989929199219 L -162 303.9989929199219 L -162 300.9989929199219 L -159.0030059814453 300.9989929199219 L -158.9980010986328 300.9989929199219 L -158.9980010986328 297.9989929199219 L -159.0030059814453 297.9989929199219 L -162 297.9989929199219 L -162 294.9989929199219 L -159.0030059814453 294.9989929199219 L -158.9980010986328 294.9989929199219 L -158.9980010986328 291.9989929199219 L -159.0030059814453 291.9989929199219 L -162 291.9989929199219 L -162 288.9989929199219 L -159.0030059814453 288.9989929199219 L -158.9980010986328 288.9989929199219 L -158.9980010986328 285.9989929199219 L -159.0030059814453 285.9989929199219 L -162 285.9989929199219 L -162 282.9989929199219 L -159.0030059814453 282.9989929199219 L -158.9980010986328 282.9989929199219 L -158.9980010986328 279.9989929199219 L -159.0030059814453 279.9989929199219 L -162 279.9989929199219 L -162 276.9989929199219 L -159.0030059814453 276.9989929199219 L -158.9980010986328 276.9989929199219 L -158.9980010986328 273.9989929199219 L -159.0030059814453 273.9989929199219 L -162 273.9989929199219 L -162 270.9989929199219 L -159.0030059814453 270.9989929199219 L -158.9980010986328 270.9989929199219 L -158.9980010986328 267.99798583984375 L -159.0030059814453 267.99798583984375 L -162 267.99798583984375 L -162 264.99798583984375 L -159.0030059814453 264.99798583984375 L -158.9980010986328 264.99798583984375 L -158.9980010986328 261.99798583984375 L -159.0030059814453 261.99798583984375 L -162 261.99798583984375 L -162 258.99798583984375 L -159.0030059814453 258.99798583984375 L -158.9980010986328 258.99798583984375 L -158.9980010986328 255.9980010986328 L -159.0030059814453 255.9980010986328 L -162 255.9980010986328 L -162 252.9980010986328 L -159.0030059814453 252.9980010986328 L -158.9980010986328 252.9980010986328 L -158.9980010986328 249.9980010986328 L -159.0030059814453 249.9980010986328 L -162 249.9980010986328 L -162 246.9980010986328 L -159.0030059814453 246.9980010986328 L -158.9980010986328 246.9980010986328 L -158.9980010986328 243.9980010986328 L -159.0030059814453 243.9980010986328 L -162 243.9980010986328 L -162 240.9980010986328 L -159.0030059814453 240.9980010986328 L -158.9980010986328 240.9980010986328 L -158.9980010986328 237.9980010986328 L -159.0030059814453 237.9980010986328 L -162 237.9980010986328 L -162 234.9980010986328 L -159.0030059814453 234.9980010986328 L -158.9980010986328 234.9980010986328 L -158.9980010986328 231.9980010986328 L -159.0030059814453 231.9980010986328 L -162 231.9980010986328 L -162 228.9980010986328 L -159.0030059814453 228.9980010986328 L -158.9980010986328 228.9980010986328 L -158.9980010986328 225.9980010986328 L -159.0030059814453 225.9980010986328 L -162 225.9980010986328 L -162 222.9980010986328 L -159.0030059814453 222.9980010986328 L -158.9980010986328 222.9980010986328 L -158.9980010986328 219.9980010986328 L -159.0030059814453 219.9980010986328 L -162 219.9980010986328 L -162 216.9980010986328 L -159.0030059814453 216.9980010986328 L -158.9980010986328 216.9980010986328 L -158.9980010986328 213.9980010986328 L -159.0030059814453 213.9980010986328 L -162 213.9980010986328 L -162 206 z" fill="none" stroke="rgb(255,0,0)" stroke-width="0.001mm" />
</svg>