<?xml version="1.0" standalone="no"?>
<!DOCTYPE svg PUBLIC "-//W3C//DTD SVG 1.1//EN"
  "http://www.w3.org/Graphics/SVG/1.1/DTD/svg11.dtd">
<svg width="28.996994018554688mm" height="171mm" viewBox="-240.9980010986328 -76 28.996994018554688 171" xmlns="http://www.w3.org/2000/svg" version="1.1">
	<title>svgOutput</title>
	<desc>made with tinkercad</desc>
<path d="M -213.00100708007812 11.003000259399414 L -213.00100708007812 75.00299835205078 L -213.00100708007812 94 L -215.99600219726562 94 L -215.99600219726562 90.99800109863281 L -218.99600219726562 90.99800109863281 L -218.99600219726562 94 L -221.9969940185547 94 L -221.9969940185547 90.99800109863281 L -224.9980010986328 90.99800109863281 L -224.9980010986328 94 L -227.9980010986328 94 L -227.9980010986328 90.99800109863281 L -230.99899291992188 90.99800109863281 L -230.99899291992188 94 L -234 94 L -234 90.99800109863281 L -234.00100708007812 90.99800109863281 L -236.9980010986328 90.99800109863281 L -237.00100708007812 90.99800109863281 L -237.00100708007812 94 L -239.9980010986328 94 L -239.9980010986328 88.00199890136719 L -237.00100708007812 88.00199890136719 L -236.9980010986328 88.00199890136719 L -236.99600219726562 88.00199890136719 L -236.99600219726562 85.00199890136719 L -236.9980010986328 85.00199890136719 L -237.00100708007812 85.00199890136719 L -239.9980010986328 85.00199890136719 L -239.9980010986328 82.00199890136719 L -237.00100708007812 82.00199890136719 L -236.9980010986328 82.00199890136719 L -236.99600219726562 82.00199890136719 L -236.99600219726562 79.00199890136719 L -236.9980010986328 79.00199890136719 L -237.00100708007812 79.00199890136719 L -239.9980010986328 79.00199890136719 L -239.9980010986328 76.00199890136719 L -237.00100708007812 76.00199890136719 L -236.9980010986328 76.00199890136719 L -236.99600219726562 76.00199890136719 L -236.99600219726562 73.00199890136719 L -236.9980010986328 73.00199890136719 L -237.00100708007812 73.00199890136719 L -239.9980010986328 73.00199890136719 L -239.9980010986328 70.00199890136719 L -237.00100708007812 70.00199890136719 L -236.9980010986328 70.00199890136719 L -236.99600219726562 70.00199890136719 L -236.99600219726562 67.00199890136719 L -236.9980010986328 67.00199890136719 L -237.00100708007812 67.00199890136719 L -239.9980010986328 67.00199890136719 L -239.9980010986328 64.00199890136719 L -237.00100708007812 64.00199890136719 L -236.9980010986328 64.00199890136719 L -236.99600219726562 64.00199890136719 L -236.99600219726562 61.00199890136719 L -236.9980010986328 61.00199890136719 L -237.00100708007812 61.00199890136719 L -239.9980010986328 61.00199890136719 L -239.9980010986328 58.00199890136719 L -237.00100708007812 58.00199890136719 L -236.9980010986328 58.00199890136719 L -236.99600219726562 58.00199890136719 L -236.99600219726562 55.000999450683594 L -236.9980010986328 55.000999450683594 L -237.00100708007812 55.000999450683594 L -239.9980010986328 55.000999450683594 L -239.9980010986328 52.000999450683594 L -237.00100708007812 52.000999450683594 L -236.9980010986328 52.000999450683594 L -236.99600219726562 52.000999450683594 L -236.99600219726562 49.000999450683594 L -236.9980010986328 49.000999450683594 L -237.00100708007812 49.000999450683594 L -239.9980010986328 49.000999450683594 L -239.9980010986328 46.000999450683594 L -237.00100708007812 46.000999450683594 L -236.9980010986328 46.000999450683594 L -236.99600219726562 46.000999450683594 L -236.99600219726562 43.000999450683594 L -236.9980010986328 43.000999450683594 L -237.00100708007812 43.000999450683594 L -239.9980010986328 43.000999450683594 L -239.9980010986328 40.000999450683594 L -237.00100708007812 40.000999450683594 L -236.9980010986328 40.000999450683594 L -236.99600219726562 40.000999450683594 L -236.99600219726562 37.000999450683594 L -236.9980010986328 37.000999450683594 L -237.00100708007812 37.000999450683594 L -239.9980010986328 37.000999450683594 L -239.9980010986328 34.000999450683594 L -237.00100708007812 34.000999450683594 L -236.9980010986328 34.000999450683594 L -236.99600219726562 34.000999450683594 L -236.99600219726562 31.000999450683594 L -236.9980010986328 31.000999450683594 L -237.00100708007812 31.000999450683594 L -239.9980010986328 31.000999450683594 L -239.9980010986328 28.000999450683594 L -237.00100708007812 28.000999450683594 L -236.9980010986328 28.000999450683594 L -236.99600219726562 28.000999450683594 L -236.99600219726562 25.000999450683594 L -236.9980010986328 25.000999450683594 L -237.00100708007812 25.000999450683594 L -239.9980010986328 25.000999450683594 L -239.9980010986328 22 L -237.00100708007812 22 L -236.9980010986328 22 L -236.99600219726562 22 L -236.99600219726562 19 L -236.9980010986328 19 L -237.00100708007812 19 L -239.9980010986328 19 L -239.9980010986328 16 L -237.00100708007812 16 L -236.9980010986328 16 L -236.99600219726562 16 L -236.99600219726562 13 L -236.9980010986328 13 L -237.00100708007812 13 L -239.9980010986328 13 L -239.9980010986328 11 L -239.9980010986328 8 L -237.00100708007812 8 L -236.9980010986328 8 L -236.9980010986328 10 L -236.99600219726562 10 L -236.99600219726562 7 L -236.9980010986328 7 L -237.00100708007812 7 L -239.9980010986328 7 L -239.9980010986328 4 L -237.00100708007812 4 L -236.9980010986328 4 L -236.99600219726562 4 L -236.99600219726562 1 L -236.9980010986328 1 L -237.00100708007812 1 L -239.9980010986328 1 L -239.9980010986328 -2 L -237.00100708007812 -2 L -236.9980010986328 -2 L -236.9949951171875 -2 L -236.9949951171875 -5 L -236.9980010986328 -5 L -237.00100708007812 -5 L -239.9980010986328 -5 L -239.9980010986328 -8 L -237.00100708007812 -8 L -236.9980010986328 -8 L -236.9949951171875 -8 L -236.9949951171875 -11.00100040435791 L -236.9980010986328 -11.00100040435791 L -237.00100708007812 -11.00100040435791 L -239.9980010986328 -11.00100040435791 L -239.9980010986328 -14.00100040435791 L -237.00100708007812 -14.00100040435791 L -236.9980010986328 -14.00100040435791 L -236.9949951171875 -14.00100040435791 L -236.9949951171875 -17.000999450683594 L -236.9980010986328 -17.000999450683594 L -237.00100708007812 -17.000999450683594 L -239.9980010986328 -17.000999450683594 L -239.9980010986328 -20.000999450683594 L -237.00100708007812 -20.000999450683594 L -236.9980010986328 -20.000999450683594 L -236.9949951171875 -20.000999450683594 L -236.9949951171875 -23.000999450683594 L -236.9980010986328 -23.000999450683594 L -237.00100708007812 -23.000999450683594 L -239.9980010986328 -23.000999450683594 L -239.9980010986328 -26.000999450683594 L -237.00100708007812 -26.000999450683594 L -236.9980010986328 -26.000999450683594 L -236.9949951171875 -26.000999450683594 L -236.9949951171875 -29.000999450683594 L -236.9980010986328 -29.000999450683594 L -237.00100708007812 -29.000999450683594 L -239.9980010986328 -29.000999450683594 L -239.9980010986328 -32.000999450683594 L -237.00100708007812 -32.000999450683594 L -236.9980010986328 -32.000999450683594 L -236.9949951171875 -32.000999450683594 L -236.9949951171875 -35.000999450683594 L -236.9980010986328 -35.000999450683594 L -237.00100708007812 -35.000999450683594 L -239.9980010986328 -35.000999450683594 L -239.9980010986328 -38.000999450683594 L -237.00100708007812 -38.000999450683594 L -236.9980010986328 -38.000999450683594 L -236.9949951171875 -38.000999450683594 L -236.9949951171875 -41.000999450683594 L -236.9980010986328 -41.000999450683594 L -237.00100708007812 -41.000999450683594 L -239.9980010986328 -41.000999450683594 L -239.9980010986328 -44.00199890136719 L -237.00100708007812 -44.00199890136719 L -236.9980010986328 -44.00199890136719 L -236.9949951171875 -44.00199890136719 L -236.9949951171875 -47.00199890136719 L -236.9980010986328 -47.00199890136719 L -237.00100708007812 -47.00199890136719 L -239.9980010986328 -47.00199890136719 L -239.9980010986328 -50.00199890136719 L -237.00100708007812 -50.00199890136719 L -236.9980010986328 -50.00199890136719 L -236.9949951171875 -50.00199890136719 L -236.9949951171875 -53.00199890136719 L -236.9980010986328 -53.00199890136719 L -237.00100708007812 -53.00199890136719 L -239.9980010986328 -53.00199890136719 L -239.9980010986328 -56.00199890136719 L -237.00100708007812 -56.00199890136719 L -236.9980010986328 -56.00199890136719 L -236.9949951171875 -56.00199890136719 L -236.9949951171875 -59.00199890136719 L -236.9980010986328 -59.00199890136719 L -237.00100708007812 -59.00199890136719 L -239.9980010986328 -59.00199890136719 L -239.9980010986328 -62.00199890136719 L -237.00100708007812 -62.00199890136719 L -236.9980010986328 -62.00199890136719 L -236.99600219726562 -62.00199890136719 L -236.99600219726562 -65.00199890136719 L -236.9980010986328 -65.00199890136719 L -237.00100708007812 -65.00199890136719 L -239.9980010986328 -65.00199890136719 L -239.9980010986328 -68.00199890136719 L -237.00100708007812 -68.00199890136719 L -236.9980010986328 -68.00199890136719 L -236.99600219726562 -68.00199890136719 L -236.99600219726562 -71.99800109863281 L -234.00100708007812 -71.99800109863281 L -234 -71.99800109863281 L -234 -75 L -230.99899291992188 -75 L -230.99899291992188 -71.99800109863281 L -227.9980010986328 -71.99800109863281 L -227.9980010986328 -75 L -224.9980010986328 -75 L -224.9980010986328 -71.99800109863281 L -221.9969940185547 -71.99800109863281 L -221.9969940185547 -75 L -218.99600219726562 -75 L -218.99600219726562 -71.99800109863281 L -216.99600219726562 -71.99800109863281 L -215.99600219726562 -71.99800109863281 L -215.99600219726562 -75 L -213.00100708007812 -75 L -213.00100708007812 7.998000144958496 L -215.99600219726562 7.998000144958496 L -215.99600219726562 11.003000259399414 L -213.00100708007812 11.003000259399414 M -228.7519989013672 74.24099731445312 L -227.96600341796875 74.5719985961914 L -227.15699768066406 74.80999755859375 L -226.33099365234375 74.9540023803711 L -225.4980010986328 75.00299835205078 L -224.6649932861328 74.9540023803711 L -223.83900451660156 74.80999755859375 L -223.02999877929688 74.5719985961914 L -222.24400329589844 74.24099731445312 L -221.49000549316406 73.8219985961914 L -221.1840057373047 73.6061782836914 L -220.7740020751953 73.31700134277344 L -220.10400390625 72.73200225830078 L -219.48599243164062 72.072998046875 L -218.9250030517578 71.34600067138672 L -218.42799377441406 70.55799865722656 L -217.99899291992188 69.71600341796875 L -217.64300537109375 68.8290023803711 L -217.36199951171875 67.90499877929688 L -217.15899658203125 66.9530029296875 L -217.03599548339844 65.98200225830078 L -216.99600219726562 65.0009994506836 L -216.99600219726562 36.999000549316406 L -217.03599548339844 36.018001556396484 L -217.15899658203125 35.047000885009766 L -217.36199951171875 34.095001220703125 L -217.64300537109375 33.17100143432617 L -217.99899291992188 32.284000396728516 L -218.42799377441406 31.441999435424805 L -218.9250030517578 30.65399932861328 L -219.48599243164062 29.927000045776367 L -220.10400390625 29.26799964904785 L -220.7740020751953 28.683000564575195 L -221.1840057373047 28.393823623657227 L -221.49000549316406 28.17799949645996 L -222.24400329589844 27.759000778198242 L -223.02999877929688 27.42799949645996 L -223.83900451660156 27.190000534057617 L -224.6649932861328 27.04599952697754 L -225.4980010986328 26.99799919128418 L -226.33099365234375 27.04599952697754 L -227.15699768066406 27.190000534057617 L -227.96600341796875 27.42799949645996 L -228.7519989013672 27.759000778198242 L -229.37600708007812 28.105758666992188 L -229.50599670410156 28.17799949645996 L -230.2220001220703 28.683000564575195 L -230.89199829101562 29.26799964904785 L -231.50999450683594 29.927000045776367 L -232.0709991455078 30.65399932861328 L -232.5679931640625 31.441999435424805 L -232.9969940185547 32.284000396728516 L -233.35299682617188 33.17100143432617 L -233.63400268554688 34.095001220703125 L -233.83700561523438 35.047000885009766 L -233.9600067138672 36.018001556396484 L -234.00100708007812 36.999000549316406 L -234.00100708007812 37.000999450683594 L -234.00100708007812 40.000999450683594 L -234.00100708007812 43.000999450683594 L -234.00100708007812 46.000999450683594 L -234.00100708007812 49.000999450683594 L -234.00100708007812 52.000999450683594 L -234.00100708007812 55.000999450683594 L -234.00100708007812 58.00199890136719 L -234.00100708007812 61.00199890136719 L -234.00100708007812 64.00199890136719 L -234.00100708007812 65.0009994506836 L -233.9600067138672 65.98200225830078 L -233.83700561523438 66.9530029296875 L -233.63400268554688 67.90499877929688 L -233.35299682617188 68.8290023803711 L -232.9969940185547 69.71600341796875 L -232.5679931640625 70.55799865722656 L -232.0709991455078 71.34600067138672 L -231.50999450683594 72.072998046875 L -230.89199829101562 72.73200225830078 L -230.2220001220703 73.31700134277344 L -229.50599670410156 73.8219985961914 L -229.37600708007812 73.89424133300781 L -228.7519989013672 74.24099731445312 M -228.7519989013672 -8.758999824523926 L -227.96600341796875 -8.428000450134277 L -227.15699768066406 -8.1899995803833 L -226.33099365234375 -8.045999526977539 L -225.4980010986328 -7.997000217437744 L -224.6649932861328 -8.045999526977539 L -223.83900451660156 -8.1899995803833 L -223.02999877929688 -8.428000450134277 L -222.24400329589844 -8.758999824523926 L -221.49000549316406 -9.178000450134277 L -221.1840057373047 -9.393823623657227 L -220.7740020751953 -9.682999610900879 L -220.10400390625 -10.267999649047852 L -219.48599243164062 -10.927000045776367 L -218.9250030517578 -11.654000282287598 L -218.42799377441406 -12.442000389099121 L -217.99899291992188 -13.284000396728516 L -217.64300537109375 -14.170999526977539 L -217.36199951171875 -15.095000267028809 L -217.15899658203125 -16.047000885009766 L -217.03599548339844 -17.01799964904785 L -216.99600219726562 -17.999000549316406 L -216.99600219726562 -46.000999450683594 L -217.03599548339844 -46.981998443603516 L -217.15899658203125 -47.952999114990234 L -217.36199951171875 -48.904998779296875 L -217.64300537109375 -49.82899856567383 L -217.99899291992188 -50.715999603271484 L -218.42799377441406 -51.55799865722656 L -218.9250030517578 -52.34600067138672 L -219.48599243164062 -53.073001861572266 L -220.10400390625 -53.731998443603516 L -220.7740020751953 -54.31700134277344 L -221.1840057373047 -54.60617446899414 L -221.49000549316406 -54.821998596191406 L -222.24400329589844 -55.24100112915039 L -223.02999877929688 -55.571998596191406 L -223.83900451660156 -55.810001373291016 L -224.6649932861328 -55.95399856567383 L -225.4980010986328 -56.00299835205078 L -226.33099365234375 -55.95399856567383 L -227.15699768066406 -55.810001373291016 L -227.96600341796875 -55.571998596191406 L -228.7519989013672 -55.24100112915039 L -229.37600708007812 -54.89424133300781 L -229.50599670410156 -54.821998596191406 L -230.2220001220703 -54.31700134277344 L -230.89199829101562 -53.731998443603516 L -231.50999450683594 -53.073001861572266 L -232.0709991455078 -52.34600067138672 L -232.5679931640625 -51.55799865722656 L -232.9969940185547 -50.715999603271484 L -233.35299682617188 -49.82899856567383 L -233.63400268554688 -48.904998779296875 L -233.83700561523438 -47.952999114990234 L -233.9600067138672 -46.981998443603516 L -234.00100708007812 -46.000999450683594 L -234.00100708007812 -44.00199890136719 L -234.00100708007812 -41.000999450683594 L -234.00100708007812 -38.000999450683594 L -234.00100708007812 -35.000999450683594 L -234.00100708007812 -32.000999450683594 L -234.00100708007812 -29.000999450683594 L -234.00100708007812 -26.000999450683594 L -234.00100708007812 -23.000999450683594 L -234.00100708007812 -20.000999450683594 L -234.00100708007812 -17.999000549316406 L -233.9600067138672 -17.01799964904785 L -233.83700561523438 -16.047000885009766 L -233.63400268554688 -15.095000267028809 L -233.35299682617188 -14.170999526977539 L -232.9969940185547 -13.284000396728516 L -232.5679931640625 -12.442000389099121 L -232.0709991455078 -11.654000282287598 L -231.50999450683594 -10.927000045776367 L -230.89199829101562 -10.267999649047852 L -230.2220001220703 -9.682999610900879 L -229.50599670410156 -9.178000450134277 L -229.37600708007812 -9.105758666992188 L -228.7519989013672 -8.758999824523926 M -231 7.998000144958496 L -234.00100708007812 7.998000144958496 L -234.00100708007812 10 L -234.00100708007812 11.003000259399414 L -231 11.003000259399414 L -231 7.998000144958496 M -224.9980010986328 11.003000259399414 L -224.9980010986328 7.998000144958496 L -227.99899291992188 7.998000144958496 L -227.99899291992188 11.003000259399414 L -224.9980010986328 11.003000259399414 M -218.9969940185547 11.003000259399414 L -218.9969940185547 7.998000144958496 L -221.9980010986328 7.998000144958496 L -221.9980010986328 11.003000259399414 L -218.9969940185547 11.003000259399414 z" fill="none" stroke="rgb(255,0,0)" stroke-width="0.001mm" />
</svg>