<?xml version="1.0" standalone="no"?>
<!DOCTYPE svg PUBLIC "-//W3C//DTD SVG 1.1//EN"
  "http://www.w3.org/Graphics/SVG/1.1/DTD/svg11.dtd">
<svg width="37mm" height="292mm" viewBox="-283 -207 37 292" xmlns="http://www.w3.org/2000/svg" version="1.1">
	<title>svgOutput</title>
	<desc>made with tinkercad</desc>
<path d="M -247 -8.99899959564209 L -250.0030059814453 -8.99899959564209 L -250.0030059814453 -5.999000072479248 L -247 -5.999000072479248 L -247 -2.999000072479248 L -250.0030059814453 -2.999000072479248 L -250.0030059814453 -2.003000020980835 L -252.9980010986328 -2.003000020980835 L -252.9980010986328 0.0010000000474975623 L -252.9980010986328 1.003000020980835 L -249.9980010986328 1.003000020980835 L -249.9980010986328 0.0010000000474975623 L -247 0.0010000000474975623 L -247 1.003000020980835 L -247 3.000999927520752 L -250.0030059814453 3.000999927520752 L -250.0030059814453 6.000999927520752 L -247 6.000999927520752 L -247 9.00100040435791 L -250.0030059814453 9.00100040435791 L -250.0030059814453 12.00100040435791 L -247 12.00100040435791 L -247 15.00100040435791 L -250.0030059814453 15.00100040435791 L -250.0030059814453 18.000999450683594 L -247 18.000999450683594 L -247 21.000999450683594 L -250.0030059814453 21.000999450683594 L -250.0030059814453 21.00200080871582 L -250.0030059814453 24.00200080871582 L -247 24.00200080871582 L -247 27.00200080871582 L -250.0030059814453 27.00200080871582 L -250.0030059814453 30.00200080871582 L -247 30.00200080871582 L -247 33.00199890136719 L -250.0030059814453 33.00199890136719 L -250.0030059814453 36.00199890136719 L -247 36.00199890136719 L -247 39.00199890136719 L -250.0030059814453 39.00199890136719 L -250.0030059814453 42.00199890136719 L -247 42.00199890136719 L -247 45.00199890136719 L -250.0030059814453 45.00199890136719 L -250.0030059814453 48.00199890136719 L -247 48.00199890136719 L -247 51.00199890136719 L -250.0030059814453 51.00199890136719 L -250.0030059814453 54.00199890136719 L -247 54.00199890136719 L -247 57.00199890136719 L -250.0030059814453 57.00199890136719 L -250.0030059814453 60.00199890136719 L -247 60.00199890136719 L -247 61.00299835205078 L -247 63.00199890136719 L -250.0030059814453 63.00199890136719 L -250.0030059814453 66.00199890136719 L -247 66.00199890136719 L -247 69.00199890136719 L -250.0030059814453 69.00199890136719 L -250.0030059814453 72.00199890136719 L -247 72.00199890136719 L -247 75.00199890136719 L -250.0030059814453 75.00199890136719 L -250.0030059814453 78.00199890136719 L -247 78.00199890136719 L -247 78.00299835205078 L -247 80.99800109863281 L -247 84 L -252.9980010986328 84 L -252.9980010986328 80.99800109863281 L -255.9980010986328 80.99800109863281 L -255.9980010986328 84 L -258.9989929199219 84 L -258.9989929199219 80.99800109863281 L -262 80.99800109863281 L -262 84 L -265 84 L -265 80.99800109863281 L -268.0010070800781 80.99800109863281 L -268.0010070800781 84 L -271.00201416015625 84 L -271.00201416015625 80.99800109863281 L -274.00299072265625 80.99800109863281 L -274.00299072265625 84 L -282 84 L -282 80.99800109863281 L -282 78.00299835205078 L -282 75.00199890136719 L -282 72.00199890136719 L -282 69.00199890136719 L -282 66.00199890136719 L -282 63.00199890136719 L -282 61.00299835205078 L -278.99798583984375 61.00299835205078 L -278.99798583984375 60.00199890136719 L -278.99798583984375 57.00199890136719 L -278.99798583984375 54.00199890136719 L -278.99798583984375 51.00199890136719 L -278.99798583984375 48.00199890136719 L -278.99798583984375 45.00199890136719 L -278.99798583984375 42.00199890136719 L -278.99798583984375 39.00199890136719 L -278.99798583984375 36.00199890136719 L -278.99798583984375 33.00199890136719 L -278.99798583984375 30.00200080871582 L -278.99798583984375 27.00200080871582 L -278.99798583984375 24.00200080871582 L -278.99798583984375 21.00200080871582 L -278.99798583984375 21.000999450683594 L -278.99798583984375 18.000999450683594 L -278.99798583984375 15.00100040435791 L -278.99798583984375 12.00100040435791 L -278.99798583984375 9.00100040435791 L -278.99798583984375 6.000999927520752 L -278.99798583984375 3.000999927520752 L -278.99798583984375 1.003000020980835 L -278.99798583984375 0.0010000000474975623 L -278.99798583984375 -2.999000072479248 L -278.99798583984375 -5.999000072479248 L -278.99798583984375 -8.99899959564209 L -278.99798583984375 -11.99899959564209 L -278.99798583984375 -14.99899959564209 L -278.99798583984375 -17.999000549316406 L -278.99798583984375 -20.999000549316406 L -278.99798583984375 -23.999000549316406 L -278.99798583984375 -26.999000549316406 L -278.99798583984375 -29.999000549316406 L -278.99798583984375 -32.999000549316406 L -278.99798583984375 -36 L -278.99798583984375 -39 L -278.99798583984375 -42 L -278.99798583984375 -45 L -278.99798583984375 -48 L -278.99798583984375 -51 L -278.99798583984375 -54 L -278.99798583984375 -54.00299835205078 L -282 -54.00299835205078 L -282 -57 L -282 -60 L -282 -63 L -282 -66 L -282 -69 L -282 -70.99800109863281 L -278.99798583984375 -70.99800109863281 L -278.99798583984375 -72 L -278.99798583984375 -75 L -278.99798583984375 -78 L -278.99798583984375 -81 L -278.99798583984375 -81.99800109863281 L -278.99798583984375 -84 L -278.99798583984375 -87 L -278.99798583984375 -90 L -278.99798583984375 -93.0009994506836 L -278.99798583984375 -96.0009994506836 L -278.99798583984375 -99.0009994506836 L -278.99798583984375 -102.0009994506836 L -278.99798583984375 -105.0009994506836 L -278.99798583984375 -108.0009994506836 L -278.99798583984375 -111.0009994506836 L -278.99798583984375 -114.0009994506836 L -278.99798583984375 -117.0009994506836 L -278.99798583984375 -120.0009994506836 L -278.99798583984375 -123.0009994506836 L -278.99798583984375 -126.0009994506836 L -278.99798583984375 -129.00100708007812 L -278.99798583984375 -132.00100708007812 L -278.99798583984375 -135.00100708007812 L -278.99798583984375 -138.00100708007812 L -278.99798583984375 -141.00100708007812 L -278.99798583984375 -144.00100708007812 L -278.99798583984375 -147.00100708007812 L -278.99798583984375 -147.0019989013672 L -278.99798583984375 -150.0019989013672 L -278.99798583984375 -153.0019989013672 L -278.99798583984375 -156.0019989013672 L -278.99798583984375 -159.0019989013672 L -278.99798583984375 -162.0019989013672 L -278.99798583984375 -165.0019989013672 L -278.99798583984375 -168.0019989013672 L -278.99798583984375 -171.0019989013672 L -278.99798583984375 -174.0019989013672 L -278.99798583984375 -177.0019989013672 L -278.99798583984375 -180.0019989013672 L -278.99798583984375 -183.0019989013672 L -278.99798583984375 -186.0019989013672 L -278.99798583984375 -186.0030059814453 L -282 -186.0030059814453 L -282 -189.0019989013672 L -282 -192.0019989013672 L -282 -195.0019989013672 L -282 -198.0019989013672 L -282 -206 L -277.00299072265625 -206 L -277.00299072265625 -198.0019989013672 L -274.00299072265625 -198.0019989013672 L -273.99798583984375 -198.0019989013672 L -273.99798583984375 -202.697998046875 L -271.00201416015625 -202.697998046875 L -271.00201416015625 -206 L -268.0010070800781 -206 L -268.0010070800781 -202.697998046875 L -265 -202.697998046875 L -265 -206 L -262 -206 L -262 -202.697998046875 L -258.9989929199219 -202.697998046875 L -258.9989929199219 -206 L -255.9980010986328 -206 L -255.9980010986328 -202.697998046875 L -252.9980010986328 -202.697998046875 L -252.9980010986328 -206 L -250.0030059814453 -206 L -250.0030059814453 -201.0030059814453 L -250.0030059814453 -198.0019989013672 L -247 -198.0019989013672 L -247 -195.0019989013672 L -250.0030059814453 -195.0019989013672 L -250.0030059814453 -192.0019989013672 L -247 -192.0019989013672 L -247 -189.0019989013672 L -250.0030059814453 -189.0019989013672 L -250.0030059814453 -186.0030059814453 L -250.0030059814453 -186.0019989013672 L -247 -186.0019989013672 L -247 -183.0019989013672 L -250.0030059814453 -183.0019989013672 L -250.0030059814453 -180.0019989013672 L -247 -180.0019989013672 L -247 -177.0019989013672 L -250.0030059814453 -177.0019989013672 L -250.0030059814453 -174.0019989013672 L -247 -174.0019989013672 L -247 -171.0019989013672 L -250.0030059814453 -171.0019989013672 L -250.0030059814453 -168.0019989013672 L -247 -168.0019989013672 L -247 -165.0019989013672 L -250.0030059814453 -165.0019989013672 L -250.0030059814453 -162.0019989013672 L -247 -162.0019989013672 L -247 -159.0019989013672 L -250.0030059814453 -159.0019989013672 L -250.0030059814453 -156.0019989013672 L -247 -156.0019989013672 L -247 -153.0019989013672 L -250.0030059814453 -153.0019989013672 L -250.0030059814453 -150.0019989013672 L -247 -150.0019989013672 L -247 -147.0019989013672 L -250.0030059814453 -147.0019989013672 L -250.0030059814453 -147.00100708007812 L -250.0030059814453 -144.00100708007812 L -247 -144.00100708007812 L -247 -141.00100708007812 L -250.0030059814453 -141.00100708007812 L -250.0030059814453 -138.00100708007812 L -247 -138.00100708007812 L -247 -135.00100708007812 L -250.0030059814453 -135.00100708007812 L -250.0030059814453 -132.00100708007812 L -247 -132.00100708007812 L -247 -129.00100708007812 L -250.0030059814453 -129.00100708007812 L -250.0030059814453 -126.0009994506836 L -247 -126.0009994506836 L -247 -123.0009994506836 L -250.0030059814453 -123.0009994506836 L -250.0030059814453 -120.0009994506836 L -247 -120.0009994506836 L -247 -117.0009994506836 L -250.0030059814453 -117.0009994506836 L -250.0030059814453 -114.0009994506836 L -247 -114.0009994506836 L -247 -111.0009994506836 L -250.0030059814453 -111.0009994506836 L -250.0030059814453 -108.0009994506836 L -247 -108.0009994506836 L -247 -105.0009994506836 L -250.0030059814453 -105.0009994506836 L -250.0030059814453 -102.0009994506836 L -247 -102.0009994506836 L -247 -99.0009994506836 L -250.0030059814453 -99.0009994506836 L -250.0030059814453 -96.0009994506836 L -247 -96.0009994506836 L -247 -93.0009994506836 L -250.0030059814453 -93.0009994506836 L -250.0030059814453 -90.0009994506836 L -247 -90.0009994506836 L -247 -90 L -247 -87 L -250.0030059814453 -87 L -250.0030059814453 -85.00299835205078 L -252.9980010986328 -85.00299835205078 L -252.9980010986328 -84 L -252.9980010986328 -81.99800109863281 L -249.9980010986328 -81.99800109863281 L -249.9980010986328 -84 L -247 -84 L -247 -81.99800109863281 L -247 -81 L -250.0030059814453 -81 L -250.0030059814453 -78 L -247 -78 L -247 -75 L -250.0030059814453 -75 L -250.0030059814453 -72 L -247 -72 L -247 -70.99800109863281 L -247 -69 L -250.0030059814453 -69 L -250.0030059814453 -66 L -247 -66 L -247 -63 L -250.0030059814453 -63 L -250.0030059814453 -60 L -247 -60 L -247 -57 L -250.0030059814453 -57 L -250.0030059814453 -54.00299835205078 L -250.0030059814453 -54 L -247 -54 L -247 -51 L -250.0030059814453 -51 L -250.0030059814453 -48 L -247 -48 L -247 -45 L -250.0030059814453 -45 L -250.0030059814453 -42 L -247 -42 L -247 -39 L -250.0030059814453 -39 L -250.0030059814453 -36 L -247 -36 L -247 -32.999000549316406 L -250.0030059814453 -32.999000549316406 L -250.0030059814453 -29.999000549316406 L -247 -29.999000549316406 L -247 -26.999000549316406 L -250.0030059814453 -26.999000549316406 L -250.0030059814453 -23.999000549316406 L -247 -23.999000549316406 L -247 -20.999000549316406 L -250.0030059814453 -20.999000549316406 L -250.0030059814453 -17.999000549316406 L -247 -17.999000549316406 L -247 -14.99899959564209 L -250.0030059814453 -14.99899959564209 L -250.0030059814453 -11.99899959564209 L -247 -11.99899959564209 L -247 -8.99899959564209 M -268.00201416015625 -84 L -268.00201416015625 -85.00299835205078 L -271.00299072265625 -85.00299835205078 L -271.00299072265625 -84 L -271.00299072265625 -81.99800109863281 L -268.00201416015625 -81.99800109863281 L -268.00201416015625 -84 M -273.99798583984375 -96.0009994506836 L -273.99798583984375 -99.0009994506836 L -277.00299072265625 -99.0009994506836 L -277.00299072265625 -96.0009994506836 L -273.99798583984375 -96.0009994506836 M -277.00299072265625 -105.0009994506836 L -277.00299072265625 -102.0009994506836 L -273.99798583984375 -102.0009994506836 L -273.99798583984375 -105.0009994506836 L -277.00299072265625 -105.0009994506836 M -273.99798583984375 -90 L -273.99798583984375 -90.0009994506836 L -273.99798583984375 -93.0009994506836 L -277.00299072265625 -93.0009994506836 L -277.00299072265625 -90 L -273.99798583984375 -90 M -277.00299072265625 -111.0009994506836 L -277.00299072265625 -108.0009994506836 L -273.99798583984375 -108.0009994506836 L -273.99798583984375 -111.0009994506836 L -277.00299072265625 -111.0009994506836 M -255.99899291992188 -81.99800109863281 L -255.99899291992188 -84 L -255.99899291992188 -85.00299835205078 L -259 -85.00299835205078 L -259 -84 L -259 -81.99800109863281 L -255.99899291992188 -81.99800109863281 M -277.00299072265625 -81 L -277.00299072265625 -78 L -273.99798583984375 -78 L -273.99798583984375 -81 L -277.00299072265625 -81 M -273.99798583984375 -72 L -273.99798583984375 -75 L -277.00299072265625 -75 L -277.00299072265625 -72 L -273.99798583984375 -72 M -277.00299072265625 -84 L -277.00299072265625 -81.99800109863281 L -273.99798583984375 -81.99800109863281 L -273.99798583984375 -84 L -273.99798583984375 -85.00299835205078 L -273.99798583984375 -87 L -277.00299072265625 -87 L -277.00299072265625 -84 M -273.99798583984375 -54.00299835205078 L -273.99798583984375 -57 L -277.00299072265625 -57 L -277.00299072265625 -54.00299835205078 L -277.00299072265625 -54 L -273.99798583984375 -54 L -273.99798583984375 -54.00299835205078 M -273.99798583984375 -48 L -273.99798583984375 -51 L -277.00299072265625 -51 L -277.00299072265625 -48 L -273.99798583984375 -48 M -265.0010070800781 -84 L -265.0010070800781 -81.99800109863281 L -262 -81.99800109863281 L -262 -84 L -262 -85.00299835205078 L -265.0010070800781 -85.00299835205078 L -265.0010070800781 -84 M -277.00299072265625 -141.00100708007812 L -277.00299072265625 -138.00100708007812 L -273.99798583984375 -138.00100708007812 L -273.99798583984375 -141.00100708007812 L -277.00299072265625 -141.00100708007812 M -273.99798583984375 -132.00100708007812 L -273.99798583984375 -135.00100708007812 L -277.00299072265625 -135.00100708007812 L -277.00299072265625 -132.00100708007812 L -273.99798583984375 -132.00100708007812 M -277.00299072265625 -147.00100708007812 L -277.00299072265625 -144.00100708007812 L -273.99798583984375 -144.00100708007812 L -273.99798583984375 -147.00100708007812 L -277.00299072265625 -147.00100708007812 M -273.99798583984375 -126.0009994506836 L -273.99798583984375 -129.00100708007812 L -277.00299072265625 -129.00100708007812 L -277.00299072265625 -126.0009994506836 L -273.99798583984375 -126.0009994506836 M -277.00299072265625 -153.0019989013672 L -277.00299072265625 -150.0019989013672 L -273.99798583984375 -150.0019989013672 L -273.99798583984375 -153.0019989013672 L -277.00299072265625 -153.0019989013672 M -273.99798583984375 -120.0009994506836 L -273.99798583984375 -123.0009994506836 L -277.00299072265625 -123.0009994506836 L -277.00299072265625 -120.0009994506836 L -273.99798583984375 -120.0009994506836 M -277.00299072265625 -159.0019989013672 L -277.00299072265625 -156.0019989013672 L -273.99798583984375 -156.0019989013672 L -273.99798583984375 -159.0019989013672 L -277.00299072265625 -159.0019989013672 M -273.99798583984375 -114.0009994506836 L -273.99798583984375 -117.0009994506836 L -277.00299072265625 -117.0009994506836 L -277.00299072265625 -114.0009994506836 L -273.99798583984375 -114.0009994506836 M -277.00299072265625 -165.0019989013672 L -277.00299072265625 -162.0019989013672 L -273.99798583984375 -162.0019989013672 L -273.99798583984375 -165.0019989013672 L -277.00299072265625 -165.0019989013672 M -273.99798583984375 -42 L -273.99798583984375 -45 L -277.00299072265625 -45 L -277.00299072265625 -42 L -273.99798583984375 -42 M -277.00299072265625 -171.0019989013672 L -277.00299072265625 -168.0019989013672 L -273.99798583984375 -168.0019989013672 L -273.99798583984375 -171.0019989013672 L -277.00299072265625 -171.0019989013672 M -273.99798583984375 -36 L -273.99798583984375 -39 L -277.00299072265625 -39 L -277.00299072265625 -36 L -273.99798583984375 -36 M -277.00299072265625 -177.0019989013672 L -277.00299072265625 -174.0019989013672 L -273.99798583984375 -174.0019989013672 L -273.99798583984375 -177.0019989013672 L -277.00299072265625 -177.0019989013672 M -273.99798583984375 -29.999000549316406 L -273.99798583984375 -32.999000549316406 L -277.00299072265625 -32.999000549316406 L -277.00299072265625 -29.999000549316406 L -273.99798583984375 -29.999000549316406 M -277.00299072265625 -183.0019989013672 L -277.00299072265625 -180.0019989013672 L -273.99798583984375 -180.0019989013672 L -273.99798583984375 -183.0019989013672 L -277.00299072265625 -183.0019989013672 M -273.99798583984375 -23.999000549316406 L -273.99798583984375 -26.999000549316406 L -277.00299072265625 -26.999000549316406 L -277.00299072265625 -23.999000549316406 L -273.99798583984375 -23.999000549316406 M -262 0.0010000000474975623 L -262 -2.003000020980835 L -265.0010070800781 -2.003000020980835 L -265.0010070800781 0.0010000000474975623 L -265.0010070800781 1.003000020980835 L -262 1.003000020980835 L -262 0.0010000000474975623 M -255.99899291992188 0.0010000000474975623 L -255.99899291992188 -2.003000020980835 L -259 -2.003000020980835 L -259 0.0010000000474975623 L -259 1.003000020980835 L -255.99899291992188 1.003000020980835 L -255.99899291992188 0.0010000000474975623 M -268.00201416015625 1.003000020980835 L -268.00201416015625 0.0010000000474975623 L -268.00201416015625 -2.003000020980835 L -271.00299072265625 -2.003000020980835 L -271.00299072265625 0.0010000000474975623 L -271.00299072265625 1.003000020980835 L -268.00201416015625 1.003000020980835 M -273.99798583984375 -192.0019989013672 L -273.99798583984375 -195.0019989013672 L -274.00299072265625 -195.0019989013672 L -277.00299072265625 -195.0019989013672 L -277.00299072265625 -192.0019989013672 L -274.00299072265625 -192.0019989013672 L -273.99798583984375 -192.0019989013672 M -273.99798583984375 0.0010000000474975623 L -273.99798583984375 -2.003000020980835 L -273.99798583984375 -2.999000072479248 L -277.00299072265625 -2.999000072479248 L -277.00299072265625 0.0010000000474975623 L -273.99798583984375 0.0010000000474975623 M -274.00299072265625 -189.0019989013672 L -277.00299072265625 -189.0019989013672 L -277.00299072265625 -186.0030059814453 L -277.00299072265625 -186.0019989013672 L -273.99798583984375 -186.0019989013672 L -273.99798583984375 -186.0030059814453 L -273.99798583984375 -189.0019989013672 L -274.00299072265625 -189.0019989013672 M -277.00299072265625 3.000999927520752 L -277.00299072265625 6.000999927520752 L -273.99798583984375 6.000999927520752 L -273.99798583984375 3.000999927520752 L -277.00299072265625 3.000999927520752 M -273.99798583984375 12.00100040435791 L -273.99798583984375 9.00100040435791 L -277.00299072265625 9.00100040435791 L -277.00299072265625 12.00100040435791 L -273.99798583984375 12.00100040435791 M -277.00299072265625 -8.99899959564209 L -277.00299072265625 -5.999000072479248 L -273.99798583984375 -5.999000072479248 L -273.99798583984375 -8.99899959564209 L -277.00299072265625 -8.99899959564209 M -273.99798583984375 18.000999450683594 L -273.99798583984375 15.00100040435791 L -277.00299072265625 15.00100040435791 L -277.00299072265625 18.000999450683594 L -273.99798583984375 18.000999450683594 M -277.00299072265625 -14.99899959564209 L -277.00299072265625 -11.99899959564209 L -273.99798583984375 -11.99899959564209 L -273.99798583984375 -14.99899959564209 L -277.00299072265625 -14.99899959564209 M -273.99798583984375 24.00200080871582 L -273.99798583984375 21.00200080871582 L -277.00299072265625 21.00200080871582 L -277.00299072265625 24.00200080871582 L -273.99798583984375 24.00200080871582 M -277.00299072265625 -20.999000549316406 L -277.00299072265625 -17.999000549316406 L -273.99798583984375 -17.999000549316406 L -273.99798583984375 -20.999000549316406 L -277.00299072265625 -20.999000549316406 M -273.99798583984375 30.00200080871582 L -273.99798583984375 27.00200080871582 L -277.00299072265625 27.00200080871582 L -277.00299072265625 30.00200080871582 L -273.99798583984375 30.00200080871582 M -277.00299072265625 63.00199890136719 L -277.00299072265625 66.00199890136719 L -273.99798583984375 66.00199890136719 L -273.99798583984375 63.00199890136719 L -277.00299072265625 63.00199890136719 M -273.99798583984375 36.00199890136719 L -273.99798583984375 33.00199890136719 L -277.00299072265625 33.00199890136719 L -277.00299072265625 36.00199890136719 L -273.99798583984375 36.00199890136719 M -277.00299072265625 69.00199890136719 L -277.00299072265625 72.00199890136719 L -273.99798583984375 72.00199890136719 L -273.99798583984375 69.00199890136719 L -277.00299072265625 69.00199890136719 M -273.99798583984375 42.00199890136719 L -273.99798583984375 39.00199890136719 L -277.00299072265625 39.00199890136719 L -277.00299072265625 42.00199890136719 L -273.99798583984375 42.00199890136719 M -273.99798583984375 78.00199890136719 L -273.99798583984375 75.00199890136719 L -277.00299072265625 75.00199890136719 L -277.00299072265625 78.00299835205078 L -273.99798583984375 78.00299835205078 L -273.99798583984375 78.00199890136719 M -273.99798583984375 48.00199890136719 L -273.99798583984375 45.00199890136719 L -277.00299072265625 45.00199890136719 L -277.00299072265625 48.00199890136719 L -273.99798583984375 48.00199890136719 M -277.00299072265625 57.00199890136719 L -277.00299072265625 60.00199890136719 L -273.99798583984375 60.00199890136719 L -273.99798583984375 57.00199890136719 L -277.00299072265625 57.00199890136719 M -277.00299072265625 -63 L -277.00299072265625 -60 L -273.99798583984375 -60 L -273.99798583984375 -63 L -277.00299072265625 -63 M -277.00299072265625 51.00199890136719 L -277.00299072265625 54.00199890136719 L -273.99798583984375 54.00199890136719 L -273.99798583984375 51.00199890136719 L -277.00299072265625 51.00199890136719 M -277.00299072265625 -69 L -277.00299072265625 -66 L -273.99798583984375 -66 L -273.99798583984375 -69 L -277.00299072265625 -69 z" fill="none" stroke="rgb(255,0,0)" stroke-width="0.001mm" />
</svg>