<?xml version="1.0" standalone="no"?>
<!DOCTYPE svg PUBLIC "-//W3C//DTD SVG 1.1//EN"
  "http://www.w3.org/Graphics/SVG/1.1/DTD/svg11.dtd">
<svg width="285mm" height="37mm" viewBox="-163 162 285 37" xmlns="http://www.w3.org/2000/svg" version="1.1">
	<title>svgOutput</title>
	<desc>made with tinkercad</desc>
<path d="M -12 163 L -12 166.0030059814453 L -9 166.0030059814453 L -9 163 L -6 163 L -6 166.0030059814453 L -3 166.0030059814453 L -3 163 L 0 163 L 0 166.0030059814453 L 3 166.0030059814453 L 3 163 L 6.000999927520752 163 L 6.000999927520752 166.0030059814453 L 9.00100040435791 166.0030059814453 L 9.00100040435791 163 L 12.00100040435791 163 L 12.00100040435791 166.0030059814453 L 15.00100040435791 166.0030059814453 L 15.00100040435791 163 L 18.000999450683594 163 L 18.000999450683594 166.0030059814453 L 21.000999450683594 166.0030059814453 L 21.000999450683594 163 L 24.000999450683594 163 L 24.000999450683594 166.0030059814453 L 27.000999450683594 166.0030059814453 L 27.000999450683594 163 L 30.000999450683594 163 L 30.000999450683594 166.0030059814453 L 33.000999450683594 166.0030059814453 L 33.000999450683594 163 L 36.000999450683594 163 L 36.000999450683594 166.0030059814453 L 39.000999450683594 166.0030059814453 L 39.000999450683594 163 L 42.000999450683594 163 L 42.000999450683594 166.0030059814453 L 45.000999450683594 166.0030059814453 L 45.000999450683594 163 L 48.000999450683594 163 L 48.000999450683594 166.0030059814453 L 51.000999450683594 166.0030059814453 L 51.000999450683594 163 L 54.000999450683594 163 L 54.000999450683594 166.0030059814453 L 57.000999450683594 166.0030059814453 L 57.000999450683594 163 L 60.000999450683594 163 L 60.000999450683594 166.0030059814453 L 63.00199890136719 166.0030059814453 L 63.00199890136719 163 L 66.00199890136719 163 L 66.00199890136719 166.0030059814453 L 69.00199890136719 166.0030059814453 L 69.00199890136719 163 L 72.00199890136719 163 L 72.00199890136719 166.0030059814453 L 75.00199890136719 166.0030059814453 L 75.00199890136719 163 L 78.00199890136719 163 L 78.00199890136719 166.0030059814453 L 81.00199890136719 166.0030059814453 L 81.00199890136719 163 L 84.00199890136719 163 L 84.00199890136719 166.0030059814453 L 87.00199890136719 166.0030059814453 L 87.00199890136719 163 L 90.00199890136719 163 L 90.00199890136719 166.0030059814453 L 93.00199890136719 166.0030059814453 L 93.00199890136719 163 L 96.00199890136719 163 L 96.00199890136719 166.0030059814453 L 99.00199890136719 166.0030059814453 L 99.00199890136719 163 L 99.00299835205078 163 L 102.00199890136719 163 L 102.00199890136719 166.0030059814453 L 105.00199890136719 166.0030059814453 L 105.00199890136719 163 L 108.00199890136719 163 L 108.00199890136719 166.0030059814453 L 111.00199890136719 166.0030059814453 L 111.00199890136719 163 L 114.00199890136719 163 L 114.00199890136719 166.0030059814453 L 117.00199890136719 166.0030059814453 L 117.00199890136719 163 L 117.99700164794922 163 L 117.99700164794922 166.0030059814453 L 117.99800109863281 166.0030059814453 L 117.99800109863281 168.9980010986328 L 121 168.9980010986328 L 121 171.99899291992188 L 117.99800109863281 171.99899291992188 L 117.99800109863281 175 L 121 175 L 121 178 L 117.99800109863281 178 L 117.99800109863281 181.00100708007812 L 121 181.00100708007812 L 121 184.0019989013672 L 117.99800109863281 184.0019989013672 L 117.99800109863281 187.0030059814453 L 121 187.0030059814453 L 121 189.9980010986328 L 117.99800109863281 189.9980010986328 L 117.99800109863281 198 L 117.00199890136719 198 L 114.00199890136719 198 L 111.00199890136719 198 L 108.00199890136719 198 L 105.00199890136719 198 L 102.00199890136719 198 L 99.00299835205078 198 L 99.00299835205078 194.9980010986328 L 99.00199890136719 194.9980010986328 L 96.00199890136719 194.9980010986328 L 93.00199890136719 194.9980010986328 L 90.00199890136719 194.9980010986328 L 87.00199890136719 194.9980010986328 L 84.00199890136719 194.9980010986328 L 81.00199890136719 194.9980010986328 L 78.00199890136719 194.9980010986328 L 75.00199890136719 194.9980010986328 L 72.00199890136719 194.9980010986328 L 69.00199890136719 194.9980010986328 L 66.00199890136719 194.9980010986328 L 63.00199890136719 194.9980010986328 L 60.000999450683594 194.9980010986328 L 57.000999450683594 194.9980010986328 L 54.000999450683594 194.9980010986328 L 51.000999450683594 194.9980010986328 L 48.000999450683594 194.9980010986328 L 45.000999450683594 194.9980010986328 L 42.000999450683594 194.9980010986328 L 39.000999450683594 194.9980010986328 L 36.000999450683594 194.9980010986328 L 33.000999450683594 194.9980010986328 L 30.000999450683594 194.9980010986328 L 27.000999450683594 194.9980010986328 L 24.000999450683594 194.9980010986328 L 21.000999450683594 194.9980010986328 L 18.000999450683594 194.9980010986328 L 15.00100040435791 194.9980010986328 L 12.00100040435791 194.9980010986328 L 9.00100040435791 194.9980010986328 L 6.000999927520752 194.9980010986328 L 3 194.9980010986328 L 0 194.9980010986328 L -3 194.9980010986328 L -6 194.9980010986328 L -9 194.9980010986328 L -12 194.9980010986328 L -15 194.9980010986328 L -16.003000259399414 194.9980010986328 L -16.003000259399414 198 L -18 198 L -21 198 L -24 198 L -27 198 L -30 198 L -32.99700164794922 198 L -32.99700164794922 194.9980010986328 L -33 194.9980010986328 L -36 194.9980010986328 L -38.99800109863281 194.9980010986328 L -39 194.9980010986328 L -42 194.9980010986328 L -42.00299835205078 194.9980010986328 L -45 194.9980010986328 L -48 194.9980010986328 L -51.000999450683594 194.9980010986328 L -54.000999450683594 194.9980010986328 L -57.000999450683594 194.9980010986328 L -60.000999450683594 194.9980010986328 L -63.000999450683594 194.9980010986328 L -66.0009994506836 194.9980010986328 L -69.0009994506836 194.9980010986328 L -72.0009994506836 194.9980010986328 L -75.0009994506836 194.9980010986328 L -78.0009994506836 194.9980010986328 L -81.0009994506836 194.9980010986328 L -84.0009994506836 194.9980010986328 L -87.0009994506836 194.9980010986328 L -90.0009994506836 194.9980010986328 L -93.0009994506836 194.9980010986328 L -96.0009994506836 194.9980010986328 L -99.0009994506836 194.9980010986328 L -102.0009994506836 194.9980010986328 L -105.0009994506836 194.9980010986328 L -108.00199890136719 194.9980010986328 L -111.00199890136719 194.9980010986328 L -114.00199890136719 194.9980010986328 L -117.00199890136719 194.9980010986328 L -120.00199890136719 194.9980010986328 L -123.00199890136719 194.9980010986328 L -126.00199890136719 194.9980010986328 L -129.0019989013672 194.9980010986328 L -132.0019989013672 194.9980010986328 L -135.0019989013672 194.9980010986328 L -138.0019989013672 194.9980010986328 L -141.0019989013672 194.9980010986328 L -144.0019989013672 194.9980010986328 L -147.0019989013672 194.9980010986328 L -148.0030059814453 194.9980010986328 L -148.0030059814453 198 L -150.0019989013672 198 L -153.0019989013672 198 L -156.0019989013672 198 L -158.9980010986328 198 L -158.9980010986328 189.9980010986328 L -159.0019989013672 189.9980010986328 L -162 189.9980010986328 L -162 187.0030059814453 L -159.0019989013672 187.0030059814453 L -158.9980010986328 187.0030059814453 L -158.9969940185547 187.0030059814453 L -158.9969940185547 184.0019989013672 L -159.0019989013672 184.0019989013672 L -162 184.0019989013672 L -162 181.00100708007812 L -159.0019989013672 181.00100708007812 L -158.9969940185547 181.00100708007812 L -158.9969940185547 178 L -159.0019989013672 178 L -162 178 L -162 175 L -159.0019989013672 175 L -158.9969940185547 175 L -158.9969940185547 171.99899291992188 L -159.0019989013672 171.99899291992188 L -162 171.99899291992188 L -162 168.9980010986328 L -159.0019989013672 168.9980010986328 L -158.9969940185547 168.9980010986328 L -158.9969940185547 165.9980010986328 L -159.0019989013672 165.9980010986328 L -159.0019989013672 163 L -156.0019989013672 163 L -156.0019989013672 165.9980010986328 L -156.0019989013672 166.0030059814453 L -153.0019989013672 166.0030059814453 L -153.0019989013672 163 L -150.0019989013672 163 L -150.0019989013672 166.0030059814453 L -148.0030059814453 166.0030059814453 L -147.0019989013672 166.0030059814453 L -147.0019989013672 163 L -144.0019989013672 163 L -144.0019989013672 166.0030059814453 L -141.0019989013672 166.0030059814453 L -141.0019989013672 163 L -138.0019989013672 163 L -138.0019989013672 166.0030059814453 L -135.0019989013672 166.0030059814453 L -135.0019989013672 163 L -132.0019989013672 163 L -132.0019989013672 166.0030059814453 L -129.0019989013672 166.0030059814453 L -129.0019989013672 163 L -126.00199890136719 163 L -126.00199890136719 166.0030059814453 L -123.00199890136719 166.0030059814453 L -123.00199890136719 163 L -120.00199890136719 163 L -120.00199890136719 166.0030059814453 L -117.00199890136719 166.0030059814453 L -117.00199890136719 163 L -114.00199890136719 163 L -114.00199890136719 166.0030059814453 L -111.00199890136719 166.0030059814453 L -111.00199890136719 163 L -108.00199890136719 163 L -108.00199890136719 166.0030059814453 L -105.0009994506836 166.0030059814453 L -105.0009994506836 163 L -102.0009994506836 163 L -102.0009994506836 166.0030059814453 L -99.0009994506836 166.0030059814453 L -99.0009994506836 163 L -96.0009994506836 163 L -96.0009994506836 166.0030059814453 L -93.0009994506836 166.0030059814453 L -93.0009994506836 163 L -90.0009994506836 163 L -90.0009994506836 166.0030059814453 L -87.0009994506836 166.0030059814453 L -87.0009994506836 163 L -84.0009994506836 163 L -84.0009994506836 166.0030059814453 L -81.0009994506836 166.0030059814453 L -81.0009994506836 163 L -78.0009994506836 163 L -78.0009994506836 166.0030059814453 L -75.0009994506836 166.0030059814453 L -75.0009994506836 163 L -72.0009994506836 163 L -72.0009994506836 166.0030059814453 L -69.0009994506836 166.0030059814453 L -69.0009994506836 163 L -66.0009994506836 163 L -66.0009994506836 166.0030059814453 L -63.000999450683594 166.0030059814453 L -63.000999450683594 163 L -60.000999450683594 163 L -60.000999450683594 166.0030059814453 L -57.000999450683594 166.0030059814453 L -57.000999450683594 163 L -54.000999450683594 163 L -54.000999450683594 166.0030059814453 L -51.000999450683594 166.0030059814453 L -51.000999450683594 163 L -48 163 L -48 166.0030059814453 L -45 166.0030059814453 L -45 163 L -42.00299835205078 163 L -42 163 L -42 165.9980010986328 L -42.00299835205078 165.9980010986328 L -42.00299835205078 168.9980010986328 L -42 168.9980010986328 L -39 168.9980010986328 L -38.99800109863281 168.9980010986328 L -38.99800109863281 165.9980010986328 L -39 165.9980010986328 L -39 163 L -38.99800109863281 163 L -36 163 L -36 166.0030059814453 L -33 166.0030059814453 L -33 163 L -32.99700164794922 163 L -30 163 L -30 166.0030059814453 L -27 166.0030059814453 L -27 163 L -24 163 L -24 166.0030059814453 L -21 166.0030059814453 L -21 163 L -18 163 L -18 166.0030059814453 L -16.003000259399414 166.0030059814453 L -15 166.0030059814453 L -15 163 L -12 163 M -150.0019989013672 193.0030059814453 L -148.0030059814453 193.0030059814453 L -147.0019989013672 193.0030059814453 L -147.0019989013672 189.9980010986328 L -148.0030059814453 189.9980010986328 L -150.0019989013672 189.9980010986328 L -150.0019989013672 193.0030059814453 M -156.0019989013672 193.0030059814453 L -153.0019989013672 193.0030059814453 L -153.0019989013672 189.9980010986328 L -156.0019989013672 189.9980010986328 L -156.0019989013672 193.0030059814453 M -38.99800109863281 171.99899291992188 L -39 171.99899291992188 L -42 171.99899291992188 L -42.00299835205078 171.99899291992188 L -42.00299835205078 175 L -42 175 L -39 175 L -38.99800109863281 175 L -38.99800109863281 171.99899291992188 M 66.00199890136719 193.0030059814453 L 69.00199890136719 193.0030059814453 L 69.00199890136719 189.9980010986328 L 66.00199890136719 189.9980010986328 L 66.00199890136719 193.0030059814453 M 75.00199890136719 189.9980010986328 L 72.00199890136719 189.9980010986328 L 72.00199890136719 193.0030059814453 L 75.00199890136719 193.0030059814453 L 75.00199890136719 189.9980010986328 M 60.000999450683594 193.0030059814453 L 63.00199890136719 193.0030059814453 L 63.00199890136719 189.9980010986328 L 60.000999450683594 189.9980010986328 L 60.000999450683594 193.0030059814453 M -38.99800109863281 178 L -39 178 L -42 178 L -42.00299835205078 178 L -42.00299835205078 181.00100708007812 L -42 181.00100708007812 L -39 181.00100708007812 L -38.99800109863281 181.00100708007812 L -38.99800109863281 178 M 48.000999450683594 193.0030059814453 L 51.000999450683594 193.0030059814453 L 51.000999450683594 189.9980010986328 L 48.000999450683594 189.9980010986328 L 48.000999450683594 193.0030059814453 M 57.000999450683594 189.9980010986328 L 54.000999450683594 189.9980010986328 L 54.000999450683594 193.0030059814453 L 57.000999450683594 193.0030059814453 L 57.000999450683594 189.9980010986328 M 42.000999450683594 193.0030059814453 L 45.000999450683594 193.0030059814453 L 45.000999450683594 189.9980010986328 L 42.000999450683594 189.9980010986328 L 42.000999450683594 193.0030059814453 M -38.99800109863281 184.0019989013672 L -39 184.0019989013672 L -42 184.0019989013672 L -42.00299835205078 184.0019989013672 L -42.00299835205078 187.0030059814453 L -42 187.0030059814453 L -39 187.0030059814453 L -38.99800109863281 187.0030059814453 L -38.99800109863281 184.0019989013672 M 33.000999450683594 189.9980010986328 L 30.000999450683594 189.9980010986328 L 30.000999450683594 193.0030059814453 L 33.000999450683594 193.0030059814453 L 33.000999450683594 189.9980010986328 M 24.000999450683594 193.0030059814453 L 27.000999450683594 193.0030059814453 L 27.000999450683594 189.9980010986328 L 24.000999450683594 189.9980010986328 L 24.000999450683594 193.0030059814453 M 39.000999450683594 189.9980010986328 L 36.000999450683594 189.9980010986328 L 36.000999450683594 193.0030059814453 L 39.000999450683594 193.0030059814453 L 39.000999450683594 189.9980010986328 M 18.000999450683594 193.0030059814453 L 21.000999450683594 193.0030059814453 L 21.000999450683594 189.9980010986328 L 18.000999450683594 189.9980010986328 L 18.000999450683594 193.0030059814453 M -141.0019989013672 189.9980010986328 L -144.0019989013672 189.9980010986328 L -144.0019989013672 193.0030059814453 L -141.0019989013672 193.0030059814453 L -141.0019989013672 189.9980010986328 M 12.00100040435791 193.0030059814453 L 15.00100040435791 193.0030059814453 L 15.00100040435791 189.9980010986328 L 12.00100040435791 189.9980010986328 L 12.00100040435791 193.0030059814453 M -135.0019989013672 189.9980010986328 L -138.0019989013672 189.9980010986328 L -138.0019989013672 193.0030059814453 L -135.0019989013672 193.0030059814453 L -135.0019989013672 189.9980010986328 M 6.000999927520752 193.0030059814453 L 9.00100040435791 193.0030059814453 L 9.00100040435791 189.9980010986328 L 6.000999927520752 189.9980010986328 L 6.000999927520752 193.0030059814453 M -129.0019989013672 189.9980010986328 L -132.0019989013672 189.9980010986328 L -132.0019989013672 193.0030059814453 L -129.0019989013672 193.0030059814453 L -129.0019989013672 189.9980010986328 M 0 193.0030059814453 L 3 193.0030059814453 L 3 189.9980010986328 L 0 189.9980010986328 L 0 193.0030059814453 M -123.00199890136719 189.9980010986328 L -126.00199890136719 189.9980010986328 L -126.00199890136719 193.0030059814453 L -123.00199890136719 193.0030059814453 L -123.00199890136719 189.9980010986328 M -6 193.0030059814453 L -3 193.0030059814453 L -3 189.9980010986328 L -6 189.9980010986328 L -6 193.0030059814453 M -117.00199890136719 189.9980010986328 L -120.00199890136719 189.9980010986328 L -120.00199890136719 193.0030059814453 L -117.00199890136719 193.0030059814453 L -117.00199890136719 189.9980010986328 M -12 193.0030059814453 L -9 193.0030059814453 L -9 189.9980010986328 L -12 189.9980010986328 L -12 193.0030059814453 M -111.00199890136719 189.9980010986328 L -114.00199890136719 189.9980010986328 L -114.00199890136719 193.0030059814453 L -111.00199890136719 193.0030059814453 L -111.00199890136719 189.9980010986328 M -16.003000259399414 193.0030059814453 L -15 193.0030059814453 L -15 189.9980010986328 L -16.003000259399414 189.9980010986328 L -18 189.9980010986328 L -18 193.0030059814453 L -16.003000259399414 193.0030059814453 M -108.00199890136719 193.0030059814453 L -105.0009994506836 193.0030059814453 L -105.0009994506836 189.9980010986328 L -108.00199890136719 189.9980010986328 L -108.00199890136719 193.0030059814453 M -99.0009994506836 189.9980010986328 L -102.0009994506836 189.9980010986328 L -102.0009994506836 193.0030059814453 L -99.0009994506836 193.0030059814453 L -99.0009994506836 189.9980010986328 M 96.00199890136719 193.0030059814453 L 99.00199890136719 193.0030059814453 L 99.00199890136719 189.9980010986328 L 96.00199890136719 189.9980010986328 L 96.00199890136719 193.0030059814453 M -93.0009994506836 189.9980010986328 L -96.0009994506836 189.9980010986328 L -96.0009994506836 193.0030059814453 L -93.0009994506836 193.0030059814453 L -93.0009994506836 189.9980010986328 M 90.00199890136719 193.0030059814453 L 93.00199890136719 193.0030059814453 L 93.00199890136719 189.9980010986328 L 90.00199890136719 189.9980010986328 L 90.00199890136719 193.0030059814453 M -87.0009994506836 189.9980010986328 L -90.0009994506836 189.9980010986328 L -90.0009994506836 193.0030059814453 L -87.0009994506836 193.0030059814453 L -87.0009994506836 189.9980010986328 M 84.00199890136719 193.0030059814453 L 87.00199890136719 193.0030059814453 L 87.00199890136719 189.9980010986328 L 84.00199890136719 189.9980010986328 L 84.00199890136719 193.0030059814453 M -81.0009994506836 189.9980010986328 L -84.0009994506836 189.9980010986328 L -84.0009994506836 193.0030059814453 L -81.0009994506836 193.0030059814453 L -81.0009994506836 189.9980010986328 M 78.00199890136719 193.0030059814453 L 81.00199890136719 193.0030059814453 L 81.00199890136719 189.9980010986328 L 78.00199890136719 189.9980010986328 L 78.00199890136719 193.0030059814453 M -75.0009994506836 189.9980010986328 L -78.0009994506836 189.9980010986328 L -78.0009994506836 193.0030059814453 L -75.0009994506836 193.0030059814453 L -75.0009994506836 189.9980010986328 M -21 193.0030059814453 L -21 189.9980010986328 L -24 189.9980010986328 L -24 193.0030059814453 L -21 193.0030059814453 M -63.000999450683594 189.9980010986328 L -66.0009994506836 189.9980010986328 L -66.0009994506836 193.0030059814453 L -63.000999450683594 193.0030059814453 L -63.000999450683594 189.9980010986328 M -69.0009994506836 189.9980010986328 L -72.0009994506836 189.9980010986328 L -72.0009994506836 193.0030059814453 L -69.0009994506836 193.0030059814453 L -69.0009994506836 189.9980010986328 M -30 193.0030059814453 L -27 193.0030059814453 L -27 189.9980010986328 L -30 189.9980010986328 L -30 193.0030059814453 M -60.000999450683594 193.0030059814453 L -57.000999450683594 193.0030059814453 L -57.000999450683594 189.9980010986328 L -60.000999450683594 189.9980010986328 L -60.000999450683594 193.0030059814453 M -51.000999450683594 189.9980010986328 L -54.000999450683594 189.9980010986328 L -54.000999450683594 193.0030059814453 L -51.000999450683594 193.0030059814453 L -51.000999450683594 189.9980010986328 M 117.00199890136719 193.0030059814453 L 117.00199890136719 189.9980010986328 L 114.00199890136719 189.9980010986328 L 114.00199890136719 193.0030059814453 L 117.00199890136719 193.0030059814453 M -45 189.9980010986328 L -48 189.9980010986328 L -48 193.0030059814453 L -45 193.0030059814453 L -45 189.9980010986328 M 102.00199890136719 193.0030059814453 L 105.00199890136719 193.0030059814453 L 105.00199890136719 189.9980010986328 L 102.00199890136719 189.9980010986328 L 102.00199890136719 193.0030059814453 M -33 189.9980010986328 L -36 189.9980010986328 L -36 193.0030059814453 L -33 193.0030059814453 L -33 189.9980010986328 M -42 189.9980010986328 L -42 193.0030059814453 L -39 193.0030059814453 L -39 189.9980010986328 L -42 189.9980010986328 M 111.00199890136719 193.0030059814453 L 111.00199890136719 189.9980010986328 L 108.00199890136719 189.9980010986328 L 108.00199890136719 193.0030059814453 L 111.00199890136719 193.0030059814453 z" fill="none" stroke="rgb(255,0,0)" stroke-width="0.001mm" />
</svg>