<?xml version="1.0" standalone="no"?>
<!DOCTYPE svg PUBLIC "-//W3C//DTD SVG 1.1//EN"
  "http://www.w3.org/Graphics/SVG/1.1/DTD/svg11.dtd">
<svg width="125mm" height="28.996994018554688mm" viewBox="-163 128.00100708007812 125 28.996994018554688" xmlns="http://www.w3.org/2000/svg" version="1.1">
	<title>svgOutput</title>
	<desc>made with tinkercad</desc>
<path d="M -39 131.99600219726562 L -42.00299835205078 131.99600219726562 L -42.00299835205078 134.99600219726562 L -39 134.99600219726562 L -39 137.9969940185547 L -42.00299835205078 137.9969940185547 L -42.00299835205078 140.9980010986328 L -39 140.9980010986328 L -39 143.9980010986328 L -42.00299835205078 143.9980010986328 L -42.00299835205078 146.99899291992188 L -39 146.99899291992188 L -39 150 L -42.00299835205078 150 L -42.00299835205078 152.99600219726562 L -44.99800109863281 152.99600219726562 L -44.99800109863281 153.00100708007812 L -44.99800109863281 155.9980010986328 L -47.99800109863281 155.9980010986328 L -47.99800109863281 153.00100708007812 L -47.99800109863281 152.99600219726562 L -50.99800109863281 152.99600219726562 L -50.99800109863281 153.00100708007812 L -50.99800109863281 155.9980010986328 L -53.99800109863281 155.9980010986328 L -53.99800109863281 153.00100708007812 L -53.99800109863281 152.99600219726562 L -56.99800109863281 152.99600219726562 L -56.99800109863281 153.00100708007812 L -56.99800109863281 155.9980010986328 L -59.99800109863281 155.9980010986328 L -59.99800109863281 153.00100708007812 L -59.99800109863281 152.99600219726562 L -62.99800109863281 152.99600219726562 L -62.99800109863281 153.00100708007812 L -62.99800109863281 155.9980010986328 L -65.9990005493164 155.9980010986328 L -65.9990005493164 153.00100708007812 L -65.9990005493164 152.99600219726562 L -68.9990005493164 152.99600219726562 L -68.9990005493164 153.00100708007812 L -68.9990005493164 155.9980010986328 L -71.9990005493164 155.9980010986328 L -71.9990005493164 153.00100708007812 L -71.9990005493164 152.99600219726562 L -74.9990005493164 152.99600219726562 L -74.9990005493164 153.00100708007812 L -74.9990005493164 155.9980010986328 L -77.9990005493164 155.9980010986328 L -77.9990005493164 153.00100708007812 L -77.9990005493164 152.99600219726562 L -80.9990005493164 152.99600219726562 L -80.9990005493164 153.00100708007812 L -80.9990005493164 155.9980010986328 L -83.9990005493164 155.9980010986328 L -83.9990005493164 153.00100708007812 L -83.9990005493164 152.99600219726562 L -86.9990005493164 152.99600219726562 L -86.9990005493164 153.00100708007812 L -86.9990005493164 155.9980010986328 L -90 155.9980010986328 L -90 153.00100708007812 L -90 152.99600219726562 L -93 152.99600219726562 L -93 153.00100708007812 L -93 155.9980010986328 L -96 155.9980010986328 L -96 153.00100708007812 L -96 152.99600219726562 L -99 152.99600219726562 L -99 153.00100708007812 L -99 155.9980010986328 L -102 155.9980010986328 L -102 153.00100708007812 L -102 152.99600219726562 L -105 152.99600219726562 L -105 153.00100708007812 L -105 155.9980010986328 L -108 155.9980010986328 L -108 153.00100708007812 L -108 152.99600219726562 L -111 152.99600219726562 L -111 153.00100708007812 L -111 155.9980010986328 L -114.0009994506836 155.9980010986328 L -114.0009994506836 153.00100708007812 L -114.0009994506836 152.99600219726562 L -117.0009994506836 152.99600219726562 L -117.0009994506836 153.00100708007812 L -117.0009994506836 155.9980010986328 L -120.0009994506836 155.9980010986328 L -120.0009994506836 153.00100708007812 L -120.0009994506836 152.99600219726562 L -123.0009994506836 152.99600219726562 L -123.0009994506836 153.00100708007812 L -123.0009994506836 155.9980010986328 L -126.0009994506836 155.9980010986328 L -126.0009994506836 153.00100708007812 L -126.0009994506836 152.99600219726562 L -129.00100708007812 152.99600219726562 L -129.00100708007812 153.00100708007812 L -129.00100708007812 155.9980010986328 L -132.00100708007812 155.9980010986328 L -132.00100708007812 153.00100708007812 L -132.00100708007812 152.99600219726562 L -135.00100708007812 152.99600219726562 L -135.00100708007812 153.00100708007812 L -135.00100708007812 155.9980010986328 L -138.0019989013672 155.9980010986328 L -138.0019989013672 153.00100708007812 L -138.0019989013672 152.99600219726562 L -141.0019989013672 152.99600219726562 L -141.0019989013672 153.00100708007812 L -141.0019989013672 155.9980010986328 L -144.0019989013672 155.9980010986328 L -144.0019989013672 153.00100708007812 L -144.0019989013672 152.99600219726562 L -147.0019989013672 152.99600219726562 L -147.0019989013672 153.00100708007812 L -147.0019989013672 155.9980010986328 L -150.0019989013672 155.9980010986328 L -150.0019989013672 153.00100708007812 L -150.0019989013672 152.99600219726562 L -153.0019989013672 152.99600219726562 L -153.0019989013672 153.00100708007812 L -153.0019989013672 155.9980010986328 L -156.0019989013672 155.9980010986328 L -156.0019989013672 153.00100708007812 L -156.0019989013672 152.99600219726562 L -158.4980010986328 152.99600219726562 L -158.4980010986328 150 L -162 150 L -162 146.99899291992188 L -158.4980010986328 146.99899291992188 L -158.4980010986328 143.9980010986328 L -162 143.9980010986328 L -162 140.9980010986328 L -158.4980010986328 140.9980010986328 L -158.4980010986328 137.9969940185547 L -162 137.9969940185547 L -162 134.99600219726562 L -158.4980010986328 134.99600219726562 L -158.4980010986328 131.99600219726562 L -162 131.99600219726562 L -162 129.00100708007812 L -39 129.00100708007812 L -39 131.99600219726562 z" fill="none" stroke="rgb(255,0,0)" stroke-width="0.001mm" />
</svg>