<?xml version="1.0" standalone="no"?>
<!DOCTYPE svg PUBLIC "-//W3C//DTD SVG 1.1//EN"
  "http://www.w3.org/Graphics/SVG/1.1/DTD/svg11.dtd">
<svg width="28.996994018554688mm" height="126mm" viewBox="-240.99899291992188 -206 28.996994018554688 126" xmlns="http://www.w3.org/2000/svg" version="1.1">
	<title>svgOutput</title>
	<desc>made with tinkercad</desc>
<path d="M -239.99899291992188 -92.99800109863281 L -237.0019989013672 -92.99800109863281 L -236.99600219726562 -92.99800109863281 L -236.99600219726562 -95.99800109863281 L -237.0019989013672 -95.99800109863281 L -239.99899291992188 -95.99800109863281 L -239.99899291992188 -98.99800109863281 L -237.0019989013672 -98.99800109863281 L -236.99600219726562 -98.99800109863281 L -236.99600219726562 -101.99800109863281 L -237.0019989013672 -101.99800109863281 L -239.99899291992188 -101.99800109863281 L -239.99899291992188 -104.9990005493164 L -237.0019989013672 -104.9990005493164 L -236.99600219726562 -104.9990005493164 L -236.99600219726562 -107.9990005493164 L -237.0019989013672 -107.9990005493164 L -239.99899291992188 -107.9990005493164 L -239.99899291992188 -110.9990005493164 L -237.0019989013672 -110.9990005493164 L -236.99600219726562 -110.9990005493164 L -236.99600219726562 -113.9990005493164 L -237.0019989013672 -113.9990005493164 L -239.99899291992188 -113.9990005493164 L -239.99899291992188 -116.9990005493164 L -237.0019989013672 -116.9990005493164 L -236.99600219726562 -116.9990005493164 L -236.99600219726562 -119.9990005493164 L -237.0019989013672 -119.9990005493164 L -239.99899291992188 -119.9990005493164 L -239.99899291992188 -122.9990005493164 L -237.0019989013672 -122.9990005493164 L -236.99600219726562 -122.9990005493164 L -236.99600219726562 -125.9990005493164 L -237.0019989013672 -125.9990005493164 L -239.99899291992188 -125.9990005493164 L -239.99899291992188 -129 L -237.0019989013672 -129 L -236.99600219726562 -129 L -236.99600219726562 -132 L -237.0019989013672 -132 L -239.99899291992188 -132 L -239.99899291992188 -135 L -237.0019989013672 -135 L -236.99600219726562 -135 L -236.99600219726562 -138 L -237.0019989013672 -138 L -239.99899291992188 -138 L -239.99899291992188 -141 L -237.0019989013672 -141 L -236.99600219726562 -141 L -236.99600219726562 -144 L -237.0019989013672 -144 L -239.99899291992188 -144 L -239.99899291992188 -147 L -237.0019989013672 -147 L -236.99600219726562 -147 L -236.99600219726562 -150 L -237.0019989013672 -150 L -239.99899291992188 -150 L -239.99899291992188 -153.00100708007812 L -237.0019989013672 -153.00100708007812 L -236.99600219726562 -153.00100708007812 L -236.99600219726562 -156.00100708007812 L -237.0019989013672 -156.00100708007812 L -239.99899291992188 -156.00100708007812 L -239.99899291992188 -159.00100708007812 L -237.0019989013672 -159.00100708007812 L -236.99600219726562 -159.00100708007812 L -236.99600219726562 -162.00100708007812 L -237.0019989013672 -162.00100708007812 L -239.99899291992188 -162.00100708007812 L -239.99899291992188 -165.00100708007812 L -237.0019989013672 -165.00100708007812 L -236.99600219726562 -165.00100708007812 L -236.99600219726562 -168.00100708007812 L -237.0019989013672 -168.00100708007812 L -239.99899291992188 -168.00100708007812 L -239.99899291992188 -171.00100708007812 L -237.0019989013672 -171.00100708007812 L -236.99600219726562 -171.00100708007812 L -236.99600219726562 -174.00100708007812 L -237.0019989013672 -174.00100708007812 L -239.99899291992188 -174.00100708007812 L -239.99899291992188 -177.0019989013672 L -237.0019989013672 -177.0019989013672 L -236.99600219726562 -177.0019989013672 L -236.99600219726562 -180.0019989013672 L -237.0019989013672 -180.0019989013672 L -239.99899291992188 -180.0019989013672 L -239.99899291992188 -183.0019989013672 L -237.0019989013672 -183.0019989013672 L -236.99600219726562 -183.0019989013672 L -236.99600219726562 -186.0019989013672 L -237.0019989013672 -186.0019989013672 L -239.99899291992188 -186.0019989013672 L -239.99899291992188 -189.0019989013672 L -237.0019989013672 -189.0019989013672 L -236.99600219726562 -189.0019989013672 L -236.99600219726562 -192.0019989013672 L -237.0019989013672 -192.0019989013672 L -239.99899291992188 -192.0019989013672 L -239.99899291992188 -195.0019989013672 L -237.0019989013672 -195.0019989013672 L -236.99600219726562 -195.0019989013672 L -236.99600219726562 -198.0019989013672 L -237.0019989013672 -198.0019989013672 L -239.99899291992188 -198.0019989013672 L -239.99899291992188 -205 L -237.0019989013672 -205 L -237.0019989013672 -201.697998046875 L -234.00100708007812 -201.697998046875 L -234.00100708007812 -205 L -231 -205 L -231 -201.697998046875 L -227.99899291992188 -201.697998046875 L -227.99899291992188 -205 L -224.99899291992188 -205 L -224.99899291992188 -201.697998046875 L -221.9980010986328 -201.697998046875 L -221.9980010986328 -205 L -218.9969940185547 -205 L -218.9969940185547 -201.697998046875 L -215.99600219726562 -201.697998046875 L -215.99600219726562 -205 L -213.0019989013672 -205 L -213.0019989013672 -81 L -215.99600219726562 -81 L -215.99600219726562 -84.00299835205078 L -218.9969940185547 -84.00299835205078 L -218.9969940185547 -81 L -221.9980010986328 -81 L -221.9980010986328 -84.00299835205078 L -224.99899291992188 -84.00299835205078 L -224.99899291992188 -81 L -227.99899291992188 -81 L -227.99899291992188 -84.00299835205078 L -231 -84.00299835205078 L -231 -81 L -234.00100708007812 -81 L -234.00100708007812 -84.00299835205078 L -237.0019989013672 -84.00299835205078 L -237.0019989013672 -83.99800109863281 L -239.99899291992188 -83.99800109863281 L -239.99899291992188 -86.99800109863281 L -237.0019989013672 -86.99800109863281 L -236.99600219726562 -86.99800109863281 L -236.99600219726562 -89.99800109863281 L -237.0019989013672 -89.99800109863281 L -239.99899291992188 -89.99800109863281 L -239.99899291992188 -92.99800109863281 z" fill="none" stroke="rgb(255,0,0)" stroke-width="0.001mm" />
</svg>